<?xml version="1.0" standalone="no"?><!DOCTYPE svg PUBLIC "-//W3C//DTD SVG 1.1//EN" "http://www.w3.org/Graphics/SVG/1.1/DTD/svg11.dtd"><svg t="1509755624200" class="icon" style="" viewBox="0 0 1024 1024" version="1.1" xmlns="http://www.w3.org/2000/svg" p-id="1795" xmlns:xlink="http://www.w3.org/1999/xlink" width="200" height="200"><defs><style type="text/css"></style></defs><path d="M831.2675786 563.5024685L192.73167983 563.5024685c-28.32683924 0-51.50320936-23.17637014-51.50320936-51.5024685l0 0c0-28.32683924 23.17637014-51.5024685 51.50320935-51.5024685l638.53589877 0c28.32683924 0 51.5024685 23.17637014 51.50246851 51.5024685l0 0C882.77078868 540.32683924 859.59441855 563.5024685 831.2675786 563.5024685z" p-id="1796"></path><path d="M460.49679064 831.2675786L460.49679064 192.73167983c0-28.32683924 23.17637014-51.50320936 51.5024685-51.50320936l0 0c28.32683924 0 51.5024685 23.17637014 51.50246851 51.50320935l0 638.53589877c0 28.32683924-23.17637014 51.5024685-51.50246851 51.50246851l0 0C483.67316076 882.77078868 460.49679064 859.59441855 460.49679064 831.2675786z" p-id="1797"></path></svg>