<?xml version="1.0" standalone="no"?><!DOCTYPE svg PUBLIC "-//W3C//DTD SVG 1.1//EN" "http://www.w3.org/Graphics/SVG/1.1/DTD/svg11.dtd"><svg t="1509007727007" class="icon" style="" viewBox="0 0 1024 1024" version="1.1" xmlns="http://www.w3.org/2000/svg" p-id="2414" xmlns:xlink="http://www.w3.org/1999/xlink" width="200" height="200"><defs><style type="text/css"></style></defs><path d="M448.1352686 116.50810051C341.44996695 115.12537585 248.11297752 204.01215542 246.6298317 313.56564496c-0.79101099 61.79619541 27.28910978 118.45081862 75.73776548 158.39610501l14.33707554 8.60224548-14.4853902 5.48763922C220.82309526 535.24186364 118.38947864 657.54886104 116.51082735 798.14876217c-0.74157251 53.44114076 21.55427971 76.28158562 76.33102333 76.97372042l262.26420295 3.26292091c8.65168396 0.14831466 27.68538774 1.33483115 27.88314011-15.62246897 0.24719084-19.67562765-18.58876059-15.02843788-27.24044378-15.12731407L193.53398548 844.32326107a46.07562272 46.07562272 0 0 1-32.62920682-13.4471876 43.85090363 43.85090363 0 0 1-12.90259575-32.13482515c1.97752748-149.0028493 180.44631134-305.62072415 218.66126187-293.31061455 8.60147301 0.04943848 56.50630854 6.77303266 68.02540793 6.92134656h24.76776136c34.60673429-2.47190992 75.68832698-6.77303266 101.9894459-28.92056946l11.61797478-8.30561618c49.53552352-38.70855972 79.0493516-94.62238211 79.84036337-156.46878848C654.43698162 209.05485145 563.42281497 117.94180783 448.1352686 116.50887299z m0.93932565 365.63791692C355.93612963 481.00893942 279.90173486 404.87566846 281.13768982 314.05925416c1.23595496-90.914518 79.19843873-165.02082301 172.3384483-163.93395519 93.08979862 1.13785126 169.07475492 77.32055992 167.83879995 168.08676327-1.13707878 90.96472896-79.09956256 165.02159549-172.23957134 163.88451747z m453.48726714 188.10845947c8.20673998 26.89360428 4.4007714 67.18495845 1.33560361 81.71978636-5.04269526 23.23595034-26.20224195 21.05989726-44.93854394 27.28910978a44.98798241 44.98798241 0 0 0-30.79922151 42.02246329c-0.19775313 8.45315835 2.5707861 16.95575517 2.5707861 16.95575518a34.01270396 34.01270396 0 0 1-12.01348105 39.05617169c-10.33258212 7.36629052-23.33482653 12.25989942-34.45764717 18.19248184-15.62246899 8.45393083-35.99023144 17.79774882-52.40371141 5.63595466-14.13932318-10.48089678-22.14753757-27.28910978-42.71382563-27.38798672-15.07864883-0.14831466-27.83292993 11.71685174-37.86888272 21.25842286-19.3789991 18.29135879-42.02169082 14.48384526-62.78495954 1.68012646-9.49213266-5.73483007-20.56628805-10.38202059-29.26663725-16.90708917a34.11235261 34.11235261 0 0 1-10.97527846-39.45090549c0-2.86741541 2.9662916-11.22246929 3.06516778-16.80898547a43.80146593 43.80146593 0 0 0-12.85392974-32.18349037 46.07562272 46.07562272 0 0 0-32.62843435-13.44718838l-2.86741543-0.0494377c-11.56853708 0-22.93854855-11.46888842-25.6576493-25.60821161-2.81797694-2.81797694-5.43820152-25.3115823-5.19100992-42.21944318 0.24719084-19.62618994 6.27865022-39.25315235 6.3280887-42.12056777 3.01573007-13.94079757 14.68237086-25.01495299 26.20146947-24.91607603l2.86741464 0.0494377a46.1744989 46.1744989 0 0 0 33.02394061-12.6067389 43.89956964 43.89956964 0 0 0 13.74381692-31.83742336c0.19775313-17.89662578-12.50786273-45.18573555 9.3430463-56.06213706 12.40898655-6.17977403 24.81797232-12.25989942 37.17752039-18.53932211 8.10709133-4.05315942 16.16551667-9.09585469 25.36024753-10.33180964 11.37078395-1.53258428 20.86291737 4.25168427 29.91010606 10.33258212 8.55280701 5.78426855 25.70786027 20.02246791 37.2261864 20.17001009 21.99999538 0.24719084 34.06214167-25.55877313 54.82618286-29.21719955 20.66439176-3.70786411 31.39247937 5.38876304 48.59619787 14.97977265l23.384265 13.00147194c27.48686213 20.66516424 0.14831466 51.41571977 12.01348029 76.47933798 7.16853817 15.37527815 24.2733797 25.21347783 41.378222 25.46066943h2.86741543c13.64494073 0.24719084 21.75280455 10.87640228 26.20224195 25.41045848z m-25.45989696 73.01866471c2.17528061-0.34606702 2.32359527-61.05462213-2.42247144-61.79619542a93.88158208 93.88158208 0 0 1-80.97821386-93.58495277c0.14908713-9.24416934 3.46067328-21.55427971 6.62471801-27.68461526l-40.78573586-22.09809909c-3.21348244 3.06439531-9.54079866 6.08012538-15.91832581 12.21046094-19.18201844 12.06291876-35.00146732 18.04494043-50.87112714 17.79774883-15.72057269-0.19775313-31.49135633-6.52584105-50.32653452-19.13257997a66.44338517 66.44338517 0 0 1-15.62246898-12.55652873l-41.37899448 21.10933574c3.80674106 8.84943632 5.83370702 18.29213127 5.98202167 27.83292991-0.64269633 49.33854364-35.94079297 85.87259523-83.45012378 91.50854834-2.12584213 0.24719084-6.77303266 60.80743129-0.84044946 61.64788076 47.16326302 7.06966121 81.76922484 47.06438685 80.97821384 93.58495276a73.16697936 73.16697936 0 0 1-6.6741557 27.68538775l37.62169189 22.04866139c3.31235861-6.17977403 9.64044731-9.19550411 16.01797449-15.2269635 19.18124597-12.06291876 38.16551204-18.04494043 54.03439861-17.79774882 18.98426608 0.1985256 34.65540029 6.624718 53.49135173 19.08314226 5.19100992 5.28988687 10.38202059 10.48089678 15.62169651 15.6719067l41.37899448-21.06066975a72.67259768 72.67259768 0 0 1-5.9325832-27.78349144c0.64269633-49.43741982 35.94156544-85.92203293 83.450123-91.45911063z m-184.35038364 62.98348437h-0.05021094a96.89653891 96.89653891 0 0 1-20.66439176-2.2741568c-37.5730259-7.11909968-68.56999979-38.16551204-75.04563066-75.44113614a93.63439124 93.63439124 0 0 1 20.61495406-78.65461937 94.67259307 94.67259307 0 0 1 92.39843628-30.99774635c38.46136888 7.36629052 68.71754197 38.90708456 74.99619218 78.45686622 5.24044838 26.69662362-1.97752748 54.23292424-19.77527708 75.14450683-17.74753865 21.25842288-44.34528608 33.66740865-72.47484454 33.76628561z m-3.36256956-158.00137276a61.40068991 61.40068991 0 0 0-46.81719523 21.75280455 62.04338625 62.04338625 0 0 0-13.59550304 52.99619756c4.49964758 25.01495299 24.22471447 44.83966776 49.73404913 50.0299052a62.29057708 62.29057708 0 0 0 61.54977628-20.66439176c11.71685174-13.89213234 16.36326902-31.98573802 12.80449204-49.58496201a62.9827119 62.9827119 0 0 0-49.68538313-52.94753079 65.553498 65.553498 0 0 0-13.98946357-1.58202275z" p-id="2415"></path></svg>