<?xml version="1.0" standalone="no"?><!DOCTYPE svg PUBLIC "-//W3C//DTD SVG 1.1//EN" "http://www.w3.org/Graphics/SVG/1.1/DTD/svg11.dtd"><svg t="1508988650619" class="icon" style="" viewBox="0 0 1024 1024" version="1.1" xmlns="http://www.w3.org/2000/svg" p-id="17901" xmlns:xlink="http://www.w3.org/1999/xlink" width="200" height="200"><defs><style type="text/css"></style></defs><path d="M1017.6 696.8c-3.4-18.1-15-29.8-29.9-29.8h-2.1c-28.5 0-51.6-23.2-51.7-51.6 0-7.6 3.2-16.7 4.5-19.6 7.1-16.8 1.1-36.3-14.1-46.3L864 516.1c-15.2-6.2-32.6-2.7-44.2 8.8-7.5 7.7-27.6 23.8-41.3 23.8-13.9 0-34-16.4-41.6-24.3-11.5-11.6-28.8-15.2-44-9.2l-1.1 0.5-61.5 33.8-1.5 0.9c-14.4 10.2-19.7 29.1-12.7 45.2 2.6 6.3 4.1 13 4.5 19.8-0.1 28.5-23.2 51.6-51.7 51.6h-2.4c-14.6 0-26.2 11.7-29.6 29.8-0.5 2.8-5 27.7-5 48s4.5 45.2 5 48c3.4 18.2 15.1 29.8 30 29.8h2.1c28.5 0 51.7 23.2 51.7 51.7-0.4 6.7-1.9 13.3-4.5 19.5-7 16.8-1.1 36.2 14 46.3l59.3 33.1c15.3 6.4 33 2.7 44.5-9.4 7.4-8 28.1-25.3 42.3-25.3 14.3 0 34.8 17.3 42.5 25.8 11.8 12.5 30.3 16.1 45.9 8.9l60-33.2 1.5-0.9c14.4-10.2 19.7-29 12.7-45.2-2.6-6.2-4.2-12.9-4.6-19.7 0-28.6 23.2-51.7 51.7-51.7h2.4c14.6 0 26.2-11.7 29.5-29.7 0.1-0.3 5.2-26.9 5.2-48.1-0.2-20-4.9-45.1-5.5-47.9z m-154 51.8c-2.1 47.4-40 85.3-87.4 87.4-50.5-2.2-89.6-44.9-87.4-95.3 2.1-47.4 40-85.3 87.4-87.4 50.5 2.2 89.6 44.8 87.4 95.3z" p-id="17902"></path><path d="M641.5 477.1C489.8 559.5 433.6 749.3 516 901c9.5 17.5 20.7 34.1 33.4 49.5h-460c-48.5 0-88.2-29.9-88.2-78.6v-21.2c0-44.7 32.9-84.3 74.9-99.4l179.8-80.2s48.7-14.9 62-29.9c8.9-10 11.6-42.8 0.4-64.3C307 555.3 216 436.9 216 337.4 215.9 177 321.3 47 451.4 47c130 0 235.5 130 235.5 290.4 0 47.5-21.4 97.1-45.5 139.7h0.1z" p-id="17903"></path></svg>