<?xml version="1.0" standalone="no"?><!DOCTYPE svg PUBLIC "-//W3C//DTD SVG 1.1//EN" "http://www.w3.org/Graphics/SVG/1.1/DTD/svg11.dtd"><svg t="1510294177314" class="icon" style="" viewBox="0 0 1024 1024" version="1.1" xmlns="http://www.w3.org/2000/svg" p-id="1995" xmlns:xlink="http://www.w3.org/1999/xlink" width="200" height="200"><defs><style type="text/css"></style></defs><path d="M203.44728096 213.68902447a81.35996836 81.35996836 0 1 0 0 162.7000919 81.35996836 81.35996836 0 0 0 0-162.7000919z m0 122.05979561c-22.44344502 0-40.69982813-18.2563831-40.69982725-40.69982813s18.2563831-40.67998418 40.69982725-40.6799833 40.69982813 18.23653916 40.69982812 40.6799833-18.2563831 40.69982813-40.69982812 40.69982813zM833.80844023 213.68902447H427.14750606a61.00013232 61.00013232 0 0 0-61.01997627 61.01997539v40.64029717a60.98028838 60.98028838 0 0 0 61.01997626 61.00013232h406.66093418a60.94060049 60.94060049 0 0 0 61.00013232-61.00013232V274.7288438c0-33.73462089-27.24566748-61.03982021-61.00013232-61.03981933z m20.41936787 101.68011563c0 11.2118001-9.22741084 20.37967998-20.41936787 20.37967998H427.14750606a20.43921182 20.43921182 0 0 1-20.37967999-20.37967998V274.7288438c0-11.2118001 9.14803506-20.35983604 20.37967998-20.35983514h406.66093418c11.19195703 0 20.41936787 9.14803506 20.41936787 20.35983516v40.64029628zM833.80844023 457.70939684H427.14750606a61.00013232 61.00013232 0 0 0-61.01997627 61.01997626v40.64029629c0 33.73462089 27.30519932 61.01997627 61.01997626 61.01997628h406.66093418a60.94060049 60.94060049 0 0 0 61.00013232-61.01997628v-40.64029629a60.96044443 60.96044443 0 0 0-61.00013232-61.01997626z m20.41936787 101.68011649c0 11.2118001-9.22741084 20.37967998-20.41936787 20.37967999H427.14750606a20.43921182 20.43921182 0 0 1-20.37967999-20.37967999v-40.64029628c0-11.2118001 9.14803506-20.35983604 20.37967998-20.35983604h406.66093418c11.19195703 0 20.41936787 9.14803506 20.41936787 20.35983604v40.64029628zM833.80844023 701.70992613H427.14750606a61.00013232 61.00013232 0 0 0-61.01997627 61.01997627v40.6402963c0 33.73462089 27.30519932 61.01997627 61.01997626 61.01997626h406.66093418a60.94060049 60.94060049 0 0 0 61.00013232-61.01997626v-40.6402963a60.96044443 60.96044443 0 0 0-61.00013232-61.01997627z m20.41936787 101.66027255c0 11.2118001-9.22741084 20.37967998-20.41936787 20.37967999H427.14750606a20.43921182 20.43921182 0 0 1-20.37967999-20.37967999v-40.64029628c0-11.2118001 9.14803506-20.35983604 20.37967998-20.35983604h406.66093418c11.19195703 0 20.41936787 9.14803506 20.41936787 20.35983604v40.64029628zM203.44728096 457.70939684a81.35996836 81.35996836 0 1 0 0 162.70009277 81.35996836 81.35996836 0 0 0 0-162.70009277z m0 122.05979648c-22.44344502 0-40.69982813-18.2563831-40.69982725-40.69982812s18.2563831-40.67998418 40.69982725-40.67998419 40.69982813 18.23653916 40.69982812 40.67998419-18.2563831 40.69982813-40.69982812 40.69982812zM203.44728096 701.70992613a81.35996836 81.35996836 0 1 0 0.01984394 162.71993671 81.35996836 81.35996836 0 0 0-0.01984394-162.71993671z m0 122.05979649c-22.44344502 0-40.69982813-18.2563831-40.69982725-40.69982813s18.2563831-40.69982813 40.69982725-40.69982813 40.69982813 18.2563831 40.69982812 40.69982813-18.2563831 40.69982813-40.69982812 40.69982813z" p-id="1996"></path></svg>