<?xml version="1.0" standalone="no"?><!DOCTYPE svg PUBLIC "-//W3C//DTD SVG 1.1//EN" "http://www.w3.org/Graphics/SVG/1.1/DTD/svg11.dtd"><svg t="1510294181534" class="icon" style="" viewBox="0 0 1024 1024" version="1.1" xmlns="http://www.w3.org/2000/svg" p-id="2118" xmlns:xlink="http://www.w3.org/1999/xlink" width="200" height="200"><defs><style type="text/css"></style></defs><path d="M195.4261684 258.10801185m-52.48532126 0a51.28994751 51.28994751 0 1 0 104.97064251 0 51.28994751 51.28994751 0 1 0-104.97064251 0Z" p-id="2119"></path><path d="M195.4261684 521.81456299m-52.48532126 0a51.28994751 51.28994751 0 1 0 104.97064251 0 51.28994751 51.28994751 0 1 0-104.97064251 0Z" p-id="2120"></path><path d="M195.4261684 784.61806927m-52.48532126 0a51.28994751 51.28994751 0 1 0 104.97064251 0 51.28994751 51.28994751 0 1 0-104.97064251 0Z" p-id="2121"></path><path d="M855.88437774 310.5933331L376.94138245 310.5933331c-13.21176132 0-24.02130707-10.80954575-24.02130707-24.02130707L352.92007455 229.6448414c0-13.21176132 10.80954575-24.02130707 24.02130707-24.02130707l478.9429953 0c13.21176132 0 24.02130707 10.80954575 24.02130707 24.02130707l0 56.92718463C879.90652774 299.78378735 869.096982 310.5933331 855.88437774 310.5933331z" p-id="2122"></path><path d="M855.88437774 837.94656951L376.94138245 837.94656951c-13.21176132 0-24.02130707-10.80954575-24.02130707-24.02130706l0-56.92718463c0-13.21176132 10.80954575-24.02130707 24.02130707-24.02130706l478.94299529 0c13.21176132 0 24.02130707 10.80954575 24.02130708 24.02130706l0 56.92718463C879.90652774 827.13618002 869.096982 837.94656951 855.88437774 837.94656951z" p-id="2123"></path><path d="M855.88437774 574.29988425L376.94138245 574.29988425c-13.21176132 0-24.02130707-10.80954575-24.02130707-24.02130707l0-56.92718463c0-13.21176132 10.80954575-24.02130707 24.02130707-24.02130707l478.94299529 0c13.21176132 0 24.02130707 10.80954575 24.02130708 24.02130707l0 56.92718463C879.90652774 563.49033768 869.096982 574.29988425 855.88437774 574.29988425z" p-id="2124"></path></svg>