<?xml version="1.0" standalone="no"?><!DOCTYPE svg PUBLIC "-//W3C//DTD SVG 1.1//EN" "http://www.w3.org/Graphics/SVG/1.1/DTD/svg11.dtd"><svg t="1509008024706" class="icon" style="" viewBox="0 0 1024 1024" version="1.1" xmlns="http://www.w3.org/2000/svg" p-id="3429" xmlns:xlink="http://www.w3.org/1999/xlink" width="200" height="200"><defs><style type="text/css"></style></defs><path d="M685.14000031 490.95999969l-202.8 200.12000062-108.58000031-91.04000062a18.6 18.6 0 0 0-26.05999969 0 18.01999969 18.01999969 0 0 0 0 25.70000062l122.65999969 102.85999969a18.6 18.6 0 0 0 26.05999969 0L711.2 516.66000031a18.01999969 18.01999969 0 0 0 0-25.70000062 18.6 18.6 0 0 0-26.05999969 0zM812 222.00000031h-139.99999969v-40.00000031h-62.02000031a100.02 100.02 0 0 0-195.96 0H351.99999969v40.00000031H212a60 60 0 0 0-60 60v579.99999938a60 60 0 0 0 60 60h600a60 60 0 0 0 60-60v-579.99999938a60 60 0 0 0-60-60z m-420 0h63.67999969a59.23999969 59.23999969 0 0 1-3.67999969-20.00000062 60 60 0 1 1 120 0c0 7.06000031-1.44 13.72000031-3.67999969 20.00000062H632v99.99999938H392v-99.99999938z m439.99999969 619.99999969c0 33.12-6.85999969 40.00000031-39.99999938 40.00000031H231.99999969c-33.13999969 0-40.00000031-6.88000031-39.99999938-40.00000031v-540c0-33.13999969 6.85999969-40.00000031 39.99999938-40.00000031h120v100.00000031h320.00000062v-100.00000031h120c33.13999969 0 40.00000031 6.85999969 39.99999938 40.00000031v540z" p-id="3430"></path></svg>