<?xml version="1.0" standalone="no"?><!DOCTYPE svg PUBLIC "-//W3C//DTD SVG 1.1//EN" "http://www.w3.org/Graphics/SVG/1.1/DTD/svg11.dtd"><svg t="1509008338066" class="icon" style="" viewBox="0 0 1024 1024" version="1.1" xmlns="http://www.w3.org/2000/svg" p-id="4414" xmlns:xlink="http://www.w3.org/1999/xlink" width="200" height="200"><defs><style type="text/css"></style></defs><path d="M844.46798222 220.25098667c-25.76448-25.0704-60.24-38.87808-97.07616-38.87808h-63.15264v-21.89376h-67.30464c-6.41184-22.59744-18.92832-43.55808-35.64768-59.53248-19.97664-19.08672-43.74048-29.17632-68.7264-29.17632-24.72672 0-49.58496 10.32576-69.9936 29.07456-17.63136 16.19712-30.66336 37.19136-37.12032 59.63328H338.12942222v21.89376h-41.56608c-36.83616 0-71.31168 13.80768-97.07616 38.87808-26.03712 25.33632-40.37664 59.56704-40.37664 96.38688v455.25888c0 76.5024 61.6608 138.74112 137.45376 138.74112h450.82848c75.79104 0 137.45184-62.23968 137.45184-138.74112V316.63882667c-0.00096-36.8208-14.34048-71.05152-40.37664-96.38784z m-449.16384-2.4096h66.98688v-35.12256c0-27.1872 24.44064-52.8912 50.29152-52.8912 27.57312 0 46.0944 27.34752 46.0944 52.8912v35.12256h66.32256v97.42752H395.30414222V217.84138667z m325.53504 222.85056L535.18574222 735.27658667a31.22112 31.22112 0 0 1-21.2352 14.21568 28.28544 28.28544 0 0 1-5.23296 0.47616c-7.104 0-14.0736-2.47872-19.62528-6.98016l-132.5856-107.09088c-13.46112-10.8912-15.6576-30.80544-4.89888-44.39904 5.9952-7.56 14.9424-11.89152 24.54912-11.89152a31.21152 31.21152 0 0 1 19.59072 6.95232l105.28128 85.0512 166.85664-264.80256c5.7792-9.17472 15.69312-14.65248 26.52-14.65248a31.1904 31.1904 0 0 1 16.82304 4.92864c14.57664 9.38976 18.87744 28.94592 9.61056 43.608z" fill="" p-id="4415"></path></svg>