<?xml version="1.0" standalone="no"?><!DOCTYPE svg PUBLIC "-//W3C//DTD SVG 1.1//EN" "http://www.w3.org/Graphics/SVG/1.1/DTD/svg11.dtd"><svg t="1509755577967" class="icon" style="" viewBox="0 0 1024 1024" version="1.1" xmlns="http://www.w3.org/2000/svg" p-id="1667" xmlns:xlink="http://www.w3.org/1999/xlink" width="200" height="200"><defs><style type="text/css"></style></defs><path d="M512 141.21142578C308.06628417 141.21142578 141.21142578 308.06628417 141.21142578 512s166.8548584 370.78857422 370.78857422 370.78857422 370.78857422-166.8548584 370.78857422-370.78857422S715.93371583 141.21142578 512 141.21142578z m205.09243012 545.75443269c-49.82471467 61.41185761-122.82371521 96.17328644-205.09243012 96.17328643C362.52585601 783.1391449 240.8608551 661.47414399 240.8608551 512c0-33.60271454 5.79357148-63.7292862 16.22200013-90.37971497l460.00957489 265.34557344zM783.1391449 512c0 33.60271454-5.79357148 63.7292862-16.22200013 90.37971497l-460.00957489-266.50428773c49.82471467-61.41185761 122.82371521-96.17328644 205.09243012-96.17328644 149.47414399 1.1587143 271.1391449 122.82371521 271.1391449 272.2978592z" p-id="1668"></path></svg>