<?xml version="1.0" standalone="no"?><!DOCTYPE svg PUBLIC "-//W3C//DTD SVG 1.1//EN" "http://www.w3.org/Graphics/SVG/1.1/DTD/svg11.dtd"><svg t="1516417287769" class="icon" style="" viewBox="0 0 1138 1024" version="1.1" xmlns="http://www.w3.org/2000/svg" p-id="3110" xmlns:xlink="http://www.w3.org/1999/xlink" width="222.265625" height="200"><defs><style type="text/css"></style></defs><path d="M208.14759278 324.49999963L160.89759278 324.49999963C135.72571722 324.49999963 114.39759259 345.40625009 114.39759259 371.23437527l0 281.53125028C114.39759259 678.26562509 135.21009285 699.50000037 160.89759278 699.50000037L208.14759278 699.50000037 208.14759278 324.49999963zM958.14759259 324.49999963l47.25 0C1031.13196759 324.49999963 1051.89759278 345.73437491 1051.89759278 371.23437527l1e-8 281.53125028C1051.89759278 678.640625 1030.56946733 699.50000037 1005.39759259 699.50000037L958.14759259 699.50000037 958.14759259 324.49999963z" p-id="3111"></path><path d="M864.39759239 183.87500019L301.89759296 183.87500019C276.02259267 183.87500019 255.02259285 204.875 255.02259285 230.75000027l0 562.50000027c0 25.92187536 20.99999982 46.87500009 46.87500011 46.8750001l562.50000027 0c25.92187536 0 46.87500009-20.95312473 46.87500008-46.8750001L911.2725925 230.75000027C911.2725925 204.875 890.31946779 183.87500019 864.39759239 183.87500019zM419.08509279 324.49999963C457.94446786 324.49999963 489.39759251 355.95312509 489.39759251 394.81250019S457.94446786 465.12499991 419.08509279 465.12499991 348.77259222 433.67187527 348.77259222 394.81250019 380.22571769 324.49999963 419.08509279 324.49999963zM301.89759296 746.37499963c0 0 38.390625-192.28124982 114.93750035-192.28124982 76.54687537 0 67.40624982 65.20312463 124.9218751 65.20312464C599.31946797 619.29687527 623.08509239 418.24999981 700.42884268 418.24999981S864.39759239 746.37499963 864.39759239 746.37499963L301.89759296 746.37499963z" p-id="3112"></path></svg>