<?xml version="1.0" standalone="no"?><!DOCTYPE svg PUBLIC "-//W3C//DTD SVG 1.1//EN" "http://www.w3.org/Graphics/SVG/1.1/DTD/svg11.dtd"><svg t="1516417267545" class="icon" style="" viewBox="0 0 1024 1024" version="1.1" xmlns="http://www.w3.org/2000/svg" p-id="2985" xmlns:xlink="http://www.w3.org/1999/xlink" width="200" height="200"><defs><style type="text/css"></style></defs><path d="M768.0954875 213.22209125L255.9045125 213.22209125c-23.5731375 0-42.68242125 19.10928377-42.68242125 42.68242125L213.22209125 768.09260937c0 23.57409657 19.10928377 42.6843403 42.68242125 42.68434032l512.19097406 0c23.57121844 0 42.68242125-19.11120281 42.68242125-42.68434031L810.77790875 255.9045125C810.77790875 232.331375 791.66670594 213.22209125 768.0954875 213.22209125zM255.9045125 768.09260937l0-1.60019531c0.56217844 0.54586969 1.13011406 1.08022781 1.703805 1.60019532L255.9045125 768.09260937zM768.0954875 768.09260937L602.19037062 593.08614406l-81.92269687 71.15207907L397.33086594 550.40947812 274.40269062 664.23822219l-18.49817812 21.127755L255.9045125 255.9045125l512.19097406 0L768.0954875 768.09260937zM632.92985001 510.77011344c44.05045406 0 79.79485876-35.80676345 79.79485874-79.91669625 0-44.14638844-35.74440562-79.933965-79.79485876-79.933965-44.07155906 0-79.79485876 35.78757563-79.79485874 79.933965C553.13499031 474.96814719 588.85829001 510.77011344 632.92985001 510.77011344z" p-id="2986"></path><path d="M188.05931186 314.15525844l2e-8-42.68242125-53.26692469 0c-23.5731375 0-42.68242125 19.10928377-42.68242125 42.68242125l0 393.22875093c0 23.57409657 19.10928377 42.6843403 42.68242125 42.68434032l53.26692469 0 0-42.68434031-53.26692469 0L134.79238719 314.15525844 188.05931186 314.15525844z" p-id="2987"></path><path d="M834.64652562 707.65646469l1e-8 42.68242125 53.26692468 0c23.5731375 0 42.68242125-19.10928377 42.68242125-42.68242125L930.59587156 314.42675469c0-23.5731375-19.10928377-42.6843403-42.68242125-42.68434032l-53.26692468 0 0 42.68434032 53.26692468 0 0 393.22971L834.64652562 707.65646469z" p-id="2988"></path></svg>