<?xml version="1.0" standalone="no"?><!DOCTYPE svg PUBLIC "-//W3C//DTD SVG 1.1//EN" "http://www.w3.org/Graphics/SVG/1.1/DTD/svg11.dtd"><svg t="1509007764661" class="icon" style="" viewBox="0 0 1024 1024" version="1.1" xmlns="http://www.w3.org/2000/svg" p-id="2542" xmlns:xlink="http://www.w3.org/1999/xlink" width="200" height="200"><defs><style type="text/css"></style></defs><path d="M841.57995631 731.70986353L481.06342757 731.70986353 270.28606009 907.31006477 286.47942143 731.70986353 182.42004369 731.70986353C158.14098707 731.70986353 138.47604896 712.0449262 138.47604896 687.78784188L138.47604896 160.43793885C138.47604896 136.18085454 158.14098707 116.49394566 182.42004369 116.49394566L841.57995631 116.49394566C865.83704062 116.49394566 885.52395104 136.18085454 885.52395104 160.43793885L885.52395104 687.78784188C885.52395104 712.0449262 865.83704062 731.70986353 841.57995631 731.70986353ZM841.57995631 160.43793885L182.42004369 160.43793885 182.42004369 687.78784188 333.10399972 687.78784188 313.85653014 819.72968381 467.7264252 687.78784188 841.57995631 687.78784188 841.57995631 160.43793885ZM336.44374339 470.94620177L375.92742272 451.74267682C401.67860191 500.60839782 452.91730027 533.96188991 512 533.96188991 574.51033112 533.96188991 628.18792065 496.6094948 652.24725726 443.06373759L691.73093659 462.28923562C660.50872796 530.44637082 591.86820958 577.90588388 512 577.90588388 435.53745025 577.90588388 369.3577954 534.44527384 336.44374339 470.94620177Z" p-id="2543"></path></svg>