<?xml version="1.0" standalone="no"?><!DOCTYPE svg PUBLIC "-//W3C//DTD SVG 1.1//EN" "http://www.w3.org/Graphics/SVG/1.1/DTD/svg11.dtd"><svg t="1509008240805" class="icon" style="" viewBox="0 0 1024 1024" version="1.1" xmlns="http://www.w3.org/2000/svg" p-id="3922" xmlns:xlink="http://www.w3.org/1999/xlink" width="200" height="200"><defs><style type="text/css"></style></defs><path d="M841.58424124 116.4921875H182.41971385c-24.27961744 0-43.94377459 19.68788683-43.94377382 43.94377459v527.35297825c0 24.25984282 19.66415715 43.92004489 43.94377381 43.92004412h104.05945961l-16.19168506 175.60107877 210.77666377-175.60107877h360.52008907c24.25588775 0 43.93981951-19.66415715 43.93981874-43.92004412V160.43200701c0-24.25588775-19.68393175-43.93981951-43.93981874-43.93981951zM512 577.90379664c-76.46161352 0-142.64423698-43.46126664-175.55757368-106.95845849l39.48255769-19.20142459C401.67585344 500.60768251 452.91656487 533.96002206 512 533.96002206c62.51240213 0 116.18938064-37.35082388 140.24751912-90.89728793l39.4825577 19.22515429c-31.22060652 68.15615725-99.86322601 115.61590822-179.73007682 115.61590822z" p-id="3923"></path></svg>