<?xml version="1.0" standalone="no"?><!DOCTYPE svg PUBLIC "-//W3C//DTD SVG 1.1//EN" "http://www.w3.org/Graphics/SVG/1.1/DTD/svg11.dtd"><svg t="1509008259138" class="icon" style="" viewBox="0 0 1024 1024" version="1.1" xmlns="http://www.w3.org/2000/svg" p-id="4045" xmlns:xlink="http://www.w3.org/1999/xlink" width="200" height="200"><defs><style type="text/css"></style></defs><path d="M416.37333333 121.44H192.80853333c-38.58453333 0-69.86346667 31.28-69.86346666 69.86453333v221.8176c0 38.58453333 31.27893333 69.8624 69.86346666 69.8624H416.37333333c38.58453333 0 69.8624-31.27786667 69.8624-69.8624V191.30453333c0-38.58453333-31.27786667-69.86346667-69.8624-69.86346666z m414.816 0H607.62453333c-38.5856 0-69.86346667 31.28-69.86346666 69.86453333v221.8176c0 38.58453333 31.27786667 69.8624 69.86346666 69.8624H831.18933333c38.5856 0 69.86453333-31.27786667 69.86453334-69.8624V191.30453333c0-38.58453333-31.28-69.86346667-69.86453334-69.86346666zM416.37333333 536.256H192.80853333c-38.58453333 0-69.86346667 31.28-69.86346666 69.8656v221.81653333c0 38.5856 31.27893333 69.86453333 69.86346666 69.86453334H416.37333333c38.58453333 0 69.8624-31.27893333 69.8624-69.86453334V606.1216c0-38.5856-31.27786667-69.86453333-69.8624-69.86453333z m414.816 0H607.62453333c-38.5856 0-69.86346667 31.28-69.86346666 69.8656v221.81653333c0 38.5856 31.27786667 69.86453333 69.86346666 69.86453334H831.18933333c38.5856 0 69.86453333-31.27893333 69.86453334-69.86453334V606.1216c0-38.5856-31.28-69.86453333-69.86453334-69.86453333z" fill="" p-id="4046"></path></svg>