<?xml version="1.0" standalone="no"?><!DOCTYPE svg PUBLIC "-//W3C//DTD SVG 1.1//EN" "http://www.w3.org/Graphics/SVG/1.1/DTD/svg11.dtd"><svg t="1509007998121" class="icon" style="" viewBox="0 0 1024 1024" version="1.1" xmlns="http://www.w3.org/2000/svg" p-id="3301" xmlns:xlink="http://www.w3.org/1999/xlink" width="200" height="200"><defs><style type="text/css"></style></defs><path d="M418.1345 490.562H206.9315c-37.053 0-67.932-48.168-67.932-85.221V211.4315c0-37.053 30.879-67.932 67.932-67.932h211.203c37.053 0 67.932 30.879 67.932 67.932v209.9655c-0.0045 38.2905-30.879 69.165-67.932 69.165z m16.056-263.0745c0-17.2935-13.5855-30.879-30.879-30.879H220.517c-16.056 0-29.6415 13.5855-29.6415 30.879v182.7945c0 17.2935 13.5855 30.879 30.879 30.879h182.7945c17.2935 0 30.879-13.5855 30.879-30.879V227.4875h-1.2375z m382.878 263.0745h-211.203c-37.053 0-67.932-48.168-67.932-85.221V211.4315c0-37.053 30.879-67.932 67.932-67.932h211.203c37.053 0 67.932 30.879 67.932 67.932v209.9655c-0.0045 38.2905-29.646 69.165-67.932 69.165z m16.056-263.0745c0-17.2935-13.5855-30.879-30.879-30.879h-181.557c-17.2935 0-30.879 13.5855-30.879 30.879v182.7945c0 17.2935 13.5855 30.879 30.879 30.879h182.7945c17.2935 0 30.879-13.5855 30.879-30.879V227.4875h-1.2375z m-16.056 662.0085h-211.203c-37.053 0-67.932-48.168-67.932-85.221v-192.6765c0-37.053 30.879-67.932 67.932-67.932h211.203c37.053 0 67.932 30.879 67.932 67.932v209.9655c-0.0045 37.0575-29.646 67.932-67.932 67.932z m16.056-263.0745c0-17.2935-13.5855-30.879-30.879-30.879h-181.557c-17.2935 0-30.879 13.5855-30.879 30.879v182.7945c0 17.2935 13.5855 30.879 30.879 30.879h182.7945c17.2935 0 30.879-13.5855 30.879-30.879v-182.7945h-1.2375z m-414.99 263.0745H206.9315c-37.053 0-67.932-48.168-67.932-85.221v-192.6765c0-37.053 30.879-67.932 67.932-67.932h211.203c37.053 0 67.932 30.879 67.932 67.932v209.9655c-0.0045 37.0575-30.879 67.932-67.932 67.932z m16.056-263.0745c0-17.2935-13.5855-30.879-30.879-30.879H220.517c-17.2935 0-30.879 13.5855-30.879 30.879v182.7945c0 17.2935 13.5855 30.879 30.879 30.879h182.7945c17.2935 0 30.879-13.5855 30.879-30.879v-182.7945z" fill="" p-id="3302"></path></svg>