<?xml version="1.0" standalone="no"?><!DOCTYPE svg PUBLIC "-//W3C//DTD SVG 1.1//EN" "http://www.w3.org/Graphics/SVG/1.1/DTD/svg11.dtd"><svg class="icon" width="200px" height="200.00px" viewBox="0 0 1024 1024" version="1.1" xmlns="http://www.w3.org/2000/svg"><path fill="#000000" d="M510.9301751 904.83835537C402.46731318 904.80777646 304.29167627 860.75654346 233.20207461 789.58869453 162.14305273 718.4226456 118.16826787 620.11030098 118.16826787 511.56109795c0-108.6103626 43.97478487-206.95238613 115.06438653-278.11933506 71.0913999-71.16694893 169.32819551-115.18940127 277.82073721-115.18940127 103.73206992 0 198.09968818 40.3025748 268.32947255 106.09027119 70.6929706 66.24818349 116.93871563 158.31876006 123.63287696 261.18021972 0.03147891 0.0926376 0.03147891 0.21495411 0.0314789 0.30759171l0 0 0 51.46130918c0 0.18437519 0 0.3993293-0.0314789 0.61608252-6.81647871 102.70676513-53.00286416 194.65592344-123.60139805 260.81147021-70.19920459 65.78679638-164.53624482 106.08847207-268.26921387 106.11905098l0 0L510.9301751 904.83835537 510.9301751 904.83835537zM719.87111299 788.1739543c-0.79955771-1.16920723-1.659375-2.42745381-2.57855186-3.74955821-1.47679893-2.15314013-3.01025918-4.30448115-4.42410029-6.30382588l0-0.02878066 0 0-0.12321651-0.15379541c-5.12652393-7.31743857-10.287225-14.66545693-14.83094443-21.8291001l0 0c-0.85981729-1.10535029-11.57785049-14.2940083-43.29844365-24.74672167-16.95260654-5.59600576-39.64512041-10.23685928-69.61550098-11.61922237l1e-8 0c-17.16666065 0-32.02998398-6.45582305-42.62480069-17.43198135-10.533658-10.88082247-16.76733135-26.12908477-16.82759092-43.77512021l0 0-0.55402471-15.77080723c-0.15379541-0.58460362-0.18437519-1.2294668-0.1537954-1.84464931 0-0.27611279 0.03057891-0.52164668 0.09263759-0.76807882l0-17.55429785c0-1.29152461 0.5225458-2.45893271 1.38236309-3.28907021l18.45548701-18.47617295c0.46138711-0.46138711 1.01451182-0.79955771 1.5667374-1.0441916 6.51068614-3.01475567 13.88028955-7.07100557 21.28047187-11.5904417 7.58635664-4.64265263 15.16911504-9.77637129 21.8956544-14.87951192 0.15379541-0.0917376 0.27701191-0.18437519 0.3993293-0.24553388l2.27275927-1.5667374c0.05935957-0.06115869 0.0917376-0.09353672 0.15199717-0.12411563l0 0c5.25153955-3.35112802 11.57785049-8.57658516 16.67559376-13.58618819 4.38992402-4.30538115 7.73835381-8.17905498 8.44527392-10.11544188l0.61518252-6.60871935c0-0.12411563 0.02878066-0.27791192 0.06025957-0.4308082l0 0c3.92943604-20.28934424 9.18187471-50.07804697 12.92873467-75.96159785 2.82498487-19.27573067 4.79015244-36.36774229 4.79015244-45.68182734 0-42.30012041-10.13432871-73.62678076-30.70967871-94.1922378-20.54297197-20.59693506-51.83635518-30.74205674-94.08970722-30.74205673-42.86943457 0-74.16191865 9.83752998-94.58347237 30.28066962-20.39007568 20.41255987-30.24739248 51.73742197-30.24739249 94.65362491 0 9.55961894 1.99664648 26.68310859 4.79105157 45.89678232 3.74595996 25.88445 8.99660039 55.5193582 12.92873467 75.68548506 0.06115869 0.24553388 0.06115869 0.49286602 0.09263759 0.706921l0.5828045 5.99533506c0.55312471 2.02902451 3.68480127 5.93327724 8.01446659 10.29801797 4.85221026 4.88818565 10.96356709 9.95984737 16.67649375 13.55560927l1.81047218 1.17010635c0.12321651 0.06115869 0.24553388 0.15289629 0.36875039 0.24463389 7.86246943 5.47189013 16.55237724 11.34400869 25.08938964 16.57036494l0 0 0 0c6.93969521 4.27210313 13.63475567 8.05314023 19.43941993 10.81966464 0.4910669 0.21585322 0.92007598 0.52344492 1.28882637 0.89219532l0.0314789 0 18.48696592 18.50675273c0.88949707 0.89129531 1.35088418 2.0892832 1.35088417 3.25849044l0 0 0 17.49134091c0.03057891 0.24553388 0.06025957 0.5225458 0.06025958 0.76807881 0.03147891 0.21675323 0.03147891 0.43170732 0 0.64576231 0.06205781 0.55402471 0 1.07657051-0.15289629 1.5982163l-0.55222559 15.31121924 0.03147891 0c0 17.55249961-6.17251465 32.76838301-16.42916075 43.65100459-10.41044151 11.10027393-24.96617315 17.64603633-41.48797148 17.64603633l-0.06025957 0c-0.06205781 0-0.0926376 0-0.15379541 0-86.47546992 3.59756104-112.85368506 34.73804795-114.41952334 36.6456542-2.39597578 3.7486582-4.76047266 7.31474033-7.12496953 10.75670684-2.57945097 3.75225557-5.12742393 7.38039638-7.70777403 11.00583808-0.02967979 0.06205781-0.0926376 0.15469541-0.15289628 0.24553389-1.1674081 1.62969521-2.73324727 3.90515273-4.57519834 6.57993867-0.67634121 0.98303379-1.4444209 2.05780518-2.24217949 3.2270124 29.07998349 22.04225508 61.69367198 39.6568125 96.85443252 51.7698 35.09960273 12.08240771 72.74807666 18.65964903 111.96328886 18.65964902 39.244892 0 76.89336592-6.57724042 111.99386778-18.65964902C658.1774419 827.8307668 690.79112949 810.21620938 719.87111299 788.1739543L719.87111299 788.1739543zM511.05339161 164.48821279c-95.74908222 0-182.40982646 38.85725479-245.14679005 101.66347178C203.16873799 328.9561042 164.3537542 415.70948516 164.3537542 511.56109795c0 48.20371787 9.85641768 94.06992041 27.63736172 135.72517851 17.78094492 41.68493789 43.51429687 79.15803047 75.20521113 110.60700821 1.44352089-2.0892832 2.97878028-4.33326182 4.54551855-6.57724043 4.69841484-6.76431386 9.3653499-13.5259295 13.54211807-20.10586817l0 0c0.0926376-0.15199717 32.15230049-52.81399248 151.60751016-57.66980009 0.06115869 0 0.12321651 0 0.1843752 0l0-0.03147891c4.45288096 0 7.70777402-1.29062461 9.7961581-3.62724082 2.33301797-2.55246943 3.50132607-6.51877998 3.50132607-11.46542607 0-0.21675323 0-0.3993293 0.02967979-0.55402471-0.02967979-12.8504874-0.02967979-16.07929805-0.02967979-16.75563925l0 0 0-0.05935958c-0.03147891-1.29152461-0.12321651-2.39777403-0.246433-3.53730146l-0.03057891-0.30579258c-6.11135683-2.95269786-12.65172187-6.42704239-19.65437402-10.48329229-7.83009141-4.55091416-16.24388643-9.89868867-25.33402354-16.26187412l0 0c-0.15379541-0.06205781-46.12432763-28.37486162-46.55423584-61.42205567-1.29062461-6.67167627-18.48696592-96.00720732-18.48696592-130.03743427 0-48.32603526 11.4240542-95.0844331 43.91362618-127.60908135 26.65522792-26.68400859 67.28248213-43.56106523 127.07304433-43.56106523 131.49264815 0 171.01545117 82.8482291 171.01545117 171.16924746 0 33.17041055-17.19634131 123.27312041-18.51844482 130.00595625-0.39663105 31.11170625-43.29844365 59.36155313-46.30780371 61.33121719-8.87338388 6.69955781-17.31955693 12.32704248-25.27376397 17.09201162-7.09259151 4.24242334-13.75797217 7.77612744-20.02132529 10.75850596-0.0917376 0.92097598-0.18527432 1.8437502-0.18527432 2.9194207l-0.02878066 0c0 0.03147891 0 3.16675283 0 16.84647773 0.02878066 0.15379541 0.02878066 0.30849082 0.02878066 0.46318623l0 0.09083848 0 0c0 4.82792695 1.10535029 8.67102099 3.31785088 11.22079219 2.08838408 2.42925292 5.34327714 3.78193623 9.82583789 3.81341425l0-0.0314789 0.09353672 0c0.21315586 0 0.39663105 0.03147891 0.5828045 0.06025957 118.31927959 5.41253057 149.79613799 55.33588213 151.17670194 57.61223877l0 0c4.23702773 6.63839912 8.96781973 13.46387168 13.66533458 20.28754512 1.53525938 2.21519795 3.04083809 4.39711875 4.42140205 6.42614326 31.72239229-31.44987685 57.45754336-68.95354922 75.23579003-110.60700821 17.78004492-41.6552581 27.63826084-87.52235977 27.63826084-135.72517851 0-95.85161279-38.81678203-182.60499375-101.55284735-245.4094125C693.42994092 203.34546758 606.77189492 164.48821279 511.05339161 164.48821279L511.05339161 164.48821279zM450.3733332 641.10566621c0-0.27611279 0-0.15379541 0-0.05935957" /></svg>