<?xml version="1.0" standalone="no"?><!DOCTYPE svg PUBLIC "-//W3C//DTD SVG 1.1//EN" "http://www.w3.org/Graphics/SVG/1.1/DTD/svg11.dtd"><svg t="1512630537696" class="icon" style="" viewBox="0 0 1024 1024" version="1.1" xmlns="http://www.w3.org/2000/svg" p-id="2461" xmlns:xlink="http://www.w3.org/1999/xlink" width="200" height="200"><defs><style type="text/css"></style></defs><path d="M896.89501953 388.12365722A21.81060791 21.81060791 0 0 0 888.55639648 378.11236572L711.02282715 174.99438477c-4.29290771-4.5401001-9.76409912-7.41577148-16.00982666-7.41577149H325.61694336c-6.24572754 0-11.71691895 2.89215088-16.00982666 7.41577149L130.92822266 379.02697753a21.69525146 21.69525146 0 0 0-7.19329834 9.06372072 23.02185059 23.02185059 0 0 0 2.22473144 23.67279052 22.99713135 22.99713135 0 0 0 1.87866211 2.47192383l370.36834716 477.81463623a21.58813477 21.58813477 0 0 0 3.5018921 3.51013184 20.87127685 20.87127685 0 0 0 10.48095703 4.53186035l0.58502197 0.07415771 0.70037842 0.06591797c0.50262451 0 1.01348877 0.06591797 1.52435303 0.06591797s0.99700928 0 1.49139404-0.05767823l0.65093994-0.05767821 0.69213867-0.08239747a20.90423584 20.90423584 0 0 0 9.16259766-3.5925293l0.59326172-0.4119873 0.24719238-0.18951416a21.64581299 21.64581299 0 0 0 3.95507812-3.85620117l359.74731446-476.0925293a21.01959229 21.01959229 0 0 0 5.35583496-7.98431396l0.04119873-0.10711671a24.21661377 24.21661377 0 0 0-0.04119873-19.74243163zM415.05114746 432.8984375H621.2590332l-105.46875 336.50299072z m17.69073486-69.21386719l81.32629395-116.73248291L601.63195801 363.68457031z m369.79980469 0H670.203125L566.60479737 225.54522705h115.24932861zM338.71813964 225.54522705h123.59619142L366.07409667 363.68457031h-148.31542967z m20.59936525 207.32025147l92.67242431 309.88861083L211.74365234 432.8984375z m223.9892578 300.00915527L677.32226563 432.8984375h132.6599121z" p-id="2462"></path></svg>