<?xml version="1.0" standalone="no"?><!DOCTYPE svg PUBLIC "-//W3C//DTD SVG 1.1//EN" "http://www.w3.org/Graphics/SVG/1.1/DTD/svg11.dtd"><svg t="1512631420855" class="icon" style="" viewBox="0 0 1024 1024" version="1.1" xmlns="http://www.w3.org/2000/svg" p-id="2584" xmlns:xlink="http://www.w3.org/1999/xlink" width="200" height="200"><defs><style type="text/css"></style></defs><path d="M890.81978552 383.68090644c-0.5809499-1.33812405-1.22513818-2.65769797-1.96629181-3.88199323l-105.11904199-176.02190717-82.27649818 179.93678439 189.36183116 0L890.81978552 383.68090644 890.81978552 383.68090644zM370.68162673 383.68090644l280.83403181-1e-8L511.06575864 185.37969895 370.68162673 383.68090644 370.68162673 383.68090644zM482.22737323 176.58366205L283.99024708 176.58366205c-7.73194537 0-16.07688089 2.7850177-23.18150145 7.31372882L345.69319348 369.40758402 482.22737323 176.58366205 482.22737323 176.58366205 482.22737323 176.58366205zM762.3531354 181.59214145c-6.08859063-3.17203693-12.82221249-5.04136341-19.17050262-5.04136341L539.90330029 176.55077804 676.47205073 369.3747 762.3531354 181.59214145 762.3531354 181.59214145 762.3531354 181.59214145zM362.68998187 412.27645663l147.95840314 457.03300699c0.38448963 0.0505904 0.7074267 0.08263147 1.06156192 0.11467256l147.76447165-457.1468358L362.68998187 412.27729956 362.68998187 412.27645663 362.68998187 412.27645663zM240.55728802 208.53000305L138.28903257 379.79891321c-0.78837149 1.32126059-1.54554565 2.62481396-2.30356358 3.88199322l184.68809391 0L240.55728802 208.53000305 240.55728802 208.53000305 240.55728802 208.53000305zM132.56975394 412.27645663l0.82125549 1.41822592 1.51519125 0c1.72345661 2.10963208 4.04303989 4.99414553 6.87949173 8.50598301l324.7990362 403.91867422L332.5632207 412.27645663 132.56975394 412.27645663 132.56975394 412.27645663 132.56975394 412.27645663zM891.43024606 412.27645663L689.60033682 412.27645663 552.21201758 837.21893942l333.74094214-415.01827386C888.30542783 419.26893423 890.10898547 415.88525943 891.43024606 412.27645663L891.43024606 412.27645663 891.43024606 412.27645663zM891.43024606 412.27645663" p-id="2585"></path></svg>