<?xml version="1.0" standalone="no"?><!DOCTYPE svg PUBLIC "-//W3C//DTD SVG 1.1//EN" "http://www.w3.org/Graphics/SVG/1.1/DTD/svg11.dtd"><svg t="1512036437689" class="icon" style="" viewBox="0 0 1024 1024" version="1.1" xmlns="http://www.w3.org/2000/svg" p-id="2431" xmlns:xlink="http://www.w3.org/1999/xlink" width="200" height="200"><defs><style type="text/css"></style></defs><path d="M736.84733202 437.06331194l99.92797916 99.92797844a70.64675694 70.64675694 0 0 1 1e-8 99.92797845l-224.95414737 224.95414738a70.64675694 70.64675694 0 0 1-99.92797844 1e-8L161.9128698 512.35788195a70.64675694 70.64675694 0 0 1-1e-8-99.92797917l99.92797846-100.39275976L312.03722848 262.30554482 386.86701645 187.01097482a70.64675694 70.64675694 0 0 1 99.92797917 0l99.92797844 99.92797844L711.74914225 161.91278435a70.64675694 70.64675694 0 0 1 99.92797845 0l50.19638025 50.19638023a70.64675694 70.64675694 0 0 1 0 99.92797844l-125.02616894 125.02616893z m-500.10467352 0a35.32337847 35.32337847 0 0 0 0 50.19637953l25.09818975 25.09819047L312.03722848 462.16150171l49.73159821 50.19638023-49.73159822 49.7315982 50.19637952 50.19638024 74.82978868-75.29457 49.73159895 50.19637952-74.82978869 74.82978869 49.7315982 50.19638024 49.73159894-50.19638024 50.66116081 50.19638024-50.66116081 49.7315982 25.09818975 25.09819049a35.32337847 35.32337847 0 0 0 50.19638024 0l74.82978869-74.82978869-349.98031557-349.98031556-74.82978869 74.82978867z m562.85014899-185.91251844l-25.09819048-25.09818976a17.66168887 17.66168887 0 0 0-25.09818975 0l-162.6734532 160.81432797-42.75987935-42.75987935-32.53469064-32.06990934L461.69680513 262.30554482a35.32337847 35.32337847 0 0 0-50.1963795 0L361.76882669 312.03714302l349.98031557 349.98031557 50.19638025-50.19637951a35.32337847 35.32337847 0 0 0 0-50.19638023l-49.73159894-49.2668169-32.06990935-32.06991006-43.22466065-43.22465994 162.67345392-162.67345391a17.66168887 17.66168887 0 0 0 0-25.09818976z" p-id="2432"></path></svg>