<?xml version="1.0" standalone="no"?><!DOCTYPE svg PUBLIC "-//W3C//DTD SVG 1.1//EN" "http://www.w3.org/Graphics/SVG/1.1/DTD/svg11.dtd"><svg t="1509950974071" class="icon" style="" viewBox="0 0 1024 1024" version="1.1" xmlns="http://www.w3.org/2000/svg" p-id="2161" xmlns:xlink="http://www.w3.org/1999/xlink" width="200" height="200"><defs><style type="text/css"></style></defs><path d="M503.67141873 457.56178806a107.08664475 107.08664475 0 0 1-47.06355762-10.16300007L194.68893277 314.73412237c-20.12137591-6.75259717-30.28437597-20.39420793-30.28437598-37.44622155s10.09479227-30.69362439 26.87397309-40.85662446L456.60786111 100.35620786c13.43698655-6.82080578 33.55836246-10.23120786 50.26933548-10.23120786s33.55836246 3.4104029 47.06355763 10.16300006l261.91892833 129.39067914c16.84738943 10.16300006 26.87397308 23.80461082 26.87397309 40.85662445s-10.09479227 30.69362439-26.87397309 40.85662445L550.59855994 447.53520358c-10.09479227 6.61618158-30.21616819 10.02658365-46.92714121 10.02658448z m-53.81615479 476.29684204c-10.09479227 0-16.71097302-3.4104029-26.87397391-6.88901358L191.27852988 804.60436738C164.40455679 791.03096442 140.9409866 760.47375644 140.9409866 736.53272922V399.78956555c0-23.80461082 16.84738943-40.92483225 40.37916743-40.92483225 6.75259717 0 16.71097302 3.4104029 23.463571 6.75259719l235.11316223 122.50166554c26.87397308 13.64161074 50.3375441 44.19881872 50.33754411 68.00343036v333.46917636c-0.06820779 27.35143011-20.18958371 44.26702734-40.37916743 44.26702735z m124.20686619 0a39.151423 39.151423 0 0 1-40.31095962-40.85662446V559.66924487c0-27.2150137 20.12137591-54.4982352 50.33754409-68.13984594l235.24957864-125.91206844a61.18262457 61.18262457 0 0 1 23.46357019-6.75259719c23.46357101 0 40.31095962 17.05201364 40.31096045 40.85662446v333.46917718c0 27.2150137-20.12137591 54.4982352-50.33754409 68.13984595l-235.11316306 125.77565204a47.74563803 47.74563803 0 0 1-23.5999866 6.75259717z" p-id="2162"></path></svg>