<?xml version="1.0" standalone="no"?><!DOCTYPE svg PUBLIC "-//W3C//DTD SVG 1.1//EN" "http://www.w3.org/Graphics/SVG/1.1/DTD/svg11.dtd"><svg t="1509965285971" class="icon" style="" viewBox="0 0 1024 1024" version="1.1" xmlns="http://www.w3.org/2000/svg" p-id="1820" xmlns:xlink="http://www.w3.org/1999/xlink" width="200" height="200"><defs><style type="text/css"></style></defs><path d="M489.45346906 467.14220676l58.81703713 0 0 313.69086309-58.81703714 0 0-313.69086309Z" p-id="1821"></path><path d="M362.01655566 594.57912014l313.6908631 0 0 58.81703714-313.6908631 0 1e-8-58.81703714Z" p-id="1822"></path><path d="M793.38070435 933.875l-548.95901084 0c-37.83896081 0-68.61987625-30.78091626-68.61987625-68.61987625l0-705.80444238c0-37.83896081 30.78091626-68.61987625 68.61987625-68.61987625l411.71925833 0 0 201.89928213 205.85962875 0 0 572.52503732C862.00058059 903.09408374 831.21966516 933.875 793.38070435 933.875zM244.3824822 149.60863013c-5.41116733 0-9.80283911 4.39167178-9.80283911 9.80283911l0 705.80444238c0 5.37195603 4.39167178 9.80283911 9.80283911 9.80283911l548.95901084 0c5.37195603 0 9.80283911-4.43088308 9.80283912-9.80283911L803.14433298 351.54712356l-172.52997529 0c-18.39012698 0-33.3296543-14.93952731-33.32965429-33.3296543l0-168.60883913L244.3824822 149.60863013z" p-id="1823"></path><path d="M656.70658735 90.1824607l205.86043706 201.90990068-41.21114528 42.01747532-205.86043709-201.90990069 41.21114531-42.01747531Z" p-id="1824"></path></svg>