<?xml version="1.0" standalone="no"?><!DOCTYPE svg PUBLIC "-//W3C//DTD SVG 1.1//EN" "http://www.w3.org/Graphics/SVG/1.1/DTD/svg11.dtd"><svg t="1509965820373" class="icon" style="" viewBox="0 0 1024 1024" version="1.1" xmlns="http://www.w3.org/2000/svg" p-id="2096" xmlns:xlink="http://www.w3.org/1999/xlink" width="200" height="200"><defs><style type="text/css"></style></defs><path d="M680.93355555 286.352h142.695c12.582 0 20.979-8.514 25.173-17.046 4.194-8.514 0-21.294-4.194-29.817L701.91255555 107.432c-8.388-8.514-20.979-8.514-29.376-4.266-12.573 4.266-16.785 12.78-16.785 25.56v132.057c-4.194 17.046 8.406 25.569 25.182 25.569z m180.477 59.643H647.36355555c-33.579 0-58.752-25.56-58.752-55.386V90.377c0-12.771-12.591-25.551-29.385-25.551H236.07255555c-50.364 0-88.128 38.34-88.128 80.937v728.478c0 46.863 41.967 85.212 88.128 85.212h566.568c50.355 0 88.137-38.349 88.137-85.212V371.555c0.009-17.046-12.591-25.56-29.367-25.56zM722.89155555 678.284c-8.379 8.523-16.776 12.78-29.367 12.78H571.81755555v115.02c0 8.523-4.203 21.303-12.591 25.56-8.388 8.523-16.785 12.789-29.367 12.789-12.591 0-20.988-4.266-29.385-12.789-8.388-8.505-12.591-17.037-12.591-25.56v-115.02h-113.31c-12.6 0-20.988-4.257-29.385-12.78-8.388-8.523-12.582-17.037-12.582-25.569 0-21.294 16.785-38.331 41.967-38.331h121.707V499.355c0-21.303 16.785-38.34 41.958-38.34 20.988 0 41.976 17.037 41.976 38.34v115.029h121.698c20.979 0 41.985 17.037 41.985 38.331-8.397 8.532-12.591 17.037-21.006 25.569z m0 0" fill="" p-id="2097"></path></svg>