<?xml version="1.0" standalone="no"?><!DOCTYPE svg PUBLIC "-//W3C//DTD SVG 1.1//EN" "http://www.w3.org/Graphics/SVG/1.1/DTD/svg11.dtd"><svg t="1508989899648" class="icon" style="" viewBox="0 0 1024 1024" version="1.1" xmlns="http://www.w3.org/2000/svg" p-id="22742" xmlns:xlink="http://www.w3.org/1999/xlink" width="200" height="200"><defs><style type="text/css"></style></defs><path d="M884.97669 883.34861 129.198547 883.34861c-16.829294 0-32.485879-8.397251-41.880853-22.463618l-0.170892-0.260943c-51.296293-80.279395-78.410837-173.170015-78.410837-268.627087 0-274.79046 223.559659-498.349095 498.351142-498.349095s498.350119 223.558635 498.350119 498.349095c0 94.889137-27.104311 187.763384-78.384231 268.586155l-0.196475 0.301875C917.461545 874.951359 901.805984 883.34861 884.97669 883.34861zM112.923886 843.948251c3.694135 5.451152 9.768481 8.701173 16.275685 8.701173l755.778142 0c6.501064 0 12.568247-3.243881 16.265452-8.6848 48.085158-75.857688 73.496921-162.977885 73.496921-251.967662 0-257.862929-209.788004-467.649909-467.650933-467.649909-257.863952 0-467.651956 209.78698-467.651956 467.649909C39.436174 681.524998 64.84896 768.647241 112.923886 843.948251zM504.688477 813.514101c-10.94733 0.001023-22.061458-1.475608-33.108049-4.575202-31.571043-8.853645-57.803497-29.473265-73.866335-58.0583-16.062837-28.585035-20.032242-61.714574-11.177574-93.28357 13.842263-49.356105 57.205886-84.48723 107.765399-88.759533l53.605895-191.129039c3.090385-11.018961 10.310833-20.189831 20.335141-25.822109 10.021238-5.632277 21.609157-7.031137 32.630165-3.940752 22.806425 6.395664 36.158525 30.15581 29.763884 52.964282l-0.001023 0.001023-53.605895 191.129039c40.96397 29.940916 59.735499 82.498946 45.89426 131.856074C607.743598 778.020726 558.331211 813.508985 504.688477 813.514101zM504.706897 599.097684c-41.207517 0-77.54205 27.319206-88.611154 66.789149-6.640234 23.675212-3.663436 48.518017 8.381901 69.954235 12.045337 21.436218 31.718399 36.899398 55.393611 43.539632 48.875151 13.709233 99.786681-14.902408 113.49489-63.776536 11.172457-39.838334-6.080485-82.491783-41.955554-103.726409l-10.144034-6.003737 59.811224-213.253942-0.001023 0.001023c1.825578-6.510274-1.984191-13.291724-8.494465-15.117302-3.124154-0.87595-6.427386-0.468674-9.301853 1.14508-2.874467 1.614777-4.938476 4.224208-5.814426 7.348362l-59.811224 213.254965-11.787464-0.147356C505.48154 599.09973 505.092683 599.097684 504.706897 599.097684zM852.088652 676.347069c-22.610974 0-43.813878-8.752338-59.706847-24.64326-15.891945-15.891945-24.644283-37.095873-24.644283-59.706847 0-22.60995 8.752338-43.812855 24.644283-59.7048 15.891945-15.891945 37.095873-24.644283 59.706847-24.644283s43.813878 8.752338 59.706847 24.644283c15.890922 15.890922 24.64326 37.09485 24.64326 59.7048 0 22.610974-8.752338 43.813878-24.64326 59.706847C895.90253 667.594731 874.698602 676.347069 852.088652 676.347069zM852.088652 538.347065c-29.583782 0-53.651944 24.068162-53.651944 53.649897 0 29.582759 24.068162 53.650921 53.651944 53.650921 29.582759 0 53.650921-24.068162 53.650921-53.650921C905.738549 562.415226 881.671411 538.347065 852.088652 538.347065zM162.087609 676.347069c-22.610974 0-43.814901-8.752338-59.706847-24.64326-15.891945-15.891945-24.644283-37.095873-24.644283-59.706847 0-22.60995 8.752338-43.812855 24.644283-59.7048 15.891945-15.891945 37.095873-24.644283 59.706847-24.644283 22.610974 0 43.813878 8.752338 59.706847 24.644283 15.890922 15.890922 24.64326 37.09485 24.64326 59.7048 0 22.610974-8.752338 43.813878-24.64326 59.706847C205.90251 667.594731 184.698582 676.347069 162.087609 676.347069zM162.087609 538.347065c-29.583782 0-53.650921 24.068162-53.650921 53.649897 0 29.582759 24.068162 53.650921 53.650921 53.650921 29.582759 0 53.650921-24.068162 53.650921-53.650921C215.738529 562.415226 191.670367 538.347065 162.087609 538.347065zM748.58737 434.846806c-22.60995 0-43.812855-8.752338-59.7048-24.644283-15.890922-15.890922-24.64326-37.095873-24.64326-59.705823 0-22.610974 8.752338-43.814901 24.64326-59.706847s37.09485-24.644283 59.7048-24.644283c22.610974 0 43.813878 8.752338 59.706847 24.644283 15.890922 15.891945 24.64326 37.095873 24.64326 59.706847s-8.752338 43.814901-24.64326 59.706847C792.401248 426.094468 771.198344 434.846806 748.58737 434.846806zM748.58737 296.845779c-29.581736 0-53.648874 24.068162-53.648874 53.650921 0 29.582759 24.067138 53.650921 53.648874 53.650921 29.582759 0 53.650921-24.068162 53.650921-53.650921C802.23829 320.91394 778.170129 296.845779 748.58737 296.845779zM265.587867 434.846806c-22.610974 0-43.814901-8.752338-59.706847-24.64326-15.891945-15.891945-24.644283-37.095873-24.644283-59.706847s8.752338-43.814901 24.644283-59.706847 37.095873-24.644283 59.706847-24.644283c22.60995 0 43.812855 8.752338 59.7048 24.644283 15.891945 15.891945 24.64326 37.095873 24.64326 59.706847 0 22.60995-8.751315 43.813878-24.64326 59.705823C309.401746 426.094468 288.197818 434.846806 265.587867 434.846806zM265.587867 296.845779c-29.583782 0-53.650921 24.068162-53.650921 53.650921 0 29.582759 24.068162 53.650921 53.650921 53.650921 29.581736 0 53.648874-24.068162 53.648874-53.650921C319.236741 320.91394 295.170626 296.845779 265.587867 296.845779zM507.08813 331.346547c-22.610974 0-43.814901-8.752338-59.706847-24.644283-15.891945-15.891945-24.644283-37.095873-24.644283-59.706847 0-22.60995 8.752338-43.812855 24.644283-59.7048 15.891945-15.890922 37.095873-24.64326 59.706847-24.64326 22.60995 0 43.813878 8.752338 59.705823 24.64326 15.891945 15.891945 24.644283 37.09485 24.644283 59.7048 0 22.610974-8.752338 43.814901-24.644283 59.706847C550.902008 322.594209 529.699104 331.346547 507.08813 331.346547zM507.08813 193.347566c-29.583782 0-53.650921 24.067138-53.650921 53.648874 0 29.583782 24.068162 53.650921 53.650921 53.650921 29.582759 0 53.650921-24.068162 53.650921-53.650921C560.739051 217.414705 536.670889 193.347566 507.08813 193.347566z" p-id="22743"></path></svg>