<?xml version="1.0" standalone="no"?><!DOCTYPE svg PUBLIC "-//W3C//DTD SVG 1.1//EN" "http://www.w3.org/Graphics/SVG/1.1/DTD/svg11.dtd"><svg t="1515654486962" class="icon" style="" viewBox="0 0 1024 1024" version="1.1" xmlns="http://www.w3.org/2000/svg" p-id="2829" xmlns:xlink="http://www.w3.org/1999/xlink" width="200" height="200"><defs><style type="text/css"></style></defs><path d="M890.87011719 547.015625c0 8.20019531-3.00585938 15.31933594-8.99121094 21.3046875s-13.10449219 8.99121094-21.3046875 8.99121094h-106.07519531c0 54-10.57324219 99.7734375-31.71972656 137.34667968l98.5078125 98.98242188c6.01171875 5.98535156 8.99121094 13.10449219 8.99121093 21.3046875s-3.00585938 15.31933594-8.99121093 21.3046875c-5.6953125 5.98535156-12.78808594 8.99121094-21.3046875 8.99121094s-15.63574219-3.00585938-21.3046875-8.99121094l-93.76171875-93.28710938c-1.58203125 1.58203125-3.95507813 3.63867188-7.09277344 6.14355469s-9.78222656 7.04003906-19.90722656 13.5c-10.09863281 6.45996094-20.35546875 12.234375-30.77050782 17.296875s-23.36132813 9.62402344-38.83886718 13.73730469a179.42871094 179.42871094 0 0 1-45.93164063 6.14355469V395.45703125h-60.61816406v424.32714844c-16.08398438 0-32.11523438-2.13574219-48.06738281-6.40722656s-29.68945313-9.46582031-41.21191407-15.63574219c-11.52246094-6.16992188-21.9375-12.31347656-31.24511718-18.48339844s-16.18945313-11.28515625-20.59277344-15.3984375l-7.09277344-6.64453125-86.66894531 98.03320313a30.32226563 30.32226563 0 0 1-22.72851563 9.94042968c-7.56738281 0-14.37011719-2.53125-20.35546875-7.56738281-6.01171875-5.6953125-9.22851563-12.70898438-9.72949218-21.06738281s1.97753906-15.71484375 7.35644531-22.01660156l95.66015625-107.49902344c-18.29882813-35.99121094-27.47460938-79.25976563-27.47460938-129.77929688H163.53125c-8.2265625 0-15.31933594-3.00585938-21.3046875-8.99121093s-8.99121094-13.10449219-8.99121094-21.3046875c0-8.20019531 3.00585938-15.31933594 8.99121094-21.3046875s13.10449219-8.99121094 21.3046875-8.99121094h106.07519531v-139.21875L187.68359375 295.52539062c-5.98535156-6.01171875-8.99121094-13.10449219-8.99121094-21.30468749s3.00585938-15.31933594 8.99121094-21.3046875c5.98535156-6.01171875 13.10449219-8.99121094 21.3046875-8.99121094s15.31933594 3.00585938 21.3046875 8.99121094l81.92285156 81.92285156h399.70019531l81.92285157-81.92285157c5.98535156-6.01171875 13.10449219-8.99121094 21.3046875-8.99121093s15.31933594 3.00585938 21.3046875 8.99121094c6.01171875 5.98535156 8.99121094 13.10449219 8.99121093 21.3046875s-3.00585938 15.31933594-8.99121093 21.3046875l-81.92285157 81.92285156v139.21875h106.07519532c8.20019531 0 15.31933594 3.00585938 21.3046875 8.99121093s8.99121094 13.10449219 8.99121093 21.3046875zM663.53222656 274.22070312H360.44140625c0-41.9765625 14.765625-77.75683594 44.27050781-107.26171874s65.28515625-44.27050781 107.26171875-44.27050782c41.9765625 0 77.75683594 14.765625 107.26171875 44.27050782s44.27050781 65.28515625 44.27050782 107.26171875z" p-id="2830"></path></svg>