<?xml version="1.0" standalone="no"?><!DOCTYPE svg PUBLIC "-//W3C//DTD SVG 1.1//EN" "http://www.w3.org/Graphics/SVG/1.1/DTD/svg11.dtd"><svg t="1510383316594" class="icon" style="" viewBox="0 0 1024 1024" version="1.1" xmlns="http://www.w3.org/2000/svg" p-id="2228" xmlns:xlink="http://www.w3.org/1999/xlink" width="200" height="200"><defs><style type="text/css"></style></defs><path d="M240.82995605 799.07275391V306.91271972h542.42248536v492.16003419c0 45.15380859-40.7043457 82.06787109-90.39001466 82.06787109H331.2199707c-49.76806641 0-90.39001465-36.9140625-90.39001465-82.06787109z m77.28881837-58.50219727c0 32.21740723 29.08630372 58.58459473 64.59960937 58.58459473h258.48083496c35.51330567 0 64.59960938-26.3671875 64.59960938-58.58459473V388.89819336H318.11877441v351.67236328zM828.40625 195.59375H670.203125l-45.23620606-52.734375H399.03308105L353.796875 195.59375H195.59375v70.28503418h632.8125V195.59375z" p-id="2229"></path><path d="M385.4375 406.53125H459.265625v369.140625h-73.828125zM564.734375 406.53125h73.828125v369.140625H564.734375z" p-id="2230"></path></svg>