<?xml version="1.0" standalone="no"?><!DOCTYPE svg PUBLIC "-//W3C//DTD SVG 1.1//EN" "http://www.w3.org/Graphics/SVG/1.1/DTD/svg11.dtd"><svg t="1510653754022" class="icon" style="" viewBox="0 0 1024 1024" version="1.1" xmlns="http://www.w3.org/2000/svg" p-id="2168" xmlns:xlink="http://www.w3.org/1999/xlink" width="200" height="200"><defs><style type="text/css"></style></defs><path d="M401.61772461 126.33242187c-30.23657227 0-54.96767578 24.73505859-54.96767578 54.96767579 0 30.22866211 24.73505859 54.95976563 54.96767578 54.95976562 30.22866211 0 54.95976563-24.73505859 54.95976562-54.95976562 0-30.23261719-24.27231445-54.96767578-54.95976562-54.96767579z m220.77246094 109.93139649c30.22866211 0 54.95976563-24.73505859 54.95976562-54.95976563 0-30.23657227-24.73505859-54.96767578-54.95976562-54.96767578-30.23657227 0-54.9637207 24.73505859-54.96372071 54.96767578 0 30.22470703 24.27231445 54.95976563 54.96372071 54.95976563z m-220.77246094 110.38623047c-30.23657227 0-54.96767578 24.73505859-54.96767578 54.95976562 0 30.23657227 24.73505859 54.96767578 54.96767578 54.96767578 30.22866211 0 54.95976563-24.73505859 54.95976562-54.96767578 0-30.22470703-24.27231445-54.95976563-54.95976562-54.95976562z m220.77246094 0c-30.23657227 0-54.9637207 24.73505859-54.96372071 54.95976562 0 30.23657227 24.73110352 54.96767578 54.96372071 54.96767578 30.22866211 0 54.95976563-24.73505859 54.95976562-54.96767578 0.00395508-30.22470703-24.73110352-54.95976563-54.95976562-54.95976562z m-220.77246094 220.31762695c-30.23657227 0-54.96767578 24.72714844-54.96767578 54.95976563s24.73505859 54.95976563 54.96767578 54.95976562c30.22866211 0 54.95976563-24.72714844 54.95976562-54.95976562s-24.27231445-54.95976563-54.95976562-54.95976563z m220.77246094 0c-30.23657227 0-54.9637207 24.72714844-54.96372071 54.95976563s24.73110352 54.95976563 54.96372071 54.95976562c30.22866211 0 54.95976563-24.72714844 54.95976562-54.95976562s-24.73110352-54.95976563-54.95976562-54.95976563z m-220.77246094 220.76850586c-30.23657227 0-54.96767578 24.73505859-54.96767578 54.96767578s24.73505859 54.95976563 54.96767578 54.95976563c30.22866211 0 54.95976563-24.72714844 54.95976562-54.95976563s-24.27231445-54.96767578-54.95976562-54.96767578z m220.77246094 0c-30.23657227 0-54.9637207 24.73505859-54.96372071 54.96767578s24.73110352 54.95976563 54.96372071 54.95976563c30.22866211 0 54.95976563-24.72714844 54.95976562-54.95976563s-24.73110352-54.96767578-54.95976562-54.96767578z" fill="" p-id="2169"></path></svg>