<?xml version="1.0" standalone="no"?><!DOCTYPE svg PUBLIC "-//W3C//DTD SVG 1.1//EN" "http://www.w3.org/Graphics/SVG/1.1/DTD/svg11.dtd"><svg t="1509725133657" class="icon" style="" viewBox="0 0 1024 1024" version="1.1" xmlns="http://www.w3.org/2000/svg" p-id="1579" xmlns:xlink="http://www.w3.org/1999/xlink" width="200" height="200"><defs><style type="text/css"></style></defs><path d="M877.9547526 255.23632812L766.50065104 144.25683594C752.49967447 129.86035156 729.48111979 130.09765625 715.3219401 144.17773437L231.77408853 628.04199219C231.29947916 628.4375 230.27115885 631.91796875 230.11295572 632.8671875L181.70279947 811.08300781C178.85514322 821.36621094 181.78190103 832.51953125 189.4547526 840.35058594 195.22916666 845.96679687 202.7438151 849.05175781 210.81217447 849.13085938 213.50162761 849.13085938 216.19108071 848.73535156 218.88053385 848.18164063L395.51432291 799.77148438C395.75162759 799.77148438 399.86490885 798.90136719 401.4469401 797.55664063L884.99479166 313.61328125C899.07486979 299.45410156 892.11393229 269.55371094 877.9547526 255.23632812L877.9547526 255.23632812 877.9547526 255.23632812ZM228.0563151 800.48339844L264.91764322 660.7109375 370.36002603 766.46972656 228.0563151 800.48339844 228.0563151 800.48339844ZM302.7281901 622.97949219L626.17447916 300.16601562 731.69596354 405.84570311 408.17057291 728.73828125 302.7281901 622.97949219 302.7281901 622.97949219ZM660.97916666 265.51953125L737.39127604 189.265625 842.91276041 294.9453125 766.42154947 371.27832031 660.97916666 265.51953125 660.97916666 265.51953125Z" p-id="1580"></path></svg>