<?xml version="1.0" standalone="no"?><!DOCTYPE svg PUBLIC "-//W3C//DTD SVG 1.1//EN" "http://www.w3.org/Graphics/SVG/1.1/DTD/svg11.dtd"><svg t="1520442272662" class="icon" style="" viewBox="0 0 1024 1024" version="1.1" xmlns="http://www.w3.org/2000/svg" p-id="3182" xmlns:xlink="http://www.w3.org/1999/xlink" width="200" height="200"><defs><style type="text/css"></style></defs><path d="M873.60714297 542.13392892q-71.56808048-111.11886173-179.39104376-166.20745001 28.72140079 48.96763358 28.72140079 105.93959299 0 87.10588751-61.91580624 149.02169376t-149.02169376 61.91580624-149.02169376-61.91580624-61.91580624-149.02169376q0-56.97195859 28.72140079-105.93959299-107.82296329 55.08858829-179.39104376 166.20745002 62.62207031 96.52273984 157.02601876 153.73012033t204.58112421 57.20737967 204.58112421-57.20737967 157.02601877-153.73012034z m-339.00669607-180.80357108q0-9.41685233-6.59179688-16.00864919t-16.0086492-6.59179687q-58.85532889 0-100.99574533 42.14041561t-42.14041561 100.99574534q0 9.41685233 6.59179687 16.0086492t16.0086492 6.59179687 16.0086492-6.59179687 6.59179688-16.0086492q0-40.4924664 28.72140078-69.21386719t69.21386719-28.7214008q9.41685233 0 16.0086492-6.59179687t6.59179688-16.00864919z m399.27455393 180.80357109q0 16.0086492-9.41685233 32.48814138-65.91796875 108.29380545-177.27225156 173.50551096t-235.18589529 65.21170468-235.18589529-65.44712576-177.27225156-173.27008905q-9.41685233-16.47949219-9.41685233-32.4881414t9.41685233-32.48814138q65.91796875-107.82296329 177.27225156-173.27008905t235.18589529-65.44712577 235.18589529 65.44712577 177.27225156 173.27008905q9.41685233 16.47949219 9.41685233 32.48814138z" p-id="3183"></path></svg>