<?xml version="1.0" standalone="no"?><!DOCTYPE svg PUBLIC "-//W3C//DTD SVG 1.1//EN" "http://www.w3.org/Graphics/SVG/1.1/DTD/svg11.dtd"><svg t="1515208469367" class="icon" style="" viewBox="0 0 1024 1024" version="1.1" xmlns="http://www.w3.org/2000/svg" p-id="2617" xmlns:xlink="http://www.w3.org/1999/xlink" width="200" height="200"><defs><style type="text/css"></style></defs><path d="M90.125 575.28125001l0.16479492-0.16479493 0 0.16479493 84.21020508 0L512 744.03125001l337.5-168.75000002L933.875 575.28125001l-421.875 210.93749998L90.125 575.28125001zM90.125 469.8125l0.16479492-0.16479492 0 0.16479492 84.21020508 0L512 638.5625l337.5-168.75L933.875 469.8125l-421.875 210.9375L90.125 469.8125zM90.125 343.25l421.875-210.9375 421.875 210.9375-421.875 210.9375L90.125 343.25zM849.5 343.25L512 174.5 174.5 343.25 512 512 849.5 343.25zM90.28979492 680.75l84.21020508 0L512 849.5l337.5-168.75L933.875 680.75l-421.875 210.9375L90.125 680.75 90.28979492 680.75 90.28979492 680.75 90.28979492 680.75z" p-id="2618"></path></svg>