<?xml version="1.0" standalone="no"?><!DOCTYPE svg PUBLIC "-//W3C//DTD SVG 1.1//EN" "http://www.w3.org/Graphics/SVG/1.1/DTD/svg11.dtd"><svg t="1515208504415" class="icon" style="" viewBox="0 0 1024 1024" version="1.1" xmlns="http://www.w3.org/2000/svg" p-id="2740" xmlns:xlink="http://www.w3.org/1999/xlink" width="200" height="200"><defs><style type="text/css"></style></defs><path d="M123.02182724 346.1623376L508.24054883 540.09155411a8.35713369 8.35713369 0 0 0 7.51800322-1e-8l385.21872159-193.9292165c6.09966474-3.07051787 6.14373487-11.7631248 0.07554814-14.89570049L515.8350002 132.39617099a8.35983193 8.35983193 0 0 0-7.6700004 0L122.94537911 331.26663711c-6.06818585 3.13257568-6.0232166 11.82518262 0.07644813 14.89570049z" p-id="2741"></path><path d="M871.85681738 419.66140537L510.65900878 601.49742031 149.46030195 419.66140537c-11.09128009-5.58431367-24.60911484-1.11974063-30.19342851 9.97243858-5.58341455 11.0921792-1.11884151 24.61001484 9.9733377 30.19432852l381.41879765 192.01531376L892.07780732 459.82817247c11.0921792-5.58341455 15.55675223-19.10214844 9.9733377-30.19432852-5.58521279-11.09128009-19.10484668-15.55675223-30.19432764-9.97243858z" p-id="2742"></path><path d="M871.85681738 540.06906903L510.65900878 721.90598398 149.46120107 540.06906903c-11.09128009-5.58341455-24.61001484-1.11884151-30.19432763 9.97333858-5.58341455 11.09128009-1.11884151 24.60911484 9.97333769 30.19342852l381.41879765 192.01621289L892.07780732 580.23583613c11.0921792-5.58431367 15.55675223-19.10214844 9.9733377-30.19342851-5.58521279-11.0930792-19.10484668-15.55945049-30.19432764-9.97333859z" p-id="2743"></path><path d="M871.85681738 660.47763184L510.65900878 842.31364766 149.46030195 660.47763184c-11.09128009-5.58341455-24.60911484-1.11884151-30.19342851 9.97333857-5.58341455 11.09128009-1.11884151 24.60911484 9.9733377 30.19342852l381.41879765 192.01531376L892.07780732 700.64439893c11.0921792-5.58431367 15.55675223-19.10214844 9.9733377-30.19342852-5.58521279-11.0930792-19.10484668-15.55855136-30.19432764-9.97333857z" p-id="2744"></path></svg>