<?xml version="1.0" standalone="no"?><!DOCTYPE svg PUBLIC "-//W3C//DTD SVG 1.1//EN" "http://www.w3.org/Graphics/SVG/1.1/DTD/svg11.dtd"><svg t="1516418255070" class="icon" style="" viewBox="0 0 1024 1024" version="1.1" xmlns="http://www.w3.org/2000/svg" p-id="3263" xmlns:xlink="http://www.w3.org/1999/xlink" width="200" height="200"><defs><style type="text/css"></style></defs><path d="M605.8432 102.4c-89.03424 136.17152-139.66592 288.06784-158.87488 448.6976l187.68768 0c-15.712 61.10592-25.31712 121.34272-27.05792 180.70784 99.50976-9.60384 186.8032-35.77728 240.07296-69.83936l31.424 40.15744c-73.33632 42.76992-168.49152 70.70976-271.49824 81.18528 1.5744 31.05152 5.0944 61.14944 10.4832 91.06432 0.7296 3.95776 1.46048 7.9168 2.26432 11.86816 0.05888 0.29952 0.11904 0.59904 0.17792 0.89856 3.17824 15.49952 6.97344 30.94144 11.31904 46.32192L1024 933.46176 1024 102.4 605.8432 102.4zM744.6528 351.18208l-53.25824 0 0-123.08352 53.25824 0L744.6528 351.18208z" p-id="3264"></path><path d="M552.78464 788.77568c-0.13056-1.41824-0.1984-2.11968-0.1984-1.95968-134.42944 5.22496-279.3472-20.07808-401.54752-81.21088l25.30304-40.13184c14.16576 6.66496 28.58624 12.79232 43.19488 18.43456 0.69504 0.2688 1.38496 0.55168 2.08128 0.81792 5.55392 2.12352 11.14368 4.15104 16.7488 6.13248 9.85984 3.48416 19.78752 6.77504 29.78432 9.82656 11.66848 3.56224 23.4176 6.83136 35.22176 9.82144 0.09216 0.02304 0.18432 0.04864 0.27648 0.07168 2.01984 0.51072 4.04608 0.98944 6.06976 1.4848 1.95072 0.47616 3.8976 0.96896 5.8496 1.43104 1.14176 0.27008 2.28736 0.5184 3.4304 0.78336 2.83648 0.65664 5.67296 1.31712 8.51456 1.94304 1.68576 0.3712 3.37408 0.71424 5.06112 1.07392 2.304 0.49152 4.60672 0.99584 6.91328 1.46688 2.06592 0.4224 4.13568 0.81408 6.20416 1.21984 1.92768 0.37888 3.85536 0.77312 5.78432 1.13664 2.79808 0.52864 5.59744 1.02272 8.39808 1.52192 1.2032 0.21376 2.40512 0.44544 3.60832 0.65408 5.67808 0.98688 11.35872 1.89184 17.03936 2.75968 3.47648 0.5312 6.95296 1.0432 10.42816 1.53088 6.3552 0.89088 12.70656 1.71648 19.0528 2.46144 0.5056 0.05888 1.0112 0.128 1.5168 0.1856 47.97184 5.55264 95.55968 7.02464 141.056 5.056 1.23648-43.08224 5.728-86.45888 13.11104-129.20704L383.24864 606.08c0.64768-7.43552 1.3824-14.82624 2.15808-22.19776 0.1728-1.63584 0.35456-3.26656 0.53248-4.89984 0.672-6.15168 1.38624-12.2816 2.14528-18.38848 0.16512-1.33248 0.32384-2.67008 0.4928-4 0.94336-7.38816 1.9392-14.74816 3.00928-22.06848 0.08448-0.57984 0.1792-1.15456 0.26368-1.73312 0.94208-6.37696 1.93792-12.72448 2.97344-19.04896 0.37248-2.27968 0.75648-4.55424 1.14176-6.82752 0.79232-4.66944 1.61408-9.32224 2.45888-13.96352 0.47232-2.60224 0.93312-5.21088 1.4208-7.80416 1.09824-5.82144 2.23488-11.62112 3.41376-17.39776 0.9152-4.49536 1.87904-8.96256 2.8416-13.43104 0.38528-1.7792 0.76416-3.56224 1.15584-5.3376C435.31264 321.5936 482.76096 205.60512 545.05856 102.4L0 102.4l0 831.06304 572.87168 0C561.0752 887.12704 554.59968 838.41408 552.78464 788.77568zM247.936 228.09728l53.23136 0 0 123.08352L247.936 351.1808 247.936 228.09728z" p-id="3265"></path></svg>