<?xml version="1.0" standalone="no"?><!DOCTYPE svg PUBLIC "-//W3C//DTD SVG 1.1//EN" "http://www.w3.org/Graphics/SVG/1.1/DTD/svg11.dtd"><svg t="1516428887890" class="icon" style="" viewBox="0 0 1024 1024" version="1.1" xmlns="http://www.w3.org/2000/svg" p-id="607" xmlns:xlink="http://www.w3.org/1999/xlink" width="200" height="200"><defs><style type="text/css"></style></defs><path d="M2789.6841906 3505.93847462v-0.46621605 0.46621605z" p-id="608"></path><path d="M2794.6772185 3637.68224403c0-0.81713189-0.11530021-1.74455154-0.11530021-2.55667097 0 0.81211942 0.11530021 1.73953908 0.11530021 2.55667097z" p-id="609"></path><path d="M2791.88994574 3571.57975751c0-0.70183169 0-1.27833549-0.11530021-1.97515332 0 0.69681785 0 1.27332303 0.11530021 1.97515332z" p-id="610"></path><path d="M684.41073111 369.18348898c-12.78837007 0-23.1604344-8.8932059-23.16043302-19.85180032v-39.69357573c0-10.9585958 10.37206432-19.85180031 23.16043302-19.85180033s23.1604344 8.8932059 23.1604344 19.85180033v39.69357573c0 10.9585958-10.37707817 19.85180031-23.1604344 19.85180032z" p-id="611"></path><path d="M831.66497456 173.91395664H190.5119625c-25.19073161 0-45.79449502 17.79643808-45.79449504 39.53817038v553.51934248c0 21.74674613 20.60376342 39.53817039 45.79449504 39.53817039H831.65996071c25.19073161 0 45.79950886-17.79643808 45.79950889-39.53817039V213.44711457c0-21.74674613-20.60376342-39.53817039-45.79449504-39.53817039zM282.10596639 312.29504537c0-10.91347683 10.25676412-19.76657897 22.89975375-19.76657759s22.89474129 8.85310076 22.89474128 19.76657759v39.53817038c0 10.90846436-10.25676412 19.76657897-22.89474128 19.76657897s-22.89975375-8.85811459-22.89975375-19.76657897v-39.53817038z m549.55900817 454.67642413h-268.39033287c-4.78749251-25.9978386-7.81038091-52.80278278-9.57498503-78.83571267 0 0.07519645 0 0.13535278 0.02506503 0.21556306a455.93971952 455.93971952 0 0 1-42.63625386 2.01525847c-95.64958587 0-187.73988467-30.04840811-259.39185167-84.62582127-10.67285012-8.12620405-11.68047868-22.18288332-2.26591283-31.39692622s25.69204035-10.07629237 36.35987662-1.95510214c62.21233616 47.40369378 142.22110902 73.50179383 225.29788788 73.50179385 13.6456071 0 27.22103021-0.71185797 40.66611298-2.11551995-1.5791199-73.02555152 4.92284529-130.90658494 5.03814687-131.83901841 0.64167396-5.55449435-1.4638197-11.08893474-5.81517362-15.21971317s-10.51243094-6.50697901-16.96927992-6.50697901H465.91058175c0.98256352-21.385804 3.63949735-57.96124231 10.69290132-98.95821993 13.48518793-78.3043251 37.20708738-139.46391374 68.80955036-177.79894509h286.27199232v553.51934248h-0.02005119z" p-id="612"></path><path d="M2685.35696053 3712.84336805a1513.49929454 1513.49929454 0 0 1-39.72866706 1.62925132c13.23954738-0.46621605 26.48410721-0.92741964 39.72866706-1.62925132z" p-id="613"></path><path d="M2581.96216391 3715.63565465z" p-id="614"></path><path d="M2680.24361857 3451.33599642c2.79228659-0.11530021 5.69485958-0.35091583 8.48213236-0.46621605-2.78727277 0.23561425-5.68984714 0.35091583-8.48213236 0.46621605z" p-id="615"></path><path d="M2629.47614684 3453.54175156l11.7306087-0.35091585c-3.94529421 0.12031404-7.78030205 0.35091583-11.7306087 0.35091585z" p-id="616"></path><path d="M802.1279001 571.30590373c-10.65780999-9.43963223-29.0909096-10.32694674-41.17243417-2.00523219-58.85357066 40.59091653-131.78387454 65.91198983-209.0454784 73.1609043 0.34088956 14.7284321 1.0377074 30.06344685 2.23082016 45.67919482 90.7167143-7.74019692 176.45543943-37.11183836 245.42039515-84.67093887 12.08152593-8.32171454 13.21949481-22.72429582 2.56669726-32.16392806z" p-id="617"></path><path d="M2797.93070869 3703.78473051c-16.72865182 1.85484067-33.45730226 3.3687904-50.30125569 4.76242748a2377.90485715 2377.90485715 0 0 0 50.30125569-4.76242748z" p-id="618"></path><path d="M2739.84413852 3709.24397584z" p-id="619"></path></svg>