<?xml version="1.0" standalone="no"?><!DOCTYPE svg PUBLIC "-//W3C//DTD SVG 1.1//EN" "http://www.w3.org/Graphics/SVG/1.1/DTD/svg11.dtd"><svg t="1516423251539" class="icon" style="" viewBox="0 0 1024 1024" version="1.1" xmlns="http://www.w3.org/2000/svg" p-id="3001" xmlns:xlink="http://www.w3.org/1999/xlink" width="200" height="200"><defs><style type="text/css"></style></defs><path d="M170.666667 170.666667h336.64c24.32-46.506667 52.906667-90.453333 87.04-128l47.36 47.36c-18.346667 25.173333-34.56 52.48-49.066667 80.64H853.333333a85.333333 85.333333 0 0 1 85.333334 85.333333v554.666667a85.333333 85.333333 0 0 1-85.333334 85.333333h-216.32l14.08 52.48-78.08 30.72-21.333333-83.2H170.666667a85.333333 85.333333 0 0 1-85.333334-85.333333V256a85.333333 85.333333 0 0 1 85.333334-85.333333m0 85.333333v554.666667h364.373333c-1.706667-14.08-4.266667-28.16-5.973333-42.666667H512c-117.333333 0-222.72-21.333333-293.12-52.906667l38.826667-69.973333C298.666667 667.306667 391.253333 682.666667 512 682.666667h10.24c-1.28-28.586667-0.853333-57.173333 1.28-85.333334H384s17.066667-171.946667 85.333333-341.333333H170.666667m682.666666 554.666667V256h-298.666666c-38.4 94.72-60.586667 190.293333-72.533334 256h122.453334c-7.253333 54.613333-8.533333 111.786667-4.693334 167.68 77.226667-5.546667 136.106667-18.346667 166.4-34.56l38.826667 69.973333c-50.346667 23.04-118.186667 40.106667-195.413333 48.213334 2.56 16.213333 5.12 32 8.96 47.36H853.333333M256 341.333333h85.333333v128H256V341.333333m426.666667 0h85.333333v128h-85.333333V341.333333z" fill="" p-id="3002"></path></svg>