<?xml version="1.0" standalone="no"?><!DOCTYPE svg PUBLIC "-//W3C//DTD SVG 1.1//EN" "http://www.w3.org/Graphics/SVG/1.1/DTD/svg11.dtd"><svg t="1520488691166" class="icon" style="" viewBox="0 0 1025 1024" version="1.1" xmlns="http://www.w3.org/2000/svg" p-id="3211" xmlns:xlink="http://www.w3.org/1999/xlink" width="200.1953125" height="200"><defs><style type="text/css"></style></defs><path d="M116.4921875 522.1930652c0 172.72084952 110.69644223 319.56676374 264.96537068 373.48922361 20.775385 5.25042415 17.607026-9.58051552 17.60702599-19.61365342l0-68.51199995c-119.960122 14.06148076-124.757923-65.35872817-132.85987117-78.56022586-16.29441978-27.80612578-54.691918-34.91230348-43.25564969-48.1288884 27.33841539-14.06148076 55.1596284 3.56063246 87.37128246 51.22181047 23.32516054 34.53511725 68.82883646 28.74154578 91.92768465 22.94797432 5.02411256-20.775385 15.84179738-39.31783179 30.67273628-53.77158524-124.21477567-22.25395312-176.05517041-98.09844234-176.05517041-188.33633531 0-43.72336009 14.4386662-83.96152388 42.71250238-116.41457676-17.99929867-53.53018642 1.70487892-99.26017392 4.33009137-106.06460312 51.37268435-4.63183989 104.67655995 36.76805626 108.84068945 40.01185297 29.19416894-7.87563661 62.49211768-12.05485333 99.72788433-12.05485333 37.46207823 0 70.91090083 4.33009137 100.27103163 12.28116491 9.95770097-7.57388809 59.47463253-43.10477506 107.22633471-38.77468445 2.54977475 6.80442919 21.78624272 51.52355899 4.8732387 104.28428649 28.66610885 32.52848983 43.25564971 73.08349012 43.2556497 116.9577241 0 90.37368037-52.14214326 166.30869379-176.74919237 188.24581037 20.775385 20.54907344 33.67513418 48.97378424 33.67513418 80.49141636l0 99.50157274c0.6940212 7.95107355 0 15.84179738 13.29202185 15.84179738 156.50186668-52.76072751 269.20493712-200.69293717 269.20493712-374.96779095 0-218.5413612-177.12637782-395.50177792-395.50177791-395.50177791C293.46769145 126.69128728 116.4921875 303.66679046 116.4921875 522.1930652L116.4921875 522.1930652z" p-id="3212"></path></svg>