<?xml version="1.0" standalone="no"?><!DOCTYPE svg PUBLIC "-//W3C//DTD SVG 1.1//EN" "http://www.w3.org/Graphics/SVG/1.1/DTD/svg11.dtd"><svg t="1509010309322" class="icon" style="" viewBox="0 0 1024 1024" version="1.1" xmlns="http://www.w3.org/2000/svg" p-id="1287" xmlns:xlink="http://www.w3.org/1999/xlink" width="200" height="200"><defs><style type="text/css"></style></defs><path d="M931.994375 511.9915625c0-231.53624999-188.4103125-419.8828125-420.0028125-419.88281249-231.5915625 0-419.98874999 188.3465625-419.98875 419.88281249 0 120.3 50.9465625 228.871875 132.31125 305.4928125l-0.294375 0.3684375 10.610625 9.33c1.438125 1.261875 2.9925 2.33625001 4.45125 3.5671875 7.4596875 6.405 15.091875 12.601875 23.00718751 18.4725 2.1984375 1.625625 4.445625 3.16875001 6.68062499 4.7625 8.469375 6.0225 17.086875 11.8396875 25.98187501 17.2415625 1.404375 0.85124999 2.8603125 1.625625 4.27687499 2.4590625 9.42 5.5575 19.0434375 10.805625 28.914375 15.6309375 0.5475 0.28125001 1.0875 0.575625 1.640625 0.8503125 10.6125 5.1384375 21.5184375 9.7603125 32.595 14.0034375 0.8175 0.313125 1.6153125 0.639375 2.4121875 0.9515625 10.8515625 4.0875 21.9525 7.6734375 33.2053125 10.8534375 1.05374999 0.294375 2.090625 0.6075 3.14625 0.9a415.9828125 415.9828125 0 0 0 33.63375 7.73625c1.2984375 0.245625 2.578125 0.46875001 3.879375 0.695625 11.236875 1.99124999 22.60875001 3.6 34.134375 4.6753125 1.2825 0.12 2.563125 0.1875 3.8296875 0.294375 11.735625 0.9871875 23.578125 1.6125 35.5715625 1.6125 12 0 23.8415625-0.6225 35.57812501-1.6125 1.2646875-0.1040625 2.525625-0.174375 3.79312499-0.294375 11.544375-1.0753125 22.9359375-2.6840625 34.2075-4.6753125 1.246875-0.225 2.49375001-0.436875 3.755625-0.676875 11.4440625-2.146875 22.71-4.725 33.8071875-7.771875 0.97124999-0.2596875 1.940625-0.55125001 2.91-0.8259375 11.3559375-3.20625001 22.54125001-6.841875 33.495-10.96124999 0.661875-0.24375001 1.32-0.519375 1.978125-0.77812501 11.25-4.2965625 22.295625-8.9878125 33.0440625-14.21437499 0.33374999-0.1546875 0.643125-0.328125 0.9721875-0.49968751 10.213125-4.9865625 20.1496875-10.4025 29.8790625-16.168125 1.1915625-0.7059375 2.4225-1.36875001 3.6159375-2.0775 9.1265625-5.5209375 17.938125-11.4590625 26.5903125-17.64375 2.0278125-1.434375 4.0734375-2.8378125 6.0590625-4.3078125 8.1046875-6.0075 15.943125-12.361875 23.5790625-18.94125 1.333125-1.1390625 2.7721875-2.1225 4.0875-3.2859375l10.5778125-9.331875-0.28125-0.32625c81.395625-76.595625 132.3553125-185.184375 132.3553125-305.505z m-797.6953125-0.9946875c0-208.1990625 169.438125-377.5875 377.690625-377.5875s377.6925 169.3734375 377.6925 377.5875c0 107.93625001-45.61124999 205.3753125-118.4971875 274.25437499-26.728125-25.8215625-67.7915625-41.3446875-116.3109375-54.74718749-21.9440625-9.6796875-26.83875001-12.0525-32.375625-16.464375l-5.8809375-5.863125c-8.859375-8.604375-13.7409375-13.340625-15.463125-26.1590625v-44.7534375c15.5634375-18.1021875 25.42125001-42.2025 35.08125-73.97625 13.089375-4.9978125 26.109375-21.508125 30.2371875-39.894375 4.396875-19.843125 2.308125-36.4875-5.24906249-45.7453125 21.346875-80.6596875 18.0675-149.56875001-9.12656251-185.6025-14.308125-18.97125001-35.1159375-29.0203125-60.1846875-29.03437501-2.31-1.8909375-3.8259375-3.9590625-5.735625-6.55312499-9.789375-13.3846875-20.221875-22.8778125-65.5490625-22.8778125l-4.861875 0.028125c-54.45 0-95.7346875 16.396875-122.6953125 48.7715625-34.5796875 41.44874999-44.375625 107.5696875-29.2153125 196.62-6.51374999 9.305625-8.50874999 24.9046875-5.00906249 43.404375 3.286875 17.281875 14.203125 32.9409375 26.45343749 39.37875 11.915625 34.663125 24.3346875 58.745625 38.5903125 74.895 0.8175 26.255625 1.089375 42.6 0.0515625 48.21375-1.516875 8.143125-5.8996875 15.6271875-13.8225 23.5359375-7.4221875 7.415625-17.334375 12.8503125-37.903125 21.039375-50.709375 13.974375-92.409375 29.6784375-119.38968749 55.7325-72.915-68.836875-118.528125-166.2665625-118.52812501-274.2028125z" p-id="1288"></path></svg>