<?xml version="1.0" standalone="no"?><!DOCTYPE svg PUBLIC "-//W3C//DTD SVG 1.1//EN" "http://www.w3.org/Graphics/SVG/1.1/DTD/svg11.dtd"><svg t="1509010321454" class="icon" style="" viewBox="0 0 1024 1024" version="1.1" xmlns="http://www.w3.org/2000/svg" p-id="1292" xmlns:xlink="http://www.w3.org/1999/xlink" width="200" height="200"><defs><style type="text/css"></style></defs><path d="M510.85885344 931.02757906C395.16513406 930.99496156 290.44445469 884.00697969 214.61554625 808.0946075 138.81925625 732.18415531 91.91281906 627.31765438 91.91281906 511.53183781c0-115.85105344 46.90643719-220.74921187 122.73534563-296.66062406 75.83082656-75.91141219 180.61674188-122.86869469 296.34211969-122.86869469 110.64754125 0 211.30633406 42.98941312 286.21810406 113.16295594 75.40583531 70.66472906 124.73463001 168.87334406 131.87506875 278.59223437 0.0335775 0.09881344 0.0335775 0.22928438 0.0335775 0.32809782l0 0 0 54.89206312c0 0.19666687 0 0.42595125-0.0335775 0.65715469-7.27091062 109.55388281-56.53638844 207.632985-131.84149125 278.19890156-74.87915156 70.17258281-175.50532781 113.16103687-286.15382813 113.19365438l0 0L510.85885344 931.02757906 510.85885344 931.02757906zM733.72918719 806.58555125c-0.85286156-1.24715438-1.77-2.58928406-2.75045532-3.99952875-1.57525219-2.29668281-3.21094313-4.59144656-4.71904031-6.72408094l0-0.03069937 0 0-0.13143094-0.16404844c-5.46829219-7.80526781-10.97304-15.64315406-15.81967406-23.28437344l0 0c-0.91713844-1.17904031-12.34970719-15.24694219-46.18500656-26.39650312-18.08278031-5.96907281-42.28812844-10.91931657-74.25653438-12.39383719l1e-8 0c-18.31110469 0-34.16531625-6.88621125-45.46645407-18.59411344-11.23590187-11.60621063-17.88515344-27.87102375-17.94943031-46.69346156l0 0-0.59095969-16.82219438c-0.16404844-0.62357719-0.19666687-1.31143125-0.16404843-1.96762593 0-0.29452031 0.0326175-0.55642313 0.09881343-0.81928407l0-18.72458437c0-1.37762625 0.55738219-2.62286156 1.47452063-3.50834156l19.68585281-19.70791782c0.49214625-0.49214625 1.08214594-0.85286156 1.67118656-1.11380437 6.94473188-3.21573938 14.80564219-7.54240594 22.69916999-12.36313781 8.09211375-4.95216281 16.18038938-10.42812938 23.3553647-15.87147938 0.16404844-0.09785344 0.29547937-0.19666687 0.42595125-0.26190281l2.42427656-1.67118656c0.06331687-0.06523594 0.09785344-0.0997725 0.16213031-0.13239l0 0c5.60164219-3.57453655 12.34970719-9.1483575 17.78730001-14.49193407 4.68258562-4.59240656 8.25424406-8.72432531 9.00829218-10.78980468l0.65619469-7.04930064c0-0.13239001 0.03069937-0.29643938 0.06427688-0.45952874l0 0c4.19139844-21.64196719 9.79399969-53.41658343 13.79065031-81.02570438 3.01331719-20.56077938 5.10949594-38.79225844 5.10949594-48.72728249 0-45.12012844-10.80995062-78.53523281-32.75699063-100.47172032-21.91250343-21.97006406-55.29211219-32.79152719-100.36235437-32.79152718-45.72739687 0-79.10604656 10.49336531-100.88903719 32.29938093-21.74941406 21.77339719-32.26388531 55.18658343-32.26388532 100.96386657 0 10.19692687 2.12975625 28.4619825 5.110455 48.95656781 3.99569062 27.61008 9.59637375 59.22064875 13.79065032 80.73118406 0.06523594 0.26190281 0.06523594 0.52572375 0.09881343 0.75404907l0.62165813 6.39502406c0.58999969 2.16429281 3.93045469 6.32882906 8.54876436 10.9845525 5.17569094 5.21406469 11.69447156 10.62383719 17.78826 14.45931656l1.93117033 1.24811344c0.13143094 0.06523594 0.26190281 0.16308938 0.39333375 0.26094281 8.38663406 5.83668281 17.65586906 12.10027594 26.76201562 17.67505594l0 0 0 0c7.40234156 4.55691001 14.54373938 8.59001625 20.73538125 11.54097562 0.52380469 0.23024343 0.98141438 0.55834125 1.37474813 0.951675l0.0335775 0 19.71943031 19.74053625c0.94879687 0.950715 1.44094313 2.22856875 1.44094311 3.47572313l0 0 0 18.65743031c0.0326175 0.26190281 0.06427687 0.55738219 0.06427689 0.81928406 0.0335775 0.23120345 0.0335775 0.46048781 0 0.68881313 0.066195 0.59095969 0 1.14834188-0.16308938 1.70476406l-0.58904063 16.33196719 0.03357751 0c0 18.72266625-6.58401563 34.95294188-17.52443813 46.56107156-11.10447094 11.84029219-26.63058469 18.82243875-44.25383625 18.82243875l-0.06427687 0c-0.066195 0-0.09881344 0-0.16404844 0-92.24050125 3.83739844-120.37726406 37.05391781-122.04749156 39.08869781-2.5557075 3.99856875-5.0778375 7.80238969-7.5999675 11.47382063-2.75141437 4.00240594-5.46925219 7.87242281-8.22162564 11.73956062-0.03165844 0.066195-0.09881344 0.16500844-0.16308936 0.26190282-1.24523531 1.73834156-2.91546375 4.16549625-4.88021156 7.01860125-0.72143062 1.04856938-1.54071563 2.19499219-2.39165813 3.44214656 31.01864906 23.51173875 65.80658345 42.3006 103.31139469 55.22112 37.43957625 12.88790156 77.59794844 19.90362563 119.42750812 19.90362562 41.86121813 0 82.01959031-7.01572311 119.46012563-19.90362562C667.92260469 848.88615125 702.71053812 830.09729001 733.72918719 806.58555125L733.72918719 806.58555125zM510.99028438 141.32076031c-102.13235437 0-194.57048156 41.44773844-261.48990938 108.44103656C182.57998719 316.75317781 141.17733781 409.2901175 141.17733781 511.53183781c0 51.41729906 10.51351219 100.34124844 29.4798525 144.77352375 18.96634125 44.46393375 46.41524999 84.4352325 80.21889188 117.98080875 1.53975562-2.22856875 3.17736563-4.62214594 4.84855312-7.01572312 5.0116425-7.21526812 9.98970656-14.42765813 14.44492594-21.44625938l0 0c0.09881344-0.16213031 34.29578719-56.33492531 161.7146775-61.51445343 0.06523594 0 0.13143094 0 0.19666688 0l0-0.03357751c4.74973969 0 8.22162562-1.37666625 10.44923531-3.86905687 2.4885525-2.72263406 3.73474781-6.95336531 3.73474781-12.22978781 0-0.23120345 0-0.42595125 0.03165844-0.59095969-0.03165844-13.70718656-0.03165844-17.15125125-0.03165844-17.87268187l0 0 0-0.06331688c-0.0335775-1.37762625-0.13143094-2.55762563-0.26286187-3.77312156l-0.0326175-0.32617875c-6.51878062-3.14954438-13.49516999-6.85551188-20.96466563-11.18217844-8.3520975-4.85430844-17.32681219-10.55860125-27.02295844-17.34599906l0 0c-0.16404844-0.066195-49.19928281-30.26651906-49.65785156-65.51685939-1.37666625-7.11645469-19.71943031-102.40768781-19.71943032-138.70659655 0-51.54777094 12.18565781-101.42339531 46.84120126-136.11635344 28.43224311-28.4629425 71.76798094-46.46513625 135.54458062-46.46513625 140.25882469 0 182.41648125 88.37144437 182.41648125 182.58053063 0 35.38177125-18.34276406 131.49132844-19.75300781 138.67302-0.42307312 33.18582-46.18500656 63.31899001-49.39499062 65.419965-9.46494281 7.146195-18.47419406 13.14884531-26.95868157 18.23147906-7.56543094 4.52525156-14.67517031 8.29453594-21.35608031 11.47573969-0.09785344 0.98237438-0.19762594 1.96666688-0.19762594 3.11404875l-0.03069937 0c0 0.0335775 0 3.37786969 0 17.96957625 0.03069937 0.16404844 0.03069937 0.32905687 0.03069937 0.49406531l0 0.09689438 0 0c0 5.14978875 1.17904031 9.24908906 3.53904094 11.968845 2.22760969 2.59120311 5.69949562 4.03406531 10.48089375 4.06764187l0-0.0335775 0.0997725 0c0.22736625 0 0.42307312 0.0335775 0.62165813 0.06427688 126.20723156 5.77336594 159.78254719 59.02494094 161.25514874 61.45305468l0 0c4.51949625 7.08095906 9.56567438 14.36146313 14.57635688 21.64004813 1.63761001 2.36287781 3.24356063 4.69026 4.71616219 6.85455281 33.83721844-33.54653531 61.28804625-73.5504525 80.25150937-117.98080875 18.96538125-44.43227531 29.48081156-93.35718375 29.48081156-144.77352375 0-102.24172031-41.4045675-194.77866-108.32303718-261.77004C705.52527031 182.76849875 613.09002125 141.32076031 510.99028438 141.32076031L510.99028438 141.32076031zM446.26488875 649.71271062c0-0.29452031 0-0.16404844 0-0.06331687" p-id="1293"></path></svg>