<?xml version="1.0" standalone="no"?><!DOCTYPE svg PUBLIC "-//W3C//DTD SVG 1.1//EN" "http://www.w3.org/Graphics/SVG/1.1/DTD/svg11.dtd"><svg t="1509007263692" class="icon" style="" viewBox="0 0 1024 1024" version="1.1" xmlns="http://www.w3.org/2000/svg" p-id="2879" xmlns:xlink="http://www.w3.org/1999/xlink" width="200" height="200"><defs><style type="text/css"></style></defs><path d="M901.88444369 486.00869571c-0.38248737-13.58649838-3.08073724-23.61005805-12.72032061-37.39152036C887.33205178 445.82367566 593.12459897 131.40390567 593.12459897 131.40390567c-20.43109397-21.77947485-47.38531394-32.21082202-74.46306254-32.23612298v-0.21431168c-0.38844058-0.02381287-0.87064288 0.12055078-1.35135708 0.12055078-0.4822023 0-0.96440461-0.14436282-1.4451188-0.12055078v0.2158006c-26.98100986 0.02381287-53.96350699 10.45664813-74.48985078 32.23612216 0 0-294.1092268 314.41828106-295.93980999 317.21326969-9.63660636 13.78146313-12.33485623 23.80502197-12.72032062 37.39152117v5.10777328c0 42.88178183 34.78852112 77.72239298 77.67179188 77.72239297h18.59902267v278.73828123c0 45.38804397 40.76098489 82.15151111 90.97105187 82.15151111 50.20709162 0 90.87282587-36.76197903 90.87282587-82.15151111v-278.73976932h212.84621824v278.73828039c0 45.38953208 40.76544919 82.15299922 90.9725408 82.15300004s90.86984967-36.76197903 90.86984884-82.15300004V568.83886279h18.6019997c42.97852058 0 77.76555277-34.83763413 77.76555276-77.7223938 0-0.38695249-0.09524982-0.77092877-0.09524982-1.15639233l0.09376172-3.95138095zM786.05317889 205.02757868l0.4822023 0.60275308 58.49531708 61.82013208c8.28673736 8.71982666 21.97295068 9.10529105 30.64366434 0.86468966 0.09673792-0.04762491 0.09673792-0.14436282 0.29170267-0.23961263l0.76795175-0.72330387c2.60002304-2.69676178 4.14485678-5.10628519 5.10926139-9.73334427 0.19198773-0.86617859 0.28723755-1.83207129 0.38100009-2.74736289 0.19198773-1.01202952 0.38546438-1.97494601 0.48220229-3.18045217l6.74785685-114.72398548c0.48071421-8.35966324-2.60300005-15.80403406-7.70779715-21.29578363v-0.04911301c-0.09971494-0.07143777-0.19645285-0.16817569-0.29319077-0.23961264-0.09673792-0.09822601-0.19049963-0.19198773-0.28872646-0.31402743v0.02381287c-5.2030231-5.44263657-12.43308225-8.91330249-20.81358134-8.88800235l-114.96508621 0.28723755c-1.25164297 0.04911301-2.11930967 0.12203888-3.18045218 0.21728869-0.9658927 0.07143777-1.83355938 0.09673792-2.69824987 0.26491443-4.72230891 0.6965148-7.22708294 2.07168393-10.12029676 4.60175812l-0.77092877 0.77092877c0 0.04762491-0.19198773 0.11906268-0.19198773 0.16817569-8.66773664 8.26441343-9.05915423 21.94913864-0.87064288 30.66896448l58.49978137 61.84394494z" p-id="2880"></path></svg>