<?xml version="1.0" standalone="no"?><!DOCTYPE svg PUBLIC "-//W3C//DTD SVG 1.1//EN" "http://www.w3.org/Graphics/SVG/1.1/DTD/svg11.dtd"><svg t="1509007292950" class="icon" style="" viewBox="0 0 1024 1024" version="1.1" xmlns="http://www.w3.org/2000/svg" p-id="3002" xmlns:xlink="http://www.w3.org/1999/xlink" width="200" height="200"><defs><style type="text/css"></style></defs><path d="M832.994638 140.071895l-95.943747 0c-17.66313 0-31.981931 14.318801-31.981931 31.981931 0 17.66313 14.318801 31.981931 31.981931 31.981931l63.963863 0c17.66313 0 31.979885 14.318801 31.979885 31.981931l0 63.963863c0 17.66313 14.318801 31.981931 31.983978 31.981931 17.66313 0 31.979885-14.318801 31.979885-31.981931l0-95.945794C896.958501 168.710521 868.321922 140.071895 832.994638 140.071895z" p-id="3003"></path><path d="M801.014754 523.855071c-17.665177 0-31.983978 14.318801-31.983978 31.981931l0 255.855451c0 17.66313-14.316755 31.980908-31.977838 31.981931l-63.965909 0c-17.665177 0-31.983978-14.318801-31.983978-31.981931L641.10305 651.785867c0-0.001023 0.002047-0.002047 0.002047-0.002047 0-35.327283-28.637603-63.964886-63.965909-63.964886l-0.002047 0L449.215555 587.818934l-0.002047 0c-35.327283 0-63.963863 28.637603-63.963863 63.963863l0 159.909657c0 17.66313-14.318801 31.981931-31.981931 31.981931l-63.963863 0c-17.664153 0-31.981931-14.318801-31.981931-31.981931L257.321921 555.837003c0-17.66313-14.318801-31.981931-31.981931-31.981931-17.664153 0-31.981931 14.318801-31.981931 31.981931l0 287.837382c0 35.32626 28.63658 63.963863 63.963863 63.963863l127.927725 0c35.32626 0 63.963863-28.637603 63.963863-63.963863l0-159.909657c0-17.662107 14.316755-31.979885 31.978861-31.981931l63.96898 0c17.661083 0.002047 31.979885 14.318801 31.979885 31.981931l-0.002047 159.909657c0 35.32626 28.637603 63.963863 63.963863 63.963863l0.004093 0 127.921585 0 0.002047 0c35.327283 0 63.963863-28.637603 63.963863-63.963863L832.994638 555.837003C832.994638 538.173873 818.677884 523.855071 801.014754 523.855071z" p-id="3004"></path><path d="M887.654146 469.320413 558.676816 140.343084l-0.00614 0c-0.075728-0.076752-0.14634-0.156574-0.222068-0.234349-24.969894-24.968871-65.446706-24.978081-90.42888-0.028654l-0.080845 0L139.302331 468.717657l0.013304 0.013304c-6.108414 5.823921-9.920416 14.036355-9.920416 23.14218 0 17.664153 14.317778 31.981931 31.981931 31.981931 9.128338 0 17.357146-3.830423 23.184137-9.96442l0.014327 0.014327 306.029587-305.950789c12.4522-12.4522 32.615389-12.486994 45.114663-0.109499l306.673279 306.674302 0-0.001023c5.786057 5.770706 13.767212 9.338126 22.585474 9.338126 17.66313 0 31.979885-14.317778 31.979885-31.981931 0-8.800864-3.556163-16.768716-9.306402-22.551703L887.654146 469.320413z" p-id="3005"></path></svg>