<?xml version="1.0" standalone="no"?><!DOCTYPE svg PUBLIC "-//W3C//DTD SVG 1.1//EN" "http://www.w3.org/Graphics/SVG/1.1/DTD/svg11.dtd"><svg t="1511333032556" class="icon" style="" viewBox="0 0 1098 1024" version="1.1" xmlns="http://www.w3.org/2000/svg" p-id="2313" xmlns:xlink="http://www.w3.org/1999/xlink" width="214.453125" height="200"><defs><style type="text/css"></style></defs><path d="M406.06044305 379.57550911q0 33.10612291-23.17428589 56.28040879t-56.28040878 23.17428589-56.2804088-23.17428589-23.17428589-56.28040879 23.17428589-56.28040879 56.2804088-23.17428589 56.28040878 23.17428589 23.17428589 56.28040879zM829.81881422 538.48489846l0 185.39428712-582.6677598-1e-8 0-79.45469468 132.42449089-132.42449089 66.21224509 66.21224509 211.87918558-211.87918558zM869.54616083 247.15101821l-662.12245375 0q-5.37643432 0-9.32268427 3.91976461t-3.91976461 9.32268426l0 503.21306511q0 5.37643432 3.91976461 9.32268426t9.32268427 3.91976461l662.12245375 0q5.37643432 0 9.32268425-3.91976461t3.91976463-9.32268426l0-503.21306511q0-5.37643432-3.91976463-9.32268426t-9.32268425-3.91976461zM935.75840664 260.39346781l0 503.21306511q0 27.3059301-19.43991555 46.77233026t-46.77233026 19.43991555l-662.12245375 0q-27.3059301 0-46.77233025-19.43991555t-19.43991555-46.77233026l0-503.21306511q0-27.3059301 19.43991555-46.77233026t46.77233025-19.43991555l662.12245375 0q27.3059301 0 46.77233026 19.43991555t19.43991555 46.77233026z" p-id="2314"></path></svg>