<?xml version="1.0" standalone="no"?><!DOCTYPE svg PUBLIC "-//W3C//DTD SVG 1.1//EN" "http://www.w3.org/Graphics/SVG/1.1/DTD/svg11.dtd"><svg t="1513081903155" class="icon" style="" viewBox="0 0 1024 1024" version="1.1" xmlns="http://www.w3.org/2000/svg" p-id="2556" xmlns:xlink="http://www.w3.org/1999/xlink" width="200" height="200"><defs><style type="text/css"></style></defs><path d="M662.0003 103.8815L362.5721 103.8815c-37.4724 0-68.0625 30.6603-68.0625 68.0598l0 680.7249c0 37.4355 30.5901 68.0625 68.0625 68.0625l299.4282 0c37.4391 0 68.0634-30.627 68.0634-68.0625L730.0637 171.9404C730.0637 134.5418 699.4394 103.8815 662.0003 103.8815zM471.4424 158.3144l81.6894 0c7.5204 0 13.6629 6.1056 13.6629 13.6269 0 7.5609-6.1416 13.6269-13.6629 13.6269l-81.6894 0c-7.488 0-13.5549-6.066-13.5549-13.6269C457.8875 164.42 463.9535 158.3144 471.4424 158.3144zM512.2511 893.4758c-22.5333 0-40.8429-18.2412-40.8429-40.8105s18.3096-40.8798 40.8429-40.8798c22.6386 0 40.8798 18.3105 40.8798 40.8798S534.8906 893.4758 512.2511 893.4758zM702.9161 784.6037L321.7625 784.6037 321.7625 240.0038l381.1536 0L702.9161 784.6037z" p-id="2557"></path></svg>