<?xml version="1.0" standalone="no"?><!DOCTYPE svg PUBLIC "-//W3C//DTD SVG 1.1//EN" "http://www.w3.org/Graphics/SVG/1.1/DTD/svg11.dtd"><svg t="1508305543236" class="icon" style="" viewBox="0 0 1024 1024" version="1.1" xmlns="http://www.w3.org/2000/svg" p-id="8368" xmlns:xlink="http://www.w3.org/1999/xlink" width="200" height="200"><defs><style type="text/css"></style></defs><path d="M328.025543 438.857143h292.571428V329.142857q0-60.571429-42.857142-103.428571t-103.428572-42.857143-103.428571 42.857143-42.857143 103.428571v109.714286z m475.428571 54.857143v329.142857q0 22.857143-16 38.857143t-38.857143 16H200.025543q-22.857143 0-38.857143-16t-16-38.857143V493.714286q0-22.857143 16-38.857143t38.857143-16h18.285714V329.142857q0-105.142857 75.428572-180.571428t180.571428-75.428572 180.571429 75.428572 75.428571 180.571428v109.714286h18.285714q22.857143 0 38.857143 16t16 38.857143z" p-id="8369"></path></svg>