<?xml version="1.0" standalone="no"?><!DOCTYPE svg PUBLIC "-//W3C//DTD SVG 1.1//EN" "http://www.w3.org/Graphics/SVG/1.1/DTD/svg11.dtd"><svg t="1509723440059" class="icon" style="" viewBox="0 0 1024 1024" version="1.1" xmlns="http://www.w3.org/2000/svg" p-id="1521" xmlns:xlink="http://www.w3.org/1999/xlink" width="200" height="200"><defs><style type="text/css"></style></defs><path d="M512 124.40234375c-213.96972656 0-387.59765625 173.62792969-387.59765625 387.59765625s173.62792969 387.59765625 387.59765625 387.59765625 387.59765625-173.62792969 387.59765625-387.59765625-173.62792969-387.59765625-387.59765625-387.59765625z m-94.921875 558.45703125c-4.35058594 4.35058594-10.28320313 7.11914063-17.00683594 7.11914063h-48.25195312c-13.44726563 0-24.12597656-10.67871094-24.12597656-24.12597657v-48.25195312c0-6.72363281 2.76855469-12.65625 7.11914062-17.00683594l223.46191406-223.46191406 82.265625 82.265625-223.46191406 223.46191406z m288.72070313-288.72070313l-31.24511719 31.24511719-82.265625-82.265625 31.24511718-31.24511718c4.35058594-4.35058594 10.28320313-7.11914063 17.00683594-7.11914063 6.72363281 0 12.65625 2.76855469 17.00683594 7.11914063l48.25195313 48.25195312c4.35058594 4.35058594 7.11914063 10.28320313 7.11914062 17.00683594s-2.76855469 12.65625-7.11914062 17.00683594z" p-id="1522"></path></svg>