<?xml version="1.0" standalone="no"?><!DOCTYPE svg PUBLIC "-//W3C//DTD SVG 1.1//EN" "http://www.w3.org/Graphics/SVG/1.1/DTD/svg11.dtd"><svg t="1508297205486" class="icon" style="" viewBox="0 0 1024 1024" version="1.1" xmlns="http://www.w3.org/2000/svg" p-id="17936" xmlns:xlink="http://www.w3.org/1999/xlink" width="200" height="200"><defs><style type="text/css"></style></defs><path d="M846.280366 859.936387c-222.505653 0-445.011306 0-667.517983 0-1.300622-0.3776-2.583848-0.833995-3.904936-1.12052-22.052249-4.78191-36.947494-17.753339-44.518936-39.015595-1.146103-3.219321-1.801019-6.613628-2.684132-9.927093 0-19.469424 0-38.938847 0-58.408271 2.907213-7.734148 4.616134-16.229636 8.951883-23.055089 11.777231-18.540262 29.274744-27.114544 51.410903-27.104311 216.194924 0.106424 432.389848 0.063445 648.584772 0.064468 1.390673 0 2.781346-0.001023 4.170996 0.032746 12.9438 0.312108 24.426319 4.558829 34.586726 12.595876 10.93198 8.647961 17.378809 20.059871 20.982894 33.29429 0 22.25077 0 44.50154 0 66.751287-0.382717 0.936325-0.855484 1.847068-1.133823 2.814092-5.869684 20.369933-19.10615 33.634028-39.032992 40.384779C852.945159 858.339006 849.582575 859.049181 846.280366 859.936387z" p-id="17937"></path><path d="M127.655402 541.823236c0-19.817348 0-39.633672 0-59.45102 1.941212-5.886057 3.094478-12.190647 5.961782-17.584494 11.583826-21.792329 30.15274-32.240285 54.761208-32.238238 177.391153 0.01228 354.783329 0.00614 532.174482 0.00614 39.092343 0 78.184687-0.124843 117.276007 0.048095 23.559579 0.104377 41.262776 10.725272 52.797483 31.220049 2.5071 4.453429 3.842515 9.56689 5.717212 14.376429 0 22.598694 0 45.196365 0 67.795059-0.881067 2.393513-1.782599 4.780887-2.639107 7.182586-8.270361 23.203468-30.18651 37.874609-56.756655 37.876656-216.406748 0.011256-432.812473 0.007163-649.218198 0-2.084475 0-4.172019-0.050142-6.253424-0.159636-23.094998-1.210571-44.26618-17.621333-51.15917-39.680744C129.345903 548.109406 128.538515 544.954553 127.655402 541.823236z" p-id="17938"></path><path d="M896.343575 209.107505c0 22.598694 0 45.196365 0 67.795059-0.900509 2.588965-1.778506 5.186116-2.704598 7.765871-8.31027 23.146163-30.397311 37.927821-56.796564 37.929868-216.344327 0.00921-432.688653 0.00614-649.031956 0.005117-1.216711 0-2.433422 0.013303-3.64911-0.028653-24.720008-0.836041-46.599318-17.046235-53.779857-39.895639-1.029446-3.27765-1.822508-6.630001-2.725064-9.94756 0-19.469424 0-38.938847 0-58.408271 2.255367-6.685259 3.50994-13.942547 6.947226-19.951401 11.656481-20.379143 29.547966-30.317493 53.243645-30.308283 216.35456 0.084934 432.708096 0.050142 649.062656 0.052189 1.38965 0 2.780323 0.005117 4.169973 0.048095 25.073048 0.788969 46.543036 17.283642 53.738925 41.24231C895.199519 206.678176 895.829875 207.875444 896.343575 209.107505z" p-id="17939"></path></svg>