<?xml version="1.0" standalone="no"?><!DOCTYPE svg PUBLIC "-//W3C//DTD SVG 1.1//EN" "http://www.w3.org/Graphics/SVG/1.1/DTD/svg11.dtd"><svg t="1509007582330" class="icon" style="" viewBox="0 0 1024 1024" version="1.1" xmlns="http://www.w3.org/2000/svg" p-id="1792" xmlns:xlink="http://www.w3.org/1999/xlink" width="200" height="200"><defs><style type="text/css"></style></defs><path d="M663.80117187 962l-51.78779296 0-100.0125-84.375-107.13779297 84.375-44.6625 0-62.47529297-84.375-110.73779297 84.375-49.98779297 0 0-787.5c0-62.13779297 47.96279297-112.5 107.13779297-112.5l535.725 0c59.175 0 107.13779297 50.36220703 107.13779297 112.5l0 787.5-49.98779297 0-110.73779297-84.375-62.47529297 84.375zM833.41425781 174.5c0-31.08779297-23.9625-56.25-53.55-56.25l-535.725 0c-29.5875 0-53.55 25.16220703-53.55 56.25l0 732.86279297 107.13779297-85.98779297 80.36279297 112.5 133.91279297-112.5 123.525 115.80029297 90.74970703-115.80029297 107.13779297 85.12470703 0-731.99970703zM699.50146484 624.5l-375.00029296 0c-14.77529297 0-26.775-12.6-26.775-28.125 0-15.56279297 11.99970703-28.125 26.775-28.125l375.00029296 0c14.81220703 0 26.775 12.56220703 26.775 28.125 0 15.525-11.96279297 28.125-26.775 28.125zM699.50146484 455.11279297l-375.00029296 0c-14.77529297 0-26.775-12.6-26.775-28.125s11.99970703-28.125 26.775-28.125l375.00029296 0c14.81220703 0 26.775 12.6 26.775 28.125s-11.96279297 28.125-26.775 28.125zM699.50146484 287l-375.00029296 0c-14.77529297 0-26.775-12.6-26.775-28.125s11.99970703-28.125 26.775-28.125l375.00029296 0c14.81220703 0 26.775 12.6 26.775 28.125s-11.96279297 28.125-26.775 28.125z" p-id="1793"></path></svg>