<?xml version="1.0" standalone="no"?><!DOCTYPE svg PUBLIC "-//W3C//DTD SVG 1.1//EN" "http://www.w3.org/Graphics/SVG/1.1/DTD/svg11.dtd"><svg t="1509007558384" class="icon" style="" viewBox="0 0 1024 1024" version="1.1" xmlns="http://www.w3.org/2000/svg" p-id="1669" xmlns:xlink="http://www.w3.org/1999/xlink" width="200" height="200"><defs><style type="text/css"></style></defs><path d="M772.49874969 66.46122969H242.07126125c-58.60441031 0-106.06291969 49.86680719-106.06291969 111.38375156v779.6787375H185.47627344l109.68289219-83.57544375 61.81045593 83.57544375h44.25246375l106.06291969-83.57544375 99.04875469 83.57544375h51.274155l61.81045687-83.57544375 109.68289125 83.57544375h49.46793282V177.84498125c0-61.50941906-47.57139844-111.38375156-106.07044594-111.38375156z m-79.57164938 556.926285h-371.27666437c-14.65298437 0-26.49127031-12.44788688-26.49127031-27.89861906 0-15.45825844 11.83828687-27.89861906 26.49127031-27.89862h371.27666437c14.65298437 0 26.49127031 12.44036062 26.49127125 27.89862-0.00752625 15.44320687-11.83828687 27.89861906-26.49127125 27.89861906z m0-167.68522781h-371.27666437c-14.65298437 0-26.49127031-12.44036062-26.49127031-27.89862 0-15.35289563 11.83828687-27.89861906 26.49127031-27.89861907h371.27666437c14.65298437 0 26.49127031 12.44036062 26.49127125 27.89861907-0.00752625 15.36042188-11.83828687 27.89861906-26.49127125 27.89862z m0-166.47355313h-371.27666437c-14.65298437 0-26.49127031-12.44036062-26.49127031-27.89862 0-15.45073219 11.83828687-27.89861906 26.49127031-27.89861906h371.27666437c14.65298437 0 26.49127031 12.44036062 26.49127125 27.89861906-0.00752625 15.45825844-11.83828687 27.89861906-26.49127125 27.89862z" fill="" p-id="1670"></path></svg>