<?xml version="1.0" standalone="no"?><!DOCTYPE svg PUBLIC "-//W3C//DTD SVG 1.1//EN" "http://www.w3.org/Graphics/SVG/1.1/DTD/svg11.dtd"><svg t="1509008358804" class="icon" style="" viewBox="0 0 1024 1024" version="1.1" xmlns="http://www.w3.org/2000/svg" p-id="4537" xmlns:xlink="http://www.w3.org/1999/xlink" width="200" height="200"><defs><style type="text/css"></style></defs><path d="M791.24441782 232.34183311c-154.46619415-154.46619415-404.01064879-154.46619415-558.46485025 0C78.24141649 386.82002073 77.49786798 637.15599387 232.02402636 791.64617419c154.43021608 154.47818685 405.53372389 154.47818685 560.01191074 0C946.52611741 637.15599387 945.73459813 386.82002073 791.24441782 232.34183311M344.01201713 386.08846492c8.44287283-8.45486552 20.3156628-13.37187968 32.26040891-13.37187968s23.81753608 4.91701415 32.26040891 13.37187968c8.44287283 8.44287283 13.37187968 20.3156628 13.37187969 32.26040892s-4.92900684 23.81753608-13.37187969 32.26040891-20.3156628 13.35988698-32.26040891 13.35988698-23.81753608-4.91701415-32.26040891-13.35988698-13.35988698-20.3156628-13.35988698-32.26040891S335.5691443 394.53133775 344.01201713 386.08846492M516.29938931 738.20662705c-87.01915462 0-164.26424438-55.44233073-192.20727457-137.95222353l40.59534674-13.74365392c22.04261366 65.10846056 82.96561589 108.85789172 151.61192783 108.85789171 68.63431924 0 129.55732147-43.74943117 151.61192781-108.85789171l40.58335406 13.74365392C680.52765482 682.77628978 603.30655045 738.20662705 516.29938931 738.20662705M683.35793653 450.60928198c-8.44287283 8.44287283-20.3156628 13.35988698-32.24841621 13.35988697-11.94474612 0-23.81753608-4.91701415-32.26040891-13.35988697-8.45486552-8.44287283-13.37187968-20.3156628-13.37187968-32.26040892s4.91701415-23.81753608 13.37187968-32.26040892c8.44287283-8.45486552 20.3156628-13.37187968 32.26040891-13.37187966 11.93275343 0 23.80554339 4.91701415 32.24841621 13.37187966 8.44287283 8.44287283 13.35988698 20.3156628 13.359887 32.26040892S691.8008086 442.16640915 683.35793653 450.60928198" p-id="4538"></path></svg>