<?xml version="1.0" standalone="no"?><!DOCTYPE svg PUBLIC "-//W3C//DTD SVG 1.1//EN" "http://www.w3.org/Graphics/SVG/1.1/DTD/svg11.dtd"><svg t="1509007852920" class="icon" style="" viewBox="0 0 1024 1024" version="1.1" xmlns="http://www.w3.org/2000/svg" p-id="3039" xmlns:xlink="http://www.w3.org/1999/xlink" width="200" height="200"><defs><style type="text/css"></style></defs><path d="M629.7416 477.4589c19.8792 0 36-16.119 36-36 0-19.8801-16.1208-36-36-36-19.881 0-36 16.1199-36 36C593.7416 461.339 609.8606 477.4589 629.7416 477.4589z" p-id="3040"></path><path d="M385.9199 440.5589m-36 0a35.15625 35.15625 0 1 0 72 0 35.15625 35.15625 0 1 0-72 0Z" p-id="3041"></path><path d="M693.2924 599.4287c-9.7632 0-18.0738 6.2262-21.1869 14.9202-31.7511 55.7172-91.6821 93.2922-160.3989 93.2922-69.6195 0-130.2228-38.5668-161.6382-95.4936l-0.2439 0c-3.447-8.0082-11.4066-13.6197-20.6739-13.6197-12.4218 0-22.5 10.0791-22.5 22.5018 0 2.9583 0.5778 5.7834 1.6173 8.3709l-0.0117 0.0126c0.0198 0.0387 0.0405 0.0756 0.0603 0.1143 0.6084 1.4886 1.3707 2.9007 2.2698 4.2102 39.0573 70.8768 114.4728 118.9035 201.1203 118.9035 86.9544 0 162.6012-48.366 201.5388-119.6541l-0.2304-0.2304c1.7685-3.213 2.7774-6.9012 2.7774-10.8261C715.7924 609.5078 705.7124 599.4287 693.2924 599.4287z" p-id="3042"></path><path d="M512 107C288.3149 107 107 288.3149 107 512c0 223.6689 181.3149 405 405 405 223.6689 0 405-181.3311 405-405C917 288.3149 735.6689 107 512 107zM512 872c-198.8226 0-360-161.1774-360-360 0-198.8226 161.1774-360 360-360 198.8226 0 360 161.1774 360 360C872 710.8226 710.8226 872 512 872z" p-id="3043"></path></svg>