<?xml version="1.0" standalone="no"?><!DOCTYPE svg PUBLIC "-//W3C//DTD SVG 1.1//EN" "http://www.w3.org/Graphics/SVG/1.1/DTD/svg11.dtd"><svg t="1510044325465" class="icon" style="" viewBox="0 0 1024 1024" version="1.1" xmlns="http://www.w3.org/2000/svg" p-id="2001" xmlns:xlink="http://www.w3.org/1999/xlink" width="200" height="200"><defs><style type="text/css"></style></defs><path d="M838.98476563 787.12138672L562.90625 511.04199219 838.97949219 234.96875c13.82519531-13.82519531 13.82519531-36.23994141 0-50.06337891-13.82519531-13.82519531-36.23818359-13.82519531-50.06425781 0L512.84375 460.97949219 236.76787109 184.90537109c-13.8234375-13.82255859-36.24082031-13.82255859-50.06074218 0-13.82519531 13.82519531-13.82519531 36.23730469 0 50.06337891L462.78125 511.04199219 186.70449219 787.12050781c-13.82255859 13.82519531-13.82255859 36.23818359 0 50.06425782 13.82255859 13.82080078 36.23994141 13.82080078 50.0633789 0L512.84375 561.10449219 788.92138672 837.18652344c13.82519531 13.82519531 36.23730469 13.82519531 50.0625 0 13.82255859-13.82519531 13.82255859-36.23818359 0-50.06425781z" fill="" p-id="2002"></path></svg>