<?xml version="1.0" standalone="no"?><!DOCTYPE svg PUBLIC "-//W3C//DTD SVG 1.1//EN" "http://www.w3.org/Graphics/SVG/1.1/DTD/svg11.dtd"><svg t="1511249019839" class="icon" style="" viewBox="0 0 1024 1024" version="1.1" xmlns="http://www.w3.org/2000/svg" p-id="2407" xmlns:xlink="http://www.w3.org/1999/xlink" width="200" height="200"><defs><style type="text/css"></style></defs><path d="M776.498575 881.97095862L247.501425 881.97095862c-58.05069177 0-105.47238362-48.23930745-105.47238362-108.74284529L142.02904138 637.50396043c0-14.71707648 11.44661552-26.9813076 26.163692-26.98130761l53.14499962 0c14.71707648 0 26.163692 12.26423039 26.16369201 26.9813076l0 81.76153769c0 30.25176928 23.71084593 53.96261522 53.14499959 53.96261521l422.7071508 0c29.4341537 0 53.14499961-24.52846153 53.14499959-53.96261521l0-81.76153769c0-14.71707648 11.44661552-26.9813076 26.16369201-26.9813076l53.14499962 0c14.71707648 0 26.163692 12.26423039 26.163692 26.9813076l0 135.7241529C881.97095862 832.91403628 834.54926677 881.97095862 776.498575 881.97095862L776.498575 881.97095862 776.498575 881.97095862zM297.37596293 349.70334766c10.62899993-10.62899993 27.7989232-10.62899993 38.42792313 0L459.26380783 476.43373112 459.26380783 169.01034899c0-14.71707648 11.44661552-26.9813076 26.163692-26.98130761l53.14499962 0c14.71707648 0 26.163692 12.26423039 26.163692 26.9813076L564.73619217 476.43373112l123.4599225-126.73038346c10.62899993-10.62899993 27.7989232-10.62899993 38.42792313 0l38.42792312 40.06315361c10.62899993 10.62899993 10.62899993 28.61653808 0 40.0631536L547.56626888 653.03865251c-0.8176156 0.8176156-17.98753817 11.44661552-35.15746144 11.44661551-17.16992328 0-34.33984585-10.62899993-35.97507632-11.44661552L258.94804052 429.01203927c-10.62899993-10.62899993-10.62899993-28.61653808 0-40.06315361L297.37596293 349.70334766 297.37596293 349.70334766 297.37596293 349.70334766zM297.37596293 349.70334766" p-id="2408"></path></svg>