<?xml version="1.0" standalone="no"?><!DOCTYPE svg PUBLIC "-//W3C//DTD SVG 1.1//EN" "http://www.w3.org/Graphics/SVG/1.1/DTD/svg11.dtd"><svg t="1511249023383" class="icon" style="" viewBox="0 0 1024 1024" version="1.1" xmlns="http://www.w3.org/2000/svg" p-id="2530" xmlns:xlink="http://www.w3.org/1999/xlink" width="200" height="200"><defs><style type="text/css"></style></defs><path d="M773.18017578 826.86129761L246.83590698 826.86129761c-58.13223266 0-105.26522827-47.11981201-105.26522827-105.26522828L141.57067872 590.00897217c0-14.52996826 11.79025268-26.3119812 26.31115722-26.3119812l52.64291382 0c14.53079224 0 26.31115723 11.78201294 26.31115722 26.3119812l0 78.95407104c0 29.07229614 23.5632019 52.6338501 52.63302612 52.6338501l421.07821656 0c29.07147217 0 52.63302612-23.56155396 52.63302612-52.63302612l0-78.95489502c0-14.52996826 11.78201294-26.3119812 26.32022095-26.3119812l52.6338501 0c14.53079224 0 26.31280518 11.78201294 26.31280517 26.3119812l0 131.58792114C878.44540406 779.7414856 831.32229614 826.86129761 773.18017578 826.86129761L773.18017578 826.86129761zM723.95510864 447.77859497c-10.6473999 10.64492797-27.92037964 10.64492797-38.56860351 0L562.63900757 325.02944946l0 264.98034668c0 14.53079224-11.78366089 26.32351685-26.31280518 26.32351685l-52.63220215 0c-14.53326416 0-26.3218689-11.79354859-26.32186889-26.32351685L457.37213135 325.02944946 334.62380982 447.77859497c-10.64657593 10.64492797-27.91296386 10.64492797-38.5595398 0L257.49072266 409.20092773c-10.64657593-10.6473999-10.64657593-27.91213989 0-38.56777953L474.84863281 153.27359008c0.94097901-0.93850708 17.85140992-11.27526855 34.86730957-11.28268432 17.20129394-0.00823974 34.50723266 10.33428955 35.44821168 11.28268432l217.36779784 217.36038209c10.6473999 10.6572876 10.6473999 27.92037964 0 38.56777954L723.95510864 447.77859497 723.95510864 447.77859497z" p-id="2531"></path></svg>