<?xml version="1.0" standalone="no"?><!DOCTYPE svg PUBLIC "-//W3C//DTD SVG 1.1//EN" "http://www.w3.org/Graphics/SVG/1.1/DTD/svg11.dtd"><svg t="1509965871739" class="icon" style="" viewBox="0 0 1024 1024" version="1.1" xmlns="http://www.w3.org/2000/svg" p-id="1815" xmlns:xlink="http://www.w3.org/1999/xlink" width="200" height="200"><defs><style type="text/css"></style></defs><path d="M815.74376004 144.30743457L208.25370376 144.30743457c-35.3303248 0-63.94634747 28.63199707-63.94634747 63.94634746l0 607.49022108c0 35.3143504 28.61602349 63.94634747 63.94634747 63.94634747l607.49005628 0c35.3143504 0 63.94634747-28.63199707 63.94634748-63.94634747L879.69010834 208.25378287C879.69010834 172.93943247 851.05811044 144.30743457 815.74376004 144.30743457zM847.71701618 815.74383914c0 17.63313162-14.33995972 31.97309134-31.97325614 31.97309133L208.25370376 847.71693048c-17.63313162 0-31.97309134-14.33995972-31.97309134-31.97309134L176.28061242 208.25378287c0-17.63313162 14.33995972-31.97309134 31.97309134-31.97309134l607.49005628 0c17.63329642 0 31.97325613 14.33995972 31.97325613 31.97309134L847.71701618 815.74383914zM732.62959775 320.15985015L291.39981485 320.15985015c-8.82455301 0-15.98662849 7.16207547-15.98662848 15.98662849s7.16207547 15.98662849 15.98662848 15.98662848l441.22961811 0c8.82455301 0 15.98662849-7.16207547 15.98662847-15.98662848S741.45415076 320.15985015 732.62959775 320.15985015zM732.62959775 496.01226493L291.39981485 496.01226493c-8.82455301 0-15.98662849 7.16207547-15.98662848 15.98662847s7.16207547 15.98662849 15.98662848 15.98662848l441.22961811 0c8.82455301 0 15.98662849-7.16207547 15.98662847-15.98662848C748.61606142 503.1741756 741.45415076 496.01226493 732.62959775 496.01226493zM732.62959775 671.86468051L291.39981485 671.86468051c-8.82455301 0-15.98662849 7.16207547-15.98662848 15.98662848 0 8.82455301 7.16207547 15.98662849 15.98662848 15.98662848l441.22961811 0c8.82455301 0 15.98662849-7.16207547 15.98662847-15.98662848C748.61606142 679.02659119 741.45415076 671.86468051 732.62959775 671.86468051z" p-id="1816"></path></svg>