<?xml version="1.0" standalone="no"?><!DOCTYPE svg PUBLIC "-//W3C//DTD SVG 1.1//EN" "http://www.w3.org/Graphics/SVG/1.1/DTD/svg11.dtd"><svg t="1509965927709" class="icon" style="" viewBox="0 0 1024 1024" version="1.1" xmlns="http://www.w3.org/2000/svg" p-id="1815" xmlns:xlink="http://www.w3.org/1999/xlink" width="200" height="200"><defs><style type="text/css"></style></defs><path d="M879.06266485 805.65978903c0 40.54123252-32.88131982 73.42255234-73.42255233 73.42255234L218.33791867 879.08234138c-40.54123252 0-73.42255234-32.88131982-73.42255234-73.42255235l0-587.32179125c0-40.54123252 32.88131982-73.42255234 73.42255234-73.42255234l587.32179126 0c40.54123252 0 73.42255234 32.88131982 73.42255233 73.42255234L879.08226227 805.65978903 879.06266485 805.65978903zM328.44235147 346.82240042l367.07373166 0c10.13526672 0 18.36053723-8.22510571 18.36053723-18.36053723 0-10.13526672-8.2252705-18.34093982-18.36053723-18.34093982L328.44235147 310.12092254c-10.13526672 0-18.36053723 8.22510571-18.36053724 18.34093983C310.10141083 338.5972947 318.30708391 346.82240042 328.44235147 346.82240042zM695.53551493 493.64807248L328.44235147 493.64807248c-10.13526672 0-18.36053723 8.2056731-18.36053724 18.34093982s8.2252705 18.34093982 18.36053724 18.34093982l367.07373166 0c10.13526672 0 18.36053723-8.2252705 18.36053723-18.34093982C713.87662036 501.85374558 705.67094727 493.64807248 695.53551493 493.64807248zM695.53551493 677.17505679L328.44235147 677.17505679c-10.13526672 0-18.36053723 8.2252705-18.36053724 18.34110462 0 10.15469934 8.2252705 18.36053723 18.36053724 18.36053722l367.07373166 0c10.13526672 0 18.36053723-8.2252705 18.36053723-18.36053722C713.87662036 685.4003273 705.67094727 677.17505679 695.53551493 677.17505679z" p-id="1816"></path></svg>