<?xml version="1.0" standalone="no"?><!DOCTYPE svg PUBLIC "-//W3C//DTD SVG 1.1//EN" "http://www.w3.org/Graphics/SVG/1.1/DTD/svg11.dtd"><svg t="1513010170409" class="icon" style="" viewBox="0 0 1024 1024" version="1.1" xmlns="http://www.w3.org/2000/svg" p-id="2527" xmlns:xlink="http://www.w3.org/1999/xlink" width="200" height="200"><defs><style type="text/css"></style></defs><path d="M894.71507358 518.7175248c-6.92371362 8.4375-172.69577216 205.94944858-382.71507358 205.94944858S136.20864004 527.15502481 129.26010996 518.7175248l-14.39338212-17.39614004 14.39338212-17.42095569c6.94852927-8.41268354 172.69577216-205.92463211 382.73989004-205.92463211s375.79135996 197.51194858 382.71507358 205.92463211l14.3933821 17.42095569-14.3933821 17.39614004zM512 331.57873761c-151.99908068 0-283.40073496 123.23713211-327.52389715 169.71783069 44.22242642 46.43106647 175.87224289 169.76746362 327.52389715 169.76746362 151.99908068 0 283.40073496-123.23713211 327.52389715-169.71783069-44.22242642-46.45588211-175.87224289-169.76746362-327.52389715-169.76746362z m0 285.88235284c-61.96599289 0-112.36764715-52.11397073-112.36764715-116.13970569s50.40165427-116.13970568 112.36764715-116.13970569 112.36764715 52.11397073 112.36764715 116.13970569-50.42647073 116.13970568-112.36764715 116.13970569z m0-178.67647073c-33.35294147 0-60.50183862 28.06709573-60.50183862 62.56158151s27.14889716 62.53676504 60.50183862 62.53676422 60.50183862-28.04227927 60.50183862-62.53676422-27.14889716-62.56158068-60.50183862-62.56158151z" p-id="2528"></path></svg>