<?xml version="1.0" standalone="no"?><!DOCTYPE svg PUBLIC "-//W3C//DTD SVG 1.1//EN" "http://www.w3.org/Graphics/SVG/1.1/DTD/svg11.dtd"><svg t="1513010180950" class="icon" style="" viewBox="0 0 1025 1024" version="1.1" xmlns="http://www.w3.org/2000/svg" p-id="2650" xmlns:xlink="http://www.w3.org/1999/xlink" width="200.1953125" height="200"><defs><style type="text/css"></style></defs><path d="M141.21142578 882.7830399l337.07951578 1e-8L478.29094156 545.69983435 141.21142578 545.69983435 141.21142578 882.7830399zM208.62216383 613.12164102l202.25066085 0 0 201.72675326L208.62216383 814.84839427 208.62216383 613.12164102z" p-id="2651"></path><path d="M276.04212522 680.53237905l67.4144271 0 0 67.42365119-67.41442709 0 0-67.42365119Z" p-id="2652"></path><path d="M680.52684475 815.37230186l67.43103002 0 0 67.41627236-67.43103002 0 0-67.41627236Z" p-id="2653"></path><path d="M815.35938872 815.37230186l67.4291855 0 0 67.41627236-67.4291855 0 0-67.41627236Z" p-id="2654"></path><path d="M815.36676756 613.12164102L747.95603024 613.12164102 747.95603024 545.69983435 545.69983435 545.69983435 545.69983435 882.7830399 613.12164102 882.7830399 613.12164102 680.53237905 680.52684475 680.53237905 680.52684475 747.95603024 882.7830399 747.95603024 882.7830399 545.69983435 882.7830399 545.69983435 815.36676756 545.69983435Z" p-id="2655"></path><path d="M141.21142578 478.2983204l337.07951578 0L478.29094156 141.21142578 141.21142578 141.21142578 141.21142578 478.2983204zM208.62216383 208.62216383l202.25066085-1e-8 0 202.25066086L208.62216383 410.87282468 208.62216383 208.62216383z" p-id="2656"></path><path d="M276.04212522 276.04212522l67.4144271 1e-8 0 67.41996141-67.41442709 0 0-67.41996141Z" p-id="2657"></path><path d="M545.69983435 141.21142578l0 337.08689462 337.08873987 0L882.78857422 141.21142578 545.69983435 141.21142578zM815.36676756 410.87282468L613.12164102 410.87282468 613.12164102 208.62216383l202.24512654-1e-8L815.36676756 410.87282468z" p-id="2658"></path><path d="M680.52684475 276.04212522l67.43103002 1e-8 0 67.41996141-67.43103002 0 0-67.41996141Z" p-id="2659"></path></svg>