<?xml version="1.0" standalone="no"?><!DOCTYPE svg PUBLIC "-//W3C//DTD SVG 1.1//EN" "http://www.w3.org/Graphics/SVG/1.1/DTD/svg11.dtd"><svg t="1510459427492" class="icon" style="" viewBox="0 0 1027 1024" version="1.1" xmlns="http://www.w3.org/2000/svg" p-id="2144" xmlns:xlink="http://www.w3.org/1999/xlink" width="200.5859375" height="200"><defs><style type="text/css"></style></defs><path d="M904.76123012 472.44921875L761.38964809 294.47070312c-14.83154297-19.77539063-44.49462891-19.77539063-59.32617187 1e-8L558.69189418 472.44921875c-9.88769531 14.83154297 0 34.60693359 14.83154297 34.60693359l54.38232422 0c0 103.82080078 0 237.3046875-187.86621094 346.06933594-4.94384766 4.94384766 0 9.88769531 4.94384766 9.88769531 351.01318359-54.38232422 380.67626953-291.68701172 380.67626953-355.95703125l59.32617188 0C904.76123012 507.05615234 914.64892543 487.28076172 904.76123012 472.44921875L904.76123012 472.44921875 904.76123012 472.44921875zM454.8710934 516.94384766L395.54492153 516.94384766c0-103.82080078 0-237.3046875 187.86621094-346.06933594 4.94384766-4.94384766 0-9.88769531-4.94384766-9.88769531C227.45410122 215.36914062 197.79101528 452.67382812 197.79101528 516.94384766L138.4648434 516.94384766C118.68945278 516.94384766 108.80175747 536.71923828 123.63330043 551.55078125L267.00488247 729.52929688c14.83154297 19.77539063 44.49462891 19.77539063 59.32617187-1e-8l143.37158203-177.97851562C479.59033168 536.71923828 469.70263637 516.94384766 454.8710934 516.94384766L454.8710934 516.94384766 454.8710934 516.94384766z" p-id="2145"></path></svg>