<?xml version="1.0" standalone="no"?><!DOCTYPE svg PUBLIC "-//W3C//DTD SVG 1.1//EN" "http://www.w3.org/Graphics/SVG/1.1/DTD/svg11.dtd"><svg t="1510383045151" class="icon" style="" viewBox="0 0 1024 1024" version="1.1" xmlns="http://www.w3.org/2000/svg" p-id="2233" xmlns:xlink="http://www.w3.org/1999/xlink" width="200" height="200"><defs><style type="text/css"></style></defs><path d="M549.31249971 174.5c-186.56250029 0-337.31250029 151.12500029-337.3125003 337.5l-112.5 0 146.0625003 146.06250029 2.62500029 5.4375003 151.3125-151.49999971-112.5 0c0-144.93750029 117.5625-262.50000029 262.50000029-262.50000029s262.50000029 117.5625 262.50000029 262.50000029-117.5625 262.50000029-262.50000029 262.50000029c-72.5625 0-137.99999971-29.62500029-185.43750029-77.0625l-53.06249971 53.06249971c60.93749971 61.12500029 145.125 99 238.31250029 99 186.56250029 0 337.68749971-151.12500029 337.68749971-337.5s-151.12500029-337.5-337.68749971-337.5zM512 361.99999971l0 187.49999971 160.49999971 95.2499997 27-45.5625-131.24999971-77.8124997 0-159.37499971-56.25 0z" p-id="2234"></path></svg>