<?xml version="1.0" standalone="no"?><!DOCTYPE svg PUBLIC "-//W3C//DTD SVG 1.1//EN" "http://www.w3.org/Graphics/SVG/1.1/DTD/svg11.dtd"><svg t="1509756309293" class="icon" style="" viewBox="0 0 1025 1024" version="1.1" xmlns="http://www.w3.org/2000/svg" p-id="1696" xmlns:xlink="http://www.w3.org/1999/xlink" width="200.1953125" height="200"><defs><style type="text/css"></style></defs><path d="M691.59244676 602.04637894l186.55861248 186.55861247a16.52376263 16.52376263 0 0 1 0 22.38703368l-67.42761254 67.42761326a16.52376263 16.52376263 0 0 1-22.38703367 0l-186.55861248-186.55861319a288.36631301 288.36631301 0 0 1-161.50645626 48.23872735 288.09980077 288.09980077 0 0 1-211.07774491-87.94906042A288.09980077 288.09980077 0 0 1 141.24453895 440.53992267a288.09980077 288.09980077 0 0 1 87.94906043-211.61076942A288.09980077 288.09980077 0 0 1 440.53785653 141.24660508a288.36631301 288.36631301 0 0 1 211.61076942 87.68254817 288.36631301 288.36631301 0 0 1 87.68254746 211.61076942 288.36631301 288.36631301 0 0 1-48.23872666 161.50645626zM295.82167516 296.35676652a196.41956803 196.41956803 0 0 0-59.96526799 144.18315615 196.41956803 196.41956803 0 0 0 59.96526799 144.18315614 197.21910481 197.21910481 0 0 0 144.71618137 59.96526872 196.68608031 196.68608031 0 0 0 144.4496684-59.69875647 196.68608031 196.68608031 0 0 0 59.69875645-144.44966839 196.68608031 196.68608031 0 0 0-59.69875645-144.44966839 196.68608031 196.68608031 0 0 0-144.4496684-59.69875646A197.21910481 197.21910481 0 0 0 295.82167516 296.35676652z" p-id="1697"></path></svg>