<?xml version="1.0" standalone="no"?><!DOCTYPE svg PUBLIC "-//W3C//DTD SVG 1.1//EN" "http://www.w3.org/Graphics/SVG/1.1/DTD/svg11.dtd"><svg t="1508988666197" class="icon" style="" viewBox="0 0 1024 1024" version="1.1" xmlns="http://www.w3.org/2000/svg" p-id="18148" xmlns:xlink="http://www.w3.org/1999/xlink" width="200" height="200"><defs><style type="text/css"></style></defs><path d="M512 64C265.6 64 64 265.6 64 512s201.6 448 448 448 448-201.6 448-448S758.4 64 512 64z m-144 256c25.6 0 48 22.4 48 48s-22.4 48-48 48-48-22.4-48-48 22.4-48 48-48z m329.6 339.2c-3.2 3.2-60.8 76.8-185.6 76.8s-182.4-73.6-185.6-76.8c-9.6-12.8-6.4-35.2 6.4-44.8 12.8-9.6 35.2-6.4 44.8 6.4 0 3.2 41.6 51.2 134.4 51.2s134.4-48 134.4-51.2c9.6-12.8 32-16 44.8-6.4 12.8 12.8 16 32 6.4 44.8zM656 416c-25.6 0-48-22.4-48-48s22.4-48 48-48 48 22.4 48 48-22.4 48-48 48z" p-id="18149"></path></svg>