<?xml version="1.0" standalone="no"?><!DOCTYPE svg PUBLIC "-//W3C//DTD SVG 1.1//EN" "http://www.w3.org/Graphics/SVG/1.1/DTD/svg11.dtd"><svg t="1509007693596" class="icon" style="" viewBox="0 0 1025 1024" version="1.1" xmlns="http://www.w3.org/2000/svg" p-id="2291" xmlns:xlink="http://www.w3.org/1999/xlink" width="200.1953125" height="200"><defs><style type="text/css"></style></defs><path d="M673.43310547 515.48191895c0 93.27392578-75.47607422 169.16198731-168.3380127 169.1619873-92.86193848 0-168.3380127-75.88806153-168.33801269-169.16198731C336.75708008 422.20799317 412.2331543 346.31993164 505.09509277 346.31993164 597.95703125 346.31993164 673.43310547 422.20799317 673.43310547 515.48191895L673.43310547 515.48191895zM393.11694336 515.48191895c0 62.04528809 50.26245117 112.55493164 111.97814942 112.55493163 61.7980957 0 111.97814942-50.50964356 111.97814941-112.55493164 0-62.04528809-50.26245117-112.55493164-111.97814941-112.55493164C443.29699707 402.92698731 393.11694336 453.3542334 393.11694336 515.48191895L393.11694336 515.48191895zM914.11608887 625.56492675c0 0.41198731 0 0.74157715-1e-8 1.071167-0.08239747 2.38952637-0.49438477 4.69665528-1.15356445 7.00378418l-0.24719238 0.65917968 0 0c-18.86901856 62.62207031-52.65197754 120.8770752-97.72338867 168.50280762l-0.41198731 0.49438477-0.08239746 0.08239746c-0.57678223 0.57678223-1.23596192 1.23596192-1.8951416 1.81274414l-0.08239746 0.08239746c-0.74157715 0.57678223-1.40075684 1.15356445-2.05993653 1.64794922l-0.24719238 0.16479492c-0.65917969 0.49438476-1.31835938 0.90637207-2.05993652 1.31835938l-0.32958985 0.16479492c-0.74157715 0.41198731-1.40075684 0.74157715-2.05993653 1.07116699l-0.49438475 0.24719239c-0.57678223 0.24719239-1.31835938 0.49438477-2.05993653 0.74157714-0.24719238 0-0.32958984 0.08239747-0.49438477 0.16479492-0.74157715 0.24719239-1.40075684 0.41198731-2.14233398 0.57678223l-0.4119873 0.08239746c-0.82397461 0.16479493-1.56555176 0.32958984-2.30712892 0.41198731-0.08239747 0-0.24719238 0-0.32958983 0-0.82397461 0.08239747-1.56555176 0.16479492-2.38952637 0.16479492l-0.08239746 0c-0.90637207 0-1.81274414 0-2.63671875-0.08239747l-0.08239746 0c-0.82397461-0.08239747-1.73034668-0.16479493-2.63671874-0.32958984-0.90637207-0.16479493-1.81274414-0.32958984-2.63671875-0.57678222l-0.16479494-0.08239747c-0.82397462-0.24719239-1.56555176-0.49438476-2.3071289-0.74157714l-0.16479492 0c0 0-0.08239747-0.08239747-0.16479493-0.08239747-0.65917969-0.24719239-1.40075684-0.57678223-2.14233398-0.98876953-0.08239747-0.08239747-0.24719239-0.08239747-0.4119873-0.16479492-0.74157715-0.41198731-1.40075684-0.74157715-2.05993653-1.15356445-0.08239747-0.08239747-0.24719239-0.16479492-0.4119873-0.24719238l-0.08239746-0.08239747c-0.08239747-0.08239747-0.24719239-0.16479492-0.32958985-0.24719237-15.8203125-10.546875-34.27734375-16.14990234-53.39355468-16.14990235-53.22875976 0-96.56982422 43.50585938-96.56982421 97.06420899 0 2.05993653 0 3.7902832 0.16479492 5.52062987l0 0.08239747c0 0.49438477 0.08239747 0.98876953 0.08239745 1.4831543 0 0.41198731 0 0.82397461 0 1.23596191l0 0.08239746c0 0.41198731 0 0.90637207-0.08239746 1.31835938 0 0.08239747 0 0.08239747 1e-8 0.16479492 0 0.32958984-0.08239747 0.74157715-0.16479492 1.15356445l-2.63671875-0.24719239 2.63671875 0.32958985 0 0.24719239c0 0.32958984-0.08239747 0.65917969-0.16479493 0.98876953 0 0.16479493-0.08239747 0.24719239-0.08239746 0.4119873-0.08239747 0.32958984-0.08239747 0.57678223-0.16479492 0.82397461l-0.16479493 0.57678223c-0.08239747 0.16479492-0.24719239 0.82397462-0.24719237 0.82397461-0.08239747 0.16479492-0.08239747 0.32958984-0.16479493 0.49438476 0 0.08239747-0.08239747 0.24719239-0.16479493 0.4119873l1e-8 0.16479492c-0.08239747 0.24719239-0.16479492 0.57678223-0.24719238 0.82397461 0 0.08239747-0.08239747 0.24719239-0.16479493 0.41198731-0.08239747 0.32958984-0.24719239 0.57678223-0.32958984 0.82397461l-0.32958984 0.65917969c-0.08239747 0.16479492-0.24719238 0.41198731-0.32958985 0.65917969l-0.24719238 0.49438476c-0.08239747 0.24719239-0.24719238 0.41198731-0.32958984 0.65917969-0.08239747 0.16479492-0.16479492 0.32958984-0.24719239 0.49438478-0.08239747 0.16479492-0.24719238 0.41198731-0.4119873 0.65917967l-0.24719238 0.41198731c-0.16479492 0.24719239-0.32958984 0.49438477-0.49438477 0.74157715 0 0-0.24719238 0.41198731-0.32958984 0.49438476l-0.4119873 0.49438477c-0.16479492 0.16479492-0.49438477 0.57678223-0.49438477 0.57678222-0.08239747 0.16479492-0.24719239 0.32958984-0.41198731 0.49438477-0.16479492 0.16479492-0.32958984 0.41198731-0.49438476 0.57678223l-0.32958985 0.4119873c-0.16479492 0.16479492-0.41198731 0.41198731-0.57678222 0.57678223 0 0-0.32958984 0.32958984-0.32958984 0.4119873-0.16479492 0.16479492-0.41198731 0.41198731-0.65917969 0.65917969-0.08239747 0.08239747-0.24719239 0.16479492-0.32958985 0.24719239-0.24719239 0.16479492-0.49438477 0.41198731-0.74157715 0.65917968l-1.81274414-1.97753906 1.73034669 2.05993652c-0.08239747 0.08239747-0.16479492 0.08239747-0.24719239 0.16479492-0.16479492 0.16479492-0.41198731 0.32958984-0.74157715 0.57678223l-0.32958984 0.24719238c-0.24719239 0.16479492-0.49438477 0.41198731-0.74157715 0.57678223-0.16479492 0.08239747-0.24719239 0.16479492-0.4119873 0.32958984-0.16479492 0.16479492-0.41198731 0.32958984-0.65917969 0.49438477l-0.08239747 0c-0.16479492 0.08239747-0.24719239 0.16479492-0.4119873 0.32958984-0.16479492 0.08239747-0.32958984 0.24719239-0.57678222 0.32958985l-0.57678223 0.32958984-0.57678223 0.32958984c-0.24719239 0.08239747-0.49438476 0.24719239-0.74157715 0.4119873-0.16479492 0.08239747-0.24719239 0.08239747-0.4119873 0.16479493-0.24719239 0.08239747-0.57678223 0.24719239-0.82397461 0.32958984l-0.08239746 0c-0.08239747 0-0.16479492 0.08239747-0.32958984 0.16479492-0.32958984 0.16479492-0.65917969 0.24719239-0.98876953 0.41198731-0.08239747 0-0.16479492 0.08239747-0.24719239 0.08239746-0.32958984 0.08239747-0.74157715 0.24719239-1.15356445 0.32958984l-0.16479493 0c-0.41198731 0.16479493-0.74157715 0.24719239-1.07116698 0.32958984-0.08239747 0-0.24719238 0-0.32958985 0.08239747 0 0-0.49438477 0.08239747-0.57678223 0.16479492-31.2286377 7.25097656-63.36364747 10.95886231-95.58105469 10.9588623-32.13500978 0-64.352417-3.70788575-95.58105468-11.04125975-0.08239747 0-0.74157715-0.16479492-0.74157715-0.16479494-0.41198731-0.08239747-0.74157715-0.16479492-1.15356445-0.32958984-0.08239747 0-0.16479493 0-0.24719239 0-0.41198731-0.08239747-0.74157715-0.24719239-1.07116699-0.32958984-0.08239747 0-0.16479492-0.08239747-0.24719239-0.08239746-0.41198731-0.08239747-0.74157715-0.24719239-1.15356445-0.41198731l-0.24719237-0.08239746c-0.32958984-0.16479492-0.65917969-0.24719239-0.98876954-0.4119873-0.16479492-0.08239747-0.24719239-0.08239747-0.41198731-0.16479493-0.24719239-0.16479492-0.57678223-0.24719239-0.8239746-0.4119873l-0.49438477-0.24719238-0.57678222-0.32958985c0 0-0.49438476-0.24719239-0.57678223-0.32958984-0.16479492-0.08239747-0.32958984-0.16479492-0.49438477-0.32958985l-0.65917968-0.49438476-0.49438477-0.32958984-0.65917969-0.49438477c-0.08239747-0.08239747-0.24719239-0.16479492-0.4119873-0.24719238-0.24719239-0.16479492-0.49438477-0.41198731-0.74157715-0.57678223-0.08239747-0.08239747-0.16479492-0.16479492-0.24719238-0.24719238-0.24719239-0.16479492-0.49438477-0.41198731-0.74157714-0.57678223l-0.41198731-0.4119873c-0.16479492-0.16479492-0.32958984-0.32958984-0.57678224-0.49438476-0.08239747-0.08239747-0.24719239-0.16479492-0.32958983-0.32958985l-0.16479493-0.16479492c-0.16479492-0.16479492-0.24719239-0.32958984-0.4119873-0.41198731-0.08239747 0-0.32958984-0.32958984-0.32958984-0.32958984l-0.49438477-0.57678223-0.08239747-0.16479492c-0.16479492-0.16479492-0.24719239-0.32958984-0.32958984-0.49438476-0.08239747-0.16479492-0.24719239-0.32958984-0.4119873-0.49438477-0.08239747-0.16479492-0.49438477-0.74157715-0.49438477-0.74157715-0.08239747-0.08239747-0.16479492-0.24719239-0.24719238-0.4119873-0.16479492-0.16479492-0.24719238-0.41198731-0.4119873-0.65917969-0.08239747-0.16479492-0.16479492-0.32958984-0.24719239-0.41198731-0.16479492-0.24719239-0.32958984-0.49438477-0.49438477-0.82397461l-0.16479492-0.32958984c-0.16479492-0.32958984-0.32958984-0.57678223-0.49438476-0.90637207l-0.08239746-0.24719238c-0.16479492-0.32958984-0.32958984-0.65917969-0.49438477-0.98876954l-0.08239746-0.24719237c-0.16479492-0.32958984-0.24719239-0.65917969-0.4119873-0.98876954l-0.08239747-0.32958984c-0.08239747-0.24719239-0.24719239-0.57678223-0.32958984-0.90637207l-0.08239746-0.4119873c-0.08239747-0.24719239-0.16479492-0.57678223-0.24719238-0.90637208 0-0.08239747-0.08239747-0.24719239-0.16479493-0.4119873-0.08239747-0.32958984-0.16479492-0.57678223-0.16479493-0.82397461l-0.16479491-0.65917969-0.16479492-0.65917968c0 0-0.08239747-0.65917969-0.16479492-0.82397462l-0.08239746-0.49438476c-0.08239747-0.32958984-0.08239747-0.65917969-0.08239747-0.98876953l0-0.32958984c0-0.41198731-0.08239747-0.74157715-0.08239745-1.071167 0-0.16479493 0-0.24719238 0-0.32958984 0-0.32958984 0-0.74157715 0-1.07116699l0-0.24719239c0-0.41198731 0-0.74157715 0-1.07116699 0-0.08239747 0-0.16479493 0-0.24719238 0.08239747-1.64794922 0.16479493-3.46069336 0.16479492-5.52062988 0-53.55834961-43.34106445-97.06420897-96.56982422-97.06420899-19.11621094 0-37.65563965 5.60302734-53.47595215 16.2322998-0.08239747 0.08239747-0.24719239 0.16479492-0.32958985 0.24719239l-0.4119873 0.24719238c-0.65917969 0.41198731-1.40075684 0.82397461-2.14233398 1.15356445l-0.24719239 0.16479492c-0.82397461 0.41198731-1.56555176 0.74157715-2.3071289 0.98876954-0.08239747 0-0.16479492 0.08239747-0.16479493 0.08239746-0.82397461 0.32958984-1.56555176 0.57678223-2.47192382 0.82397461L234.58422852 811.12400879c-0.74157715 0.16479492-1.48315431 0.41198731-2.30712891 0.49438476l-0.08239747 0-0.24719237 0c-0.90637207 0.16479493-1.73034668 0.24719238-2.5543213 0.32958984l-0.08239745 0c-0.82397461 0.08239747-1.64794922 0.08239747-2.5543213 0.08239747l-0.16479492 0c-0.90637207 0-1.73034668-0.08239747-2.47192383-0.16479492-0.08239747 0-0.24719238 0-0.4119873-0.08239747-0.74157715-0.08239747-1.4831543-0.24719239-2.22473145-0.41198729l-0.4119873-0.08239747c-0.65917969-0.16479492-1.40075684-0.32958984-2.14233398-0.57678223-0.08239747 0-0.49438476-0.16479492-0.49438478-0.16479492-0.74157715-0.24719239-1.4831543-0.49438476-2.05993652-0.82397461l-0.4119873-0.16479492c-0.74157715-0.32958984-1.4831543-0.74157715-2.05993652-1.071167-0.08239747 0-0.24719239-0.08239747-0.32958985-0.16479491-0.74157715-0.41198731-1.40075684-0.82397461-2.05993652-1.31835938-0.08239747-0.08239747-0.16479492-0.08239747-0.24719238-0.16479492-0.74157715-0.49438477-1.4831543-1.071167-2.14233399-1.64794922l-0.08239746-0.08239746c-0.74157715-0.57678223-1.40075684-1.23596192-1.97753906-1.89514161l-0.49438476-0.49438476c-45.23620606-47.79052734-79.1015625-106.29272461-97.8881836-169.1619873l-0.08239746-0.41198731 0 1e-8c-0.57678223-2.14233398-0.98876953-4.44946289-1.07116698-6.59179689 0-0.41198731 0-0.74157715-1e-8-1.15356445 0-2.80151368 0.41198731-5.52062988 1.23596192-8.15734863 0-0.08239747 0-0.16479493 0.08239745-0.16479492 0.08239747-0.24719239 0.16479492-0.49438476 0.24719239-0.8239746l0.08239746-0.16479493c0-0.08239747 0.08239747-0.24719239 0.08239745-0.32958984 0-0.16479493 0.32958984-0.82397461 0.32958985-0.82397461 0.08239747-0.16479492 0.08239747-0.32958984 0.16479492-0.49438477 0-0.08239747 0.08239747-0.24719239 0.16479492-0.32958984 0.08239747-0.24719239 0.24719239-0.49438476 0.32958985-0.74157716l0.08239746-0.24719237c1.89514161-3.95507813 4.61425781-7.41577149 8.07495117-10.05249024 1.64794922-1.23596192 3.29589844-2.38952637 5.10864258-3.21350098l0.49438477-0.4119873 0.24719238 0c33.37097168-16.06750489 54.95910645-50.34484864 54.95910645-87.58850098 0-37.40844728-21.75292969-71.85058594-55.45349122-87.83569335-2.63671875-1.23596192-5.02624512-2.80151367-7.08618164-4.77905273-2.30712891-2.14233398-4.28466797-4.61425781-5.76782227-7.41577149l-0.32958984-0.57678223 0-0.08239746c0-0.08239747-0.32958984-0.57678223-0.32958984-0.57678223-0.16479492-0.24719239-0.24719239-0.49438476-0.32958985-0.74157714l-0.24719238-0.57678223-0.16479492-0.49438477c-0.08239747-0.16479492-0.16479492-0.49438476-0.24719239-0.65917969l0-0.08239745c0 0-0.08239747-0.16479492-0.08239745-0.24719239-1.071167-3.04870606-1.56555176-6.09741212-1.56555176-9.31091308 0-0.41198731 0-0.74157715 0-1.15356445 0.08239747-2.30712891 0.49438477-4.53186036 1.15356445-6.83898927l0-0.16479492 0.08239746-0.16479492c18.95141602-63.19885254 53.06396484-121.86584473 98.71215821-169.821167l0-1.56555175 1.56555176 0c0.41198731-0.41198731 0.82397461-0.82397461 1.23596191-1.15356445l0.32958984-0.24719238 0 0c0.57678223-0.49438477 1.23596192-0.98876953 1.81274413-1.40075684l0.16479494-0.08239746c0.65917969-0.49438476 1.40075684-0.98876953 2.14233398-1.31835937l0.24719239-0.16479493c0.65917969-0.41198731 1.40075684-0.74157715 2.14233398-1.07116699l0.32958985-0.16479493c0.74157715-0.32958984 1.40075684-0.57678223 2.22473144-0.8239746l0.24719238-0.08239746c0.82397462-0.24719239 1.64794922-0.49438477 2.38952637-0.65917969 0.08239747 0 0.24719239-0.08239747 0.32958984-0.08239746 0.74157715-0.16479492 1.56555176-0.24719239 2.47192383-0.4119873 0 0 0.08239747 0 0.24719239 0 3.46069336-0.41198731 6.92138672-0.16479492 10.29968261 0.74157714l0.16479492-1e-8 0.32958984 0.16479493c0.74157715 0.16479492 1.56555176 0.49438476 2.30712891 0.74157715l0.08239747 1e-8 0.08239745 0c0.74157715 0.24719239 1.4831543 0.57678223 2.22473145 0.98876953 0.16479492 0.08239747 0.24719239 0.16479492 0.4119873 0.16479492 0.57678223 0.32958984 1.31835938 0.74157715 1.97753906 1.15356445 0.16479492 0.08239747 0.24719239 0.16479492 0.41198731 0.24719238l0.16479492 0.08239747c15.73791504 10.29968262 33.94775391 15.65551758 52.734375 15.65551757 53.22875976 0 96.56982422-43.50585938 96.56982422-97.06420899 0-1.56555175 0-2.88391113-0.08239746-4.11987304l0-0.08239746c0-0.32958984 0-0.74157715 0-1.15356447 0-0.98876953 0.08239747-1.97753906 0.16479492-2.96630858l0-0.08239747c0-0.41198731 0.08239747-0.74157715 0.16479492-1.15356445 0-0.08239747 0-0.16479493 0-0.32958984 0.08239747-0.32958984 0.08239747-0.65917969 0.16479492-0.98876953l0.08239747-0.4119873c0-0.16479493 0.08239747-0.32958984 0.16479492-0.49438477l0.08239746-0.49438476c0-0.16479493 0.08239747-0.24719239 0.08239746-0.41198731l0.24719238-0.74157716c0.08239747-0.16479492 0.08239747-0.41198731 0.16479492-0.57678222l0.08239747-0.4119873c0.16479492-0.32958984 0.24719239-0.65917969 0.32958984-0.98876953l0.08239746-0.16479492c0.16479492-0.32958984 0.24719239-0.65917969 0.41198731-0.98876953l0-0.08239747 0.08239746-0.16479492c0.16479492-0.32958984 0.32958984-0.65917969 0.49438477-1.07116699l0.08239746-0.24719239 0.08239745-0.08239745c0.16479492-0.24719239 0.32958984-0.57678223 0.49438477-0.90637208l0.16479492-0.24719238c0.16479492-0.32958984 0.32958984-0.65917969 0.57678223-0.98876953 0.08239747-0.08239747 0.16479492-0.24719239 0.24719238-0.4119873 0.16479492-0.24719239 0.32958984-0.49438477 0.49438477-0.74157715 0.16479492-0.24719239 0.32958984-0.41198731 0.49438476-0.65917969l0.24719239-0.41198731c0.24719239-0.32958984 0.49438477-0.57678223 0.65917969-0.82397461l0.16479492-0.24719237c1.73034668-2.05993653 3.70788575-3.87268067 5.85021972-5.35583497l0.08239747-0.08239746 0.08239745 0c0.16479492-0.16479492 0.41198731-0.24719238 0.57678223-0.41198731l0.57678222-0.32958984 0.8239746-0.49438476c0.16479492-0.08239747 0.24719239-0.16479492 0.41198732-0.24719238 0.16479492-0.08239747 0.32958984-0.16479492 0.49438476-0.24719239 0.24719239-0.16479492 0.57678223-0.24719239 0.82397462-0.41198729l0.08239745-0.08239748 0.08239747 0 0 0c0.32958984-0.16479492 0.74157715-0.32958984 1.07116699-0.49438476l0.08239746 0 0.08239746 0c1.31835938-0.49438477 2.63671875-0.98876953 3.95507812-1.23596191 31.31103516-7.41577149 63.69323731-11.12365723 96.07543945-11.12365723 32.46459961 0 64.76440431 3.70788575 96.07543946 11.12365723 1.40075684 0.32958984 2.71911622 0.74157715 4.03747559 1.23596191l0.24719238 0.08239746 0.08239747 0.08239746c0.32958984 0.16479492 0.57678223 0.24719239 0.90637206 0.41198732 0 0 0.08239747 0.08239747 0.08239747 0.08239745l0.16479492 0.08239746c0.32958984 0.08239747 0.57678223 0.24719239 0.82397461 0.4119873 0.16479492 0.08239747 0.32958984 0.16479492 0.49438476 0.24719239 0.16479492 0.08239747 0.32958984 0.16479492 0.49438477 0.32958984l0.08239746 0.08239746c0.16479492 0.08239747 0.41198731 0.16479493 0.57678223 0.32958984l0.49438476 0.32958985c0.24719239 0.16479492 0.49438477 0.32958984 0.74157715 0.49438476l0.24719238 0.16479492c0.24719239 0.16479492 0.49438477 0.32958984 0.65917968 0.49438477l0.16479493 0.08239747 0.24719238 0.24719237c1.071167 0.82397462 2.05993653 1.64794922 2.88391113 2.5543213 0.32958984 0.32958984 0.57678223 0.65917969 0.90637207 0.90637206l0.08239747 0.08239747-0.08239747 0 0.08239747 0.08239745c0.24719239 0.24719239 0.49438477 0.57678223 0.74157714 0.82397461 0.08239747 0.08239747 0.24719239 0.24719239 0.32958985 0.41198731l0.08239746 0.08239746c0.08239747 0.16479492 0.32958984 0.41198731 0.49438477 0.57678223 0.16479492 0.24719239 0.32958984 0.49438477 0.49438476 0.74157714l0.08239746 0.08239747c0.08239747 0.08239747 0.16479492 0.16479492 0.16479492 0.32958984 0.16479492 0.24719239 0.41198731 0.57678223 0.57678223 0.82397461l0 0 0.16479493 0.16479493c1.15356445 1.89514161 2.05993653 3.87268067 2.80151367 5.93261718l0.08239745 0.24719238c0.08239747 0.24719239 0.16479493 0.41198731 0.16479493 0.65917969l0.16479492 0.65917969c0.08239747 0.24719239 0.08239747 0.41198731 0.16479492 0.57678223l0 0.16479492c0.08239747 0.16479492 0.08239747 0.41198731 0.16479492 0.65917969 0 0.16479493 0.08239747 0.32958984 0.08239747 0.57678222 0.08239747 0.24719239 0.16479493 0.90637207 0.16479492 0.90637207l0 0.24719238-2.63671875 0.49438477 2.63671875-0.4119873c0.08239747 0.32958984 0.08239747 0.74157715 0.16479491 1.07116698l1e-8 0.16479493c0.08239747 0.41198731 0.08239747 0.90637207 0.08239746 1.31835937l0 0.08239747c0 0.41198731 0.08239747 0.90637207 0.08239746 1.31835937l0 0c0 0.49438477 0 0.90637207 0 1.40075683l0 0.08239747c-0.08239747 1.23596192-0.08239747 2.55432129-0.08239746 4.11987305 0 53.47595215 43.34106445 97.06420897 96.56982422 97.06420898 18.78662109 0 36.99645997-5.43823242 52.65197754-15.65551758l0.16479492-0.08239746c0.08239747 0 0.16479492-0.08239747 0.32958984-0.16479493l0.08239746-0.08239745c0.74157715-0.49438477 1.40075684-0.82397461 1.97753906-1.15356446l0.41198731-0.24719238c0.74157715-0.32958984 1.40075684-0.65917969 2.14233399-0.90637207 0.08239747 0 0.16479492-0.08239747 0.32958984-0.08239746 0.74157715-0.24719239 1.56555176-0.57678223 2.38952636-0.74157715l0.08239747 0c0.82397462-0.24719239 1.73034668-0.41198731 2.55432129-0.57678223l0.24719238 0c1.64794922-0.32958984 3.3782959-0.41198731 5.10864258-0.4119873l0.24719238 0c0.82397461 0 1.64794922 0.08239747 2.38952637 0.16479492 0.08239747 0 0.16479493 0 0.32958984 0 0.90637207 0.16479493 1.64794922 0.24719239 2.38952637 0.4119873l0.4119873 0.08239747c0.57678223 0.16479492 1.40075684 0.32958984 2.22473145 0.57678222 0.08239747 0 0.41198731 0.16479493 0.4119873 0.16479492 0.82397462 0.24719239 1.4831543 0.49438476 2.14233399 0.82397461l0.4119873 0.16479492c0.74157715 0.32958984 1.4831543 0.65917969 2.14233398 1.07116699l0.32958985 0.16479493c0.74157715 0.41198731 1.40075684 0.82397461 2.05993653 1.31835939l0.08239745 0.08239744c0.82397461 0.57678223 1.56555176 1.15356445 2.14233399 1.64794923l0.16479492 0.08239746c0.57678223 0.49438477 1.15356445 1.071167 1.73034668 1.64794922l0.16479492 0.16479492 0.16479493 0.24719238c45.9777832 48.12011719 80.33752442 107.03430176 99.28894042 170.48034668 0.82397461 2.71911622 1.23596192 5.43823242 1.23596192 8.2397461l0 0.32958984c0 0.08239747 0 0.74157715 0 0.74157714 0 0.24719238 0 0.41198731 0 0.57678223 0 0.41198731-0.08239747 0.82397461-0.08239747 1.23596192l0 0.24719238 0 0c-0.16479492 1.15356445-0.32958984 2.30712891-0.57678222 3.54309082l0 0-0.08239746 0.4119873c-0.08239747 0.32958984-0.16479492 0.74157715-0.32958985 1.07116699l-0.08239745 0.24719238c-0.08239747 0.32958984-0.16479492 0.57678223-0.32958985 0.90637208 0 0.08239747-0.08239747 0.24719239-0.16479492 0.41198731-0.08239747 0.16479492-0.16479493 0.41198731-0.24719239 0.65917968-0.08239747 0.16479492-0.16479493 0.41198731-0.24719237 0.57678223-0.08239747 0.08239747-0.08239747 0.24719239-0.16479493 0.4119873-0.16479492 0.24719239-0.24719239 0.57678223-0.41198731 0.82397461-0.08239747 0.08239747-0.08239747 0.24719239-0.16479492 0.32958985-1.73034668 3.62548828-4.28466797 6.83898926-7.33337402 9.39331054-1.81274413 1.4831543-3.7902832 2.80151367-6.01501466 3.79028321-33.70056153 15.90270997-55.45349122 50.42724608-55.4534912 87.83569335 0 37.24365234 21.58813477 71.52099609 54.95910644 87.58850098l0.24719239 0 0.57678222 0.41198731c1.81274414 0.90637207 3.54309082 1.97753906 5.19104005 3.29589844 3.29589843 2.63671875 6.01501465 6.01501465 7.91015625 9.88769531l0 0.08239745c0.16479492 0.32958984 0.24719239 0.57678223 0.4119873 0.90637208 0.08239747 0.24719239 0.16479492 0.32958984 0.24719239 0.49438477 0.08239747 0.16479492 0.16479492 0.32958984 0.16479492 0.49438476l-2.47192383 1.07116699 2.55432128-0.90637207c0.08239747 0.24719239 0.16479493 0.41198731 0.24719239 0.65917969 0 0 0.16479492 0.49438476 0.24719238 0.57678222l0 0 0.32958984 1.071167C913.70410156 620.29148925 914.11608887 622.92820801 914.11608887 625.56492675L914.11608887 625.56492675zM785.98803711 512.10362305c0-50.59204101 24.55444336-97.64099122 65.91796875-126.31530763-14.91394043-40.62194825-36.66687012-77.94799805-64.84680176-110.98937987-19.52819824 8.73413086-40.37475586 13.10119629-61.96289062 13.10119629-38.06762695 0-74.56970215-14.08996583-102.74963379-39.79797364-27.52075195-25.04882813-44.90661622-59.0789795-49.19128418-95.82824707-20.51696778-3.54309083-41.52832031-5.35583497-62.45727539-5.35583496-20.92895508 0-41.85791016 1.81274413-62.45727539 5.35583496-4.28466797 36.83166504-21.67053223 70.77941895-49.10888672 95.82824707C370.95202636 273.81016602 334.44995117 287.90013183 296.38232422 287.90013183c-21.58813477 0-42.43469239-4.36706543-61.96289063-13.10119628-28.17993164 33.04138184-49.93286133 70.36743164-64.84680176 110.98937988 41.28112793 28.67431641 65.91796875 75.80566405 65.91796876 126.31530762 0 50.59204101-24.55444336 97.64099122-65.91796875 126.31530761C184.23937988 678.54649414 205.66271972 715.46055665 233.3482666 748.25474609c19.85778809-9.0637207 41.11633301-13.59558106 63.03405762-13.59558106 38.3972168 0 75.06408692 14.3371582 103.32641601 40.37475587 27.60314942 25.46081543 44.82421875 59.82055664 48.69689942 97.06420898 20.51696778 3.54309083 41.44592286 5.35583497 62.29248046 5.35583496 20.84655761 0 41.7755127-1.81274413 62.29248047-5.35583496 3.87268067-37.24365234 21.17614747-71.60339356 48.69689942-97.06420899 28.26232911-26.03759766 65.01159668-40.37475586 103.40881348-40.37475586 22.00012208 0 43.17626953 4.61425781 63.03405761 13.59558106 27.60314942-32.79418945 49.10888672-69.70825195 63.77563477-109.75341796C810.62487793 609.6622168 785.98803711 562.69566405 785.98803711 512.10362305L785.98803711 512.10362305z" p-id="2292"></path></svg>