<?xml version="1.0" standalone="no"?><!DOCTYPE svg PUBLIC "-//W3C//DTD SVG 1.1//EN" "http://www.w3.org/Graphics/SVG/1.1/DTD/svg11.dtd"><svg t="1509008280046" class="icon" style="" viewBox="0 0 1024 1024" version="1.1" xmlns="http://www.w3.org/2000/svg" p-id="4168" xmlns:xlink="http://www.w3.org/1999/xlink" width="200" height="200"><defs><style type="text/css"></style></defs><path d="M452.9375 94.34375c-16.875 4.21875-37.96875 21.09375-42.1875 37.96875l-4.21875 12.65625c-8.4375 33.75-29.53125 59.0625-63.28125 80.15625-29.53125 16.875-67.5 21.09375-101.25 12.65625l-12.65625-4.21875c-16.875-4.21875-42.1875 0-54.84374999 16.875 0 0-12.65625 12.65625-33.75000002 50.625-21.09375 37.96875-25.3125 50.625-25.31249999 50.625-8.4375 16.875 0 42.1875 12.65625 54.84375l8.4375 8.4375c21.09375 25.3125 37.96875 59.0625 37.96875001 92.8125 0 37.96875-12.65624999 71.71875-37.96875001 92.8125L132.3125 613.25C119.65625 630.125 115.4375 651.21875 119.65625 672.3125c0 0 4.21875 16.875 25.3125 50.625 21.09375 37.96875 33.75 50.625 33.75000001 50.625 12.65625 12.65625 37.96875 21.09375 54.84374999 12.65625l12.65625-4.21875c33.75-8.4375 67.5-4.21874999 101.25 12.65625 29.53125 21.09375 50.625 50.625 63.28125 84.375L410.75 891.6875c4.21875 16.875 21.09375 37.96875 42.1875 37.96875 0 0 16.875 4.21875 59.0625 4.21875s59.06250001-4.21875 59.0625-4.21875c16.875-4.21875 37.96875-21.09375 42.1875-37.96875l4.21875-12.65625c8.4375-33.75 29.53125-63.28125 63.28125-80.15625 29.53125-16.875 67.5-21.09375 101.25-12.65625l12.65625 4.21875c16.875 4.21875 42.1875 0 54.84374999-16.875 0 0 12.65625-12.65625 33.75000002-50.625s25.3125-50.625 25.31249999-50.625c8.4375-16.875 0-42.1875-12.65625-54.84375l-8.4375-8.4375c-25.3125-25.3125-37.96875-59.0625-37.96875001-92.8125 0-37.96875 12.65624999-71.71875 37.96875001-92.8125l8.4375-8.4375c12.65625-12.65625 21.09375-37.96875 12.65625-54.84375 0 0-4.21875-16.875-25.31249999-50.625-21.09375-37.96875-33.75-50.625-33.75000002-50.625-12.65625-12.65625-37.96875-21.09375-54.84374999-16.875l-12.65625 4.21875c-33.75 8.4375-67.5 4.21874999-101.25-12.65625-29.53125-16.875-54.84375-46.40625-63.28125-80.15625l-4.21875-12.65625c-4.21875-16.875-21.09375-37.96875-42.1875-37.96875 0 0-16.875-4.21875-59.0625-4.21875-42.1875-8.4375-59.06250001-4.21875-59.0625-4.21875M680.75 512c0 92.8125-75.9375 168.75-168.75 168.75s-168.75-75.9375-168.75-168.75 75.9375-168.75 168.75-168.75 168.75 75.9375 168.75 168.75m0 0" fill="" p-id="4169"></path></svg>