<?xml version="1.0" standalone="no"?><!DOCTYPE svg PUBLIC "-//W3C//DTD SVG 1.1//EN" "http://www.w3.org/Graphics/SVG/1.1/DTD/svg11.dtd"><svg t="1510293184944" class="icon" style="" viewBox="0 0 1024 1024" version="1.1" xmlns="http://www.w3.org/2000/svg" p-id="2055" xmlns:xlink="http://www.w3.org/1999/xlink" width="200" height="200"><defs><style type="text/css"></style></defs><path d="M512.00082398 90.13076782a390.83093261 390.83093261 0 0 0-392.91394044 389.16320801 380.20578003 380.20578003 0 0 0 112.08279419 270.83221435 14.58352661 14.58352661 0 0 1 4.16683961 9.37518311 395.83081055 395.83081055 0 0 1-11.45819093 62.49929809c-11.25054932 48.54116822-20.83337402 87.91644287 0 104.16604616a23.95788574 23.95788574 0 0 0 18.74954224 7.49981689c22.49945068 0 52.29107666-26.24935913 86.04107666-56.04098511a479.16348266 479.16348266 0 0 1 38.12530518-32.08309937 7.4998169 7.4998169 0 0 1 6.04138183 0A407.08053589 407.08053589 0 0 0 512 870.54183959a389.99707031 389.99707031 0 1 0 0-780.41107177z m0 738.95361327a367.28915406 367.28915406 0 0 1-134.79071047-26.2501831c-18.74954224-7.4998169-39.37445068 11.24972534-74.7913513 43.12435914-14.58270263 12.70898438-39.58291626 34.16693115-53.12411499 43.9590454 0 0-1.24996948 0-1.24996949-1.25079345a481.03884887 481.03884887 0 0 1 11.24972535-59.79089355c13.12509156-54.16644287 18.74954224-83.33267212 1.87536621-101.04153443A350.62261963 350.62261963 0 0 1 511.16778565 127.21374512a354.1640625 354.1640625 0 0 1 356.24789428 352.08105469A352.91409302 352.91409302 0 0 1 512 829.08438111z" p-id="2056"></path><path d="M681.58303833 380.12863159h-49.9987793l11.24890138-67.29153442a13.12509156 13.12509156 0 0 0-13.12426759-16.875h-3.74990844a20.83337402 20.83337402 0 0 0-18.75036621 16.875l-11.24972535 67.29153442H463.25119018l11.24972535-67.29153442a13.12509156 13.12509156 0 0 0-13.12426758-16.875h-3.74990845a20.83337402 20.83337402 0 0 0-18.75036621 16.875l-11.24972534 67.29153442h-85.83343506a16.66653443 16.66653443 0 0 0-16.875 16.875v3.74990844a16.66653443 16.66653443 0 0 0 16.875 16.875h80.41662598L399.71038818 548.46087646h-57.91717529a16.66653443 16.66653443 0 0 0-16.875 16.875v3.95837403a16.66653443 16.66653443 0 0 0 16.875 16.875h50.41735838l-9.37518309 66.45767212a13.12509156 13.12509156 0 0 0 13.12509156 16.875h3.74908447a20.83337402 20.83337402 0 0 0 18.75036621-16.875l11.24972533-67.29153443h132.91534425l-11.45736695 67.29153443a13.12509156 13.12509156 0 0 0 13.12509156 16.875h3.74908447a20.83337402 20.83337402 0 0 0 18.75036621-16.875l11.45819093-66.66613769h83.33267211a16.66653443 16.66653443 0 0 0 16.875-16.875v-3.74990846a16.66653443 16.66653443 0 0 0-16.875-16.875h-79.79122925l22.50027466-131.040802h57.29095459a16.66653443 16.66653443 0 0 0 16.875-16.875v-3.74908447a16.66653443 16.66653443 0 0 0-16.875-16.875zM568.04263305 548.46087646H435.33493042l22.49945068-131.040802h132.91616822l-22.70874024 131.040802z" p-id="2057"></path></svg>