<?xml version="1.0" standalone="no"?><!DOCTYPE svg PUBLIC "-//W3C//DTD SVG 1.1//EN" "http://www.w3.org/Graphics/SVG/1.1/DTD/svg11.dtd"><svg t="1510293742321" class="icon" style="" viewBox="0 0 1024 1024" version="1.1" xmlns="http://www.w3.org/2000/svg" p-id="2072" xmlns:xlink="http://www.w3.org/1999/xlink" width="200" height="200"><defs><style type="text/css"></style></defs><path d="M511.96132812 116.4921875c-218.43457031 0-395.46914063 177.03457031-395.46914062 395.46914063 0 73.30078125 20.31328125 141.65859374 54.99492188 200.5163086l-38.92851563 169.77392577 155.63847656-44.33554687c63.64599609 43.79501953 140.73134766 69.59267578 223.76513672 69.59267578 218.43457031 0 395.46914063-177.03457031 395.46914063-395.46914063 0-218.51191406-177.03457031-395.54648437-395.46914063-395.54648437zM553.36220703 543.63007813l-88.05410155 0 32.59599609-89.59921876 88.05410154 0-32.59599608 89.59921875zM533.82060547 597.38837891l-88.05410156 0-23.09414064 63.49130859c-5.0203125 13.82519531-20.31328125 21.00849609-34.37226561 15.91171875-13.98076172-5.09765625-21.1640625-20.5461914-16.14375-34.29492187l16.45224609-45.10810547-35.14482422 0c-14.98447266 0-27.11162109-11.89511719-27.11162109-26.87958985 0-14.82978516 12.28095703-26.87958985 27.11162109-26.87958984l54.68554688 0 32.59599609-89.59921875-50.97832031 0c-14.98447266 0-27.11162109-11.89511719-27.1116211-26.87958984 0-14.82978516 12.28095703-26.87958985 27.1116211-26.87958985l70.59726562 0 17.76533204-48.81533202c5.0203125-13.82519531 20.31328125-21.00849609 34.37226562-15.91171877 13.98076172 5.09765625 21.1640625 20.5461914 16.14287109 34.29492189l-11.04521484 30.43300781 88.05410156 0 17.76533204-48.81533203c5.0203125-13.82519531 20.31328125-21.00849609 34.37226562-15.91171875 13.98076172 5.09765625 21.1640625 20.5461914 16.14375 34.29492187l-11.04521485 30.43300781 17.84267578-1e-8c14.98447266 0 27.11162109 11.89511719 27.1116211 26.87958986 0 14.82978516-12.28007813 26.87958985-27.1116211 26.87958983l-37.38339842 1e-8-32.59599611 89.59921877 33.67705079-2e-8c14.98447266 0 27.11162109 11.89511719 27.11162109 26.87958985 0 14.82978516-12.28007813 26.87958985-27.11162109 26.87958985l-53.21777344 0-23.09414063 63.49130858c-5.0203125 13.82519531-20.31328125 21.00849609-34.37226562 15.91171875-13.98076172-5.09765625-21.1640625-20.5461914-16.1428711-34.29492187l16.22109375-45.10722656z" p-id="2073"></path></svg>