<?xml version="1.0" standalone="no"?><!DOCTYPE svg PUBLIC "-//W3C//DTD SVG 1.1//EN" "http://www.w3.org/Graphics/SVG/1.1/DTD/svg11.dtd"><svg t="1515641635007" class="icon" style="" viewBox="0 0 1024 1024" version="1.1" xmlns="http://www.w3.org/2000/svg" p-id="3123" xmlns:xlink="http://www.w3.org/1999/xlink" width="200" height="200"><defs><style type="text/css"></style></defs><path d="M529.38071443 149.39484548C525.10795545 144.25305081 518.73502684 141.21142578 512 141.21142578s-13.10795545 3.04162503-17.38071443 8.18341971l-271.13914488 309.95607375c-9.55939293 10.93536616-5.5038929 19.84298229 8.98003578 19.8429823h122.02709914c14.48392868 0 26.36075019 11.87682152 26.36075019 26.3607502v203.28193903c0 14.48392868 11.87682152 26.36075019 26.36075019 26.3607502h209.43760873c14.55634833-0.07241965 26.36075019-11.80440188 26.36075019-26.3607502V505.55465173c0-14.48392868 11.87682152-26.36075019 26.3607502-26.36075019H791.53982353c14.48392868 0 18.61184836-8.90761614 8.98003579-19.8429823L529.38071443 149.39484548zM206.09942627 821.81123447c0-14.48392868 11.87682152-26.36075019 26.3607502-26.36075019h559.07964706c14.48392868 0 26.36075019 11.87682152 26.3607502 26.36075019v34.61658956c-0.07241965 14.55634833-11.80440188 26.36075019-26.3607502 26.36075019H232.46017647c-14.55634833-0.07241965-26.36075019-11.80440188-26.3607502-26.36075019v-34.61658956z m5.72115183-24.76751804" fill="" p-id="3124"></path></svg>