<?xml version="1.0" standalone="no"?><!DOCTYPE svg PUBLIC "-//W3C//DTD SVG 1.1//EN" "http://www.w3.org/Graphics/SVG/1.1/DTD/svg11.dtd"><svg t="1515224680890" class="icon" style="" viewBox="0 0 1024 1024" version="1.1" xmlns="http://www.w3.org/2000/svg" p-id="2678" xmlns:xlink="http://www.w3.org/1999/xlink" width="200" height="200"><defs><style type="text/css"></style></defs><path d="M845.92053976 619.91502103L644.49535532 619.91502103l-3.03038252 8.31964032c-10.76232788 29.55087049-38.78873245 49.40603421-69.74012246 49.4060342L456.27518796 677.64069555c-30.95223293 0-58.9786375-19.85516289-69.74012247-49.4060342l-3.02953959-8.31964033L182.07949854 619.91502103c-30.84599295 0-55.94150913 25.10985086-55.94150913 55.97523605l0 144.24757498c0 30.86369934 25.09551618 55.97439312 55.94150913 55.97439313l663.8410404 0c30.84683588 0 55.94235205-25.10985086 55.94235205-55.97439313L901.86289182 675.89025708C901.86289182 645.02571481 876.76737482 619.91502103 845.92053976 619.91502103zM876.56754202 820.13783289c0 16.91668653-13.74802295 30.67904333-30.64700226 30.67904333L182.07949854 850.81687622c-16.89898013 0-30.64615933-13.76235682-30.64615933-30.67904333L151.43333921 675.89025708c0-16.91668653 13.74802295-30.67988626 30.64615933-30.67988626l184.14508721 0c16.35597345 34.86458057 51.49627322 57.72567453 90.05060221 57.72567452l115.45050613 0c38.55432898 0 73.69378582-22.86109397 90.0506022-57.72567452l184.14508722 0c16.89898013 0 30.64700227 13.76235682 30.64700226 30.67988626L876.56838494 820.13783289z" p-id="2679"></path><path d="M311.96184497 414.30935937l102.80283123 1e-8 0 189.39134262c0 22.88891876 18.62159299 41.50966882 41.51051176 41.50966882l115.45050613 0c22.88891876 0 41.51051175-18.62159299 41.51051175-41.50966882L613.23620584 414.30935937l102.80283124 1e-8c16.67047879 0 31.66471884-10.08356973 38.22801856-25.69838873 6.68724692-15.42341794 3.03122625-33.53994745-9.10632597-45.17496497L543.39068548 141.66596149c-7.38624188-7.89383579-18.08027298-12.41580102-29.39066674-12.41580102-11.30955084 0-22.00358194 4.52112232-29.3889809 12.41495727L282.84015155 343.43684861c-12.13839514 11.63501753-15.79357287 29.75407663-9.10463929 45.17749456C280.29881199 404.22747632 295.29220911 414.30935937 311.96184497 414.30935937zM300.39006504 361.65287305l0.11720214-0.1112992L502.66095725 159.38788378l0.35835067-0.37352828c2.57928278-2.79850864 6.68387439-4.46884524 10.98071164-4.46884524 4.2985231 0 8.40311555 1.67033662 10.98071164 4.46884524l0.17538135 0.19055814 202.22198684 202.22198684 0.23103096 0.22597174c4.57761484 4.3491135 5.9562117 11.15440631 3.43342226 16.93354999l-0.08010186 0.18634268c-2.59867584 6.2218125-8.45707846 10.24208679-14.9242566 10.2420868L587.94085605 389.01485251l0 214.68669241c0 8.78929102-7.42587176 16.21431903-16.21516278 16.21431903L456.27518796 619.91586395c-8.78929102 0-16.21516279-7.42587176-16.21516279-16.21431903L440.06002517 389.01400958 311.96184497 389.01400958c-6.46717813 0-12.32558076-4.02027429-14.92341284-10.24124386l-0.08010187-0.18718561C294.43385334 372.80643561 295.81329312 366.00114361 300.39006504 361.65287305z" p-id="2680"></path><path d="M687.17619941 748.01404497c-15.77923901 0-28.86283686 13.08359783-28.86283686 28.86283687s13.08359783 28.86283686 28.86283686 28.86283685 28.86283686-13.08359783 28.86283684-28.86283685S702.95543841 748.01404497 687.17619941 748.01404497z" p-id="2681"></path><path d="M802.62670471 748.01404497c-15.77923901 0-28.86283686 13.08359783-28.86283684 28.86283687s13.08359783 28.86283686 28.86283684 28.86283685 28.86283686-13.08359783 28.86283686-28.86283685S818.40594455 748.01404497 802.62670471 748.01404497z" p-id="2682"></path></svg>