<?xml version="1.0" standalone="no"?><!DOCTYPE svg PUBLIC "-//W3C//DTD SVG 1.1//EN" "http://www.w3.org/Graphics/SVG/1.1/DTD/svg11.dtd"><svg t="1515299183162" class="icon" style="" viewBox="0 0 1024 1024" version="1.1" xmlns="http://www.w3.org/2000/svg" p-id="2831" xmlns:xlink="http://www.w3.org/1999/xlink" width="200" height="200"><defs><style type="text/css"></style></defs><path d="M512.478125 903.34443359c-212.76035156 0-385.228125-173.06015625-385.228125-386.54648437S299.71689453 130.25585937 512.478125 130.25585937c212.7515625 0 385.228125 173.05664063 385.228125 386.54208985S725.2296875 903.34443359 512.478125 903.34443359zM510.39511719 190.38183594c-179.56845703 0-325.11533203 146.05400391-325.11533203 326.23154297 0 180.17138672 145.546875 326.23154297 325.11533203 326.23154297 179.53857422 0 325.10654297-146.06103516 325.10654297-326.23154297C835.50166016 336.43583984 689.9328125 190.38183594 510.39511719 190.38183594zM688.79023437 460.9390625L505.43369141 645.38544922l0-0.01757813c-5.54589844 5.57666016-13.17216797 9.00439453-21.64306641 9.00439454-8.4375 0-16.09716797-3.46289063-21.62548828-9.00439454l-121.82080078-122.68652343c-5.52568359-5.53710938-8.93583984-13.18798828-8.93583985-21.63867188 0-16.96289063 13.70390625-30.68701172 30.55957032-30.68701172 8.45683594 0 16.1015625 3.4453125 21.64482422 9.00878907l100.17773437 100.91162109 161.73632813-162.67851563c5.53271484-5.55908203 13.20556641-8.98417969 21.63867187-8.98417968 16.86181641 0 30.54638672 13.72412109 30.54638672 30.64746093C697.71113281 447.73085938 694.30097656 455.39316406 688.79023437 460.9390625z" p-id="2832"></path></svg>