<?xml version="1.0" standalone="no"?><!DOCTYPE svg PUBLIC "-//W3C//DTD SVG 1.1//EN" "http://www.w3.org/Graphics/SVG/1.1/DTD/svg11.dtd"><svg t="1515224732812" class="icon" style="" viewBox="0 0 1024 1024" version="1.1" xmlns="http://www.w3.org/2000/svg" p-id="2809" xmlns:xlink="http://www.w3.org/1999/xlink" width="200" height="200"><defs><style type="text/css"></style></defs><path d="M722.9375 783.20535703q0-12.2419086-8.94601015-21.18791877t-21.18791877-8.94600934-21.18791794 8.94600934-8.94601017 21.18791876 8.94601017 21.18791877 21.18791793 8.94601016 21.18791878-8.94601016 8.94601015-21.18791877z m120.53571405-1e-8q0-12.2419086-8.94601016-21.18791876t-21.18791794-8.94600934-21.18791876 8.94600934-8.94601017 21.18791876 8.94601017 21.18791877 21.18791876 8.94601016 21.18791794-8.94601016 8.94601016-21.18791877z m60.26785702-105.46875v150.66964299q0 18.83370547-13.18359375 32.01729922t-32.0172984 13.18359375H165.45982107q-18.83370547 0-32.01729839-13.18359375t-13.18359375-32.01729922v-150.66964298q0-18.83370547 13.18359375-32.01729923t32.0172984-13.18359375h201.04980468q9.88769531 26.3671875 33.19440627 43.31752268t52.02811095 16.95033435h120.53571404q28.72140079 0 52.02811094-16.95033435t33.19440628-43.31752268h201.04980468q18.83370547 0 32.0172984 13.18359375t13.18359375 32.01729923z m-153.02385543-305.10602655q-8.00432501 18.83370547-27.77971564 18.83370548h-120.53571405v210.9375q0 12.2419086-8.94601016 21.18791794t-21.18791876 8.94601016H451.73214298q-12.2419086 0-21.18791877-8.94601016t-8.94601016-21.18791794V391.46428595H301.0625q-19.77539063 0-27.77971564-18.83370547-8.00432501-18.36286249 6.59179689-32.48814222L490.81208124 129.20493826q8.47516718-8.94601015 21.18791876-8.94600934t21.18791876 8.94600934l210.93749999 210.9375q14.59612189 14.1252789 6.59179689 32.48814221z" p-id="2810"></path></svg>