<?xml version="1.0" standalone="no"?><!DOCTYPE svg PUBLIC "-//W3C//DTD SVG 1.1//EN" "http://www.w3.org/Graphics/SVG/1.1/DTD/svg11.dtd"><svg t="1516686999499" class="icon" style="" viewBox="0 0 1024 1024" version="1.1" xmlns="http://www.w3.org/2000/svg" p-id="3059" xmlns:xlink="http://www.w3.org/1999/xlink" width="200" height="200"><defs><style type="text/css"></style></defs><path d="M724.87713623 380.23492432c-40.1885376-92.15002441-131.98919677-156.62438965-238.94439698-156.62438965C341.9678955 223.61053467 225.25683594 340.31829834 225.25683594 484.28479003c0 0.78607178 0.1104126 1.54412842 0.11700439 2.3269043-74.00115967 12.38598633-130.45495606 76.55877685-130.45495605 154.07830811 0 86.3805542 70.02630615 156.4052124 156.40686035 156.4052124l495.28125 0 0-1.80120849c102.8435669-12.85235596 182.47576904-100.41119385 182.47576904-206.74017335C929.08276367 474.84698487 838.02862549 382.56512451 724.87713623 380.23492432zM564.13452148 510.35369873l0 182.47247315-104.27069091-1e-8L459.86383057 510.35369873 381.66369628 510.35369873 512 380.01574707l130.33795166 130.33795166L564.13452148 510.35369873z" p-id="3060"></path></svg>