<?xml version="1.0" standalone="no"?><!DOCTYPE svg PUBLIC "-//W3C//DTD SVG 1.1//EN" "http://www.w3.org/Graphics/SVG/1.1/DTD/svg11.dtd"><svg t="1515297547049" class="icon" style="" viewBox="0 0 1024 1024" version="1.1" xmlns="http://www.w3.org/2000/svg" p-id="2707" xmlns:xlink="http://www.w3.org/1999/xlink" width="200" height="200"><defs><style type="text/css"></style></defs><path d="M537.03125 538.94375001v279.9c0 14.23125-12.0375 25.875-25.9875 25.875a25.7625 25.7625 0 0 1-25.9875-25.875V539.67500001l-29.19375 29.1375a26.2125 26.2125 0 0 1-36.675-0.16875 25.7625 25.7625 0 0 1-0.16875-36.675L491.975 459.12500001a26.2125 26.2125 0 0 1 37.6875-1.18125L603.6875 531.80000001a25.7625 25.7625 0 0 1-0.16875 36.675 26.2125 26.2125 0 0 1-36.675 0.16875l-29.8125-29.8125zM782.5625 373.62500001A177.75 177.75 0 0 1 905.75 542.82500001c0 85.10625-59.85 157.8375-139.725 175.33125h-50.79375a25.425 25.425 0 0 1 0-50.79375h38.08125a126.95625 126.95625 0 0 0-14.23125-250.93125 215.8875 215.8875 0 0 0-214.36875-191.1375 215.94375 215.94375 0 0 0-214.36875 191.3625 126.95625 126.95625 0 0 0-39.65625 250.70625h38.08125a25.425 25.425 0 0 1 0 50.79375H270.6875a177.1875 177.1875 0 0 1-2.1375-350.775A266.625 266.625 0 0 1 524.7125 174.50000001a266.625 266.625 0 0 1 257.79375 199.125z" p-id="2708"></path></svg>