<?xml version="1.0" standalone="no"?><!DOCTYPE svg PUBLIC "-//W3C//DTD SVG 1.1//EN" "http://www.w3.org/Graphics/SVG/1.1/DTD/svg11.dtd"><svg t="1509008054701" class="icon" style="" viewBox="0 0 1024 1024" version="1.1" xmlns="http://www.w3.org/2000/svg" p-id="3552" xmlns:xlink="http://www.w3.org/1999/xlink" width="200" height="200"><defs><style type="text/css"></style></defs><path d="M590.80859404 957.69335938L418.37890625 957.69335938c-163.60546903 0-292.8515625 0-292.8515625-85.28320284l0-17.05078125c0-159.78515625 131.34960967-289.74609404 292.8515625-289.74609404L590.80859404 565.61328125c161.45507813 0 292.8515625 129.96093779 292.8515625 289.74609404l0 17.05078125C883.66015654 957.69335938 747.92773408 957.69335938 590.80859404 957.69335938L590.80859404 957.69335938 590.80859404 957.69335938zM416.76757842 613.66015654c-135.80273408 0-246.31054717 109.01367158-246.31054717 243.04687471l0 17.31445313c0 34.74609346 142.35351593 34.74609346 246.31054717 34.74609345L592.39062529 908.76757783c86.04492188 0 246.32812529 0 246.32812529-34.74609345l0-17.31445313c0-134.03320313-110.53710967-243.04687471-246.32812529-243.04687471L416.76757842 613.66015654 416.76757842 613.66015654 416.76757842 613.66015654zM495.97460967 530.84960967c-128.21484375 0-232.44140654-103.24218779-232.44140656-230.12695283 0-126.9140625 104.22070313-230.13867217 232.44140656-230.13867217 128.20312529 0 232.41210908 103.22460967 232.41210908 230.13867217C728.38671875 427.60742187 624.11914092 530.84960967 495.97460967 530.84960967L495.97460967 530.84960967 495.97460967 530.84960967zM311.41601562 299.99023437c0 100.37109375 82.80468721 182.02148438 184.55273437 182.02148438 101.77734375 0 184.59960908-81.65039063 184.59960909-182.02148438 0-100.32421904-82.82226533-181.93359375-184.59960907-181.93359374C394.20898437 118.05664062 311.41601562 199.66601533 311.41601562 299.99023437L311.41601562 299.99023437 311.41601562 299.99023437z" p-id="3553"></path></svg>