<?xml version="1.0" standalone="no"?><!DOCTYPE svg PUBLIC "-//W3C//DTD SVG 1.1//EN" "http://www.w3.org/Graphics/SVG/1.1/DTD/svg11.dtd"><svg t="1509008191023" class="icon" style="" viewBox="0 0 1024 1024" version="1.1" xmlns="http://www.w3.org/2000/svg" p-id="3675" xmlns:xlink="http://www.w3.org/1999/xlink" width="200" height="200"><defs><style type="text/css"></style></defs><path d="M502.61137315 76.47601661c124.10483203 0 224.70486065 98.95859209 224.70486063 221.01517352 0 122.07962549-100.60002862 221.04353496-224.70486063 221.04353497-124.10128653 0-224.69954239-98.96302354-224.69954239-221.04353497C277.91183076 175.40624638 378.54465224 76.47601661 502.61137315 76.47601661L502.61137315 76.47601661 502.61137315 76.47601661zM502.61137315 76.47601661c124.10483203 0 224.70486065 98.95859209 224.70486063 221.01517352 0 122.07962549-100.60002862 221.04353496-224.70486063 221.04353497-124.10128653 0-224.69954239-98.96302354-224.69954239-221.04353497C277.91183076 175.40624638 378.54465224 76.47601661 502.61137315 76.47601661L502.61137315 76.47601661 502.61137315 76.47601661zM418.35480576 592.22742558l187.29038848 0c160.31215635 0 290.25330557 127.79097363 290.25330556 285.49030343l1e-8 18.39259774c0 62.14503516-129.96951153 64.5070377-290.25330557 64.5070377L418.35480576 960.61736445c-160.31658779 0-290.25330557-0.09128935-290.25330556-64.5070377l-1e-8-18.39259774C128.10149932 720.0184001 258.03733115 592.22742558 418.35480576 592.22742558L418.35480576 592.22742558 418.35480576 592.22742558zM418.35480576 592.22742558" p-id="3676"></path></svg>