<?xml version="1.0" standalone="no"?><!DOCTYPE svg PUBLIC "-//W3C//DTD SVG 1.1//EN" "http://www.w3.org/Graphics/SVG/1.1/DTD/svg11.dtd"><svg t="1516604474133" class="icon" style="" viewBox="0 0 1024 1024" version="1.1" xmlns="http://www.w3.org/2000/svg" p-id="3030" xmlns:xlink="http://www.w3.org/1999/xlink" width="200" height="200"><defs><style type="text/css"></style></defs><path d="M141.21142578 233.90856933l0 556.18286133 741.57714844 0 0-556.18286133-741.57714844 0zM280.25714112 743.74285888l-92.69714356 0 0-92.69714355 92.69714356 0 0 92.69714355zM280.25714112 558.34857177l-92.69714356 0 0-92.69714354 92.69714356 0 0 92.69714355zM280.25714112 372.95428467l-92.69714356 0 0-92.69714355 92.69714356 0 0 92.69714355zM697.39428711 743.74285888l-370.78857422 0 0-463.48571776 370.78857422 0 0 463.48571776zM836.44000244 743.74285888l-92.69714356 0 0-92.69714355 92.69714356 0 0 92.69714355zM836.44000244 558.34857177l-92.69714356 0 0-92.69714354 92.69714356 0 0 92.69714355zM836.44000244 372.95428467l-92.69714356 0 0-92.69714355 92.69714356 0 0 92.69714355zM419.30285644 372.95428467l1e-8 278.09143066 185.3942871-139.04571533z" p-id="3031"></path></svg>